%TF.GenerationSoftware,KiCad,Pcbnew,9.0.0*%
%TF.CreationDate,2025-03-06T20:02:31+02:00*%
%TF.ProjectId,bigmuff,6269676d-7566-4662-9e6b-696361645f70,rev?*%
%TF.SameCoordinates,Original*%
%TF.FileFunction,Soldermask,Bot*%
%TF.FilePolarity,Negative*%
%FSLAX46Y46*%
G04 Gerber Fmt 4.6, Leading zero omitted, Abs format (unit mm)*
G04 Created by KiCad (PCBNEW 9.0.0) date 2025-03-06 20:02:31*
%MOMM*%
%LPD*%
G01*
G04 APERTURE LIST*
%ADD10R,1.700000X1.700000*%
%ADD11O,1.600000X1.600000*%
%ADD12R,1.600000X1.600000*%
%ADD13C,1.600000*%
%ADD14R,1.300000X1.300000*%
%ADD15C,1.300000*%
%ADD16O,1.700000X1.700000*%
G04 APERTURE END LIST*
D10*
%TO.C,GND4*%
X130500000Y-88250000D03*
%TD*%
%TO.C,+9V1*%
X144500000Y-26000000D03*
%TD*%
D11*
%TO.C,D3*%
X145130000Y-79750000D03*
D12*
X152750000Y-79750000D03*
%TD*%
D10*
%TO.C,+9V2*%
X155750000Y-67500000D03*
%TD*%
D13*
%TO.C,R16*%
X163880000Y-82750000D03*
D11*
X171500000Y-82750000D03*
%TD*%
D13*
%TO.C,R23*%
X134250000Y-49440000D03*
D11*
X134250000Y-57060000D03*
%TD*%
D13*
%TO.C,C8*%
X149000000Y-57750000D03*
X149000000Y-62750000D03*
%TD*%
D10*
%TO.C,OUT1*%
X173000000Y-70250000D03*
%TD*%
D13*
%TO.C,R2*%
X122500000Y-76690000D03*
D11*
X122500000Y-84310000D03*
%TD*%
D14*
%TO.C,Q1*%
X167770000Y-50980000D03*
D15*
X166500000Y-52250000D03*
X165230000Y-50980000D03*
%TD*%
D13*
%TO.C,C5*%
X138250000Y-54750000D03*
X138250000Y-49750000D03*
%TD*%
%TO.C,R5*%
X142500000Y-64810000D03*
D11*
X142500000Y-57190000D03*
%TD*%
D13*
%TO.C,R11*%
X169500000Y-67380000D03*
D11*
X169500000Y-75000000D03*
%TD*%
D13*
%TO.C,R8*%
X152500000Y-56690000D03*
D11*
X152500000Y-64310000D03*
%TD*%
D10*
%TO.C,Sustain1*%
X123880000Y-45000000D03*
D16*
X126420000Y-45000000D03*
X128960000Y-45000000D03*
X131500000Y-45000000D03*
X134040000Y-45000000D03*
%TD*%
D13*
%TO.C,R12*%
X156060000Y-87000000D03*
D11*
X148440000Y-87000000D03*
%TD*%
D14*
%TO.C,Q3*%
X137210000Y-70250000D03*
D15*
X138480000Y-68980000D03*
X139750000Y-70250000D03*
%TD*%
D12*
%TO.C,C6*%
X149000000Y-71000000D03*
D13*
X149000000Y-68500000D03*
%TD*%
%TO.C,R13*%
X126000000Y-65620000D03*
D11*
X126000000Y-58000000D03*
%TD*%
D12*
%TO.C,D2*%
X162750000Y-75060000D03*
D11*
X162750000Y-67440000D03*
%TD*%
D13*
%TO.C,R18*%
X152750000Y-83000000D03*
D11*
X145130000Y-83000000D03*
%TD*%
D13*
%TO.C,C9*%
X146000000Y-57750000D03*
X146000000Y-62750000D03*
%TD*%
%TO.C,R15*%
X171310000Y-78750000D03*
D11*
X163690000Y-78750000D03*
%TD*%
D12*
%TO.C,C14*%
X151000000Y-25182380D03*
D13*
X151000000Y-22682380D03*
%TD*%
%TO.C,R19*%
X138250000Y-65560000D03*
D11*
X138250000Y-57940000D03*
%TD*%
D13*
%TO.C,C13*%
X145500000Y-87500000D03*
X140500000Y-87500000D03*
%TD*%
%TO.C,R14*%
X126500000Y-76940000D03*
D11*
X126500000Y-84560000D03*
%TD*%
D10*
%TO.C,IN1*%
X122500000Y-88250000D03*
%TD*%
D13*
%TO.C,C2*%
X161750000Y-49000000D03*
X161750000Y-54000000D03*
%TD*%
D10*
%TO.C,GND1*%
X144500000Y-22000000D03*
%TD*%
D13*
%TO.C,R10*%
X164130000Y-86250000D03*
D11*
X171750000Y-86250000D03*
%TD*%
D13*
%TO.C,C4*%
X122250000Y-50000000D03*
X122250000Y-55000000D03*
%TD*%
D10*
%TO.C,GND2*%
X126500000Y-88250000D03*
%TD*%
D16*
%TO.C,Tone1*%
X152580000Y-53500000D03*
X150040000Y-53500000D03*
X147500000Y-53500000D03*
X144960000Y-53500000D03*
D10*
X142420000Y-53500000D03*
%TD*%
D12*
%TO.C,D1*%
X166000000Y-67440000D03*
D11*
X166000000Y-75060000D03*
%TD*%
D10*
%TO.C,GND3*%
X173000000Y-75000000D03*
%TD*%
D13*
%TO.C,R20*%
X133750000Y-76940000D03*
D11*
X133750000Y-84560000D03*
%TD*%
D13*
%TO.C,C11*%
X161000000Y-78750000D03*
X156000000Y-78750000D03*
%TD*%
%TO.C,R9*%
X122250000Y-57940000D03*
D11*
X122250000Y-65560000D03*
%TD*%
D14*
%TO.C,Q2*%
X160360000Y-85540000D03*
D15*
X159090000Y-84270000D03*
X160360000Y-83000000D03*
%TD*%
D14*
%TO.C,Q4*%
X129000000Y-52500000D03*
D15*
X127730000Y-53770000D03*
X126460000Y-52500000D03*
%TD*%
D10*
%TO.C,Vol1*%
X160880000Y-45000000D03*
D16*
X163420000Y-45000000D03*
X165960000Y-45000000D03*
X168500000Y-45000000D03*
X171040000Y-45000000D03*
%TD*%
D13*
%TO.C,R7*%
X165000000Y-64560000D03*
D11*
X165000000Y-56940000D03*
%TD*%
D13*
%TO.C,R17*%
X141250000Y-84560000D03*
D11*
X141250000Y-76940000D03*
%TD*%
D13*
%TO.C,R21*%
X137500000Y-76880000D03*
D11*
X137500000Y-84500000D03*
%TD*%
D12*
%TO.C,D4*%
X145190000Y-76500000D03*
D11*
X152810000Y-76500000D03*
%TD*%
D13*
%TO.C,C10*%
X129500000Y-58250000D03*
X129500000Y-63250000D03*
%TD*%
%TO.C,R3*%
X168750000Y-56940000D03*
D11*
X168750000Y-64560000D03*
%TD*%
D13*
%TO.C,R6*%
X161500000Y-64560000D03*
D11*
X161500000Y-56940000D03*
%TD*%
D13*
%TO.C,R22*%
X130000000Y-76940000D03*
D11*
X130000000Y-84560000D03*
%TD*%
D12*
%TO.C,C1*%
X125000000Y-71000000D03*
D13*
X122500000Y-71000000D03*
%TD*%
%TO.C,C12*%
X133750000Y-70500000D03*
X133750000Y-65500000D03*
%TD*%
D12*
%TO.C,C7*%
X158500000Y-73000000D03*
D13*
X156000000Y-73000000D03*
%TD*%
%TO.C,R4*%
X172000000Y-56940000D03*
D11*
X172000000Y-64560000D03*
%TD*%
D13*
%TO.C,C3*%
X156000000Y-60500000D03*
X156000000Y-55500000D03*
%TD*%
M02*
