%TF.GenerationSoftware,KiCad,Pcbnew,9.0.0*%
%TF.CreationDate,2025-03-06T20:05:53+02:00*%
%TF.ProjectId,bigmuff,6269676d-7566-4662-9e6b-696361645f70,rev?*%
%TF.SameCoordinates,Original*%
%TF.FileFunction,Drillmap*%
%TF.FilePolarity,Positive*%
%FSLAX45Y45*%
G04 Gerber Fmt 4.5, Leading zero omitted, Abs format (unit mm)*
G04 Created by KiCad (PCBNEW 9.0.0) date 2025-03-06 20:05:53*
%MOMM*%
%LPD*%
G01*
G04 APERTURE LIST*
%ADD10C,0.050000*%
%ADD11C,0.200000*%
G04 APERTURE END LIST*
D10*
X12000000Y-2000000D02*
X17500000Y-2000000D01*
X17500000Y-9100000D01*
X12000000Y-9100000D01*
X12000000Y-2000000D01*
D11*
X12258277Y-9413984D02*
X12258277Y-9213984D01*
X12258277Y-9213984D02*
X12305896Y-9213984D01*
X12305896Y-9213984D02*
X12334467Y-9223508D01*
X12334467Y-9223508D02*
X12353515Y-9242555D01*
X12353515Y-9242555D02*
X12363039Y-9261603D01*
X12363039Y-9261603D02*
X12372562Y-9299698D01*
X12372562Y-9299698D02*
X12372562Y-9328270D01*
X12372562Y-9328270D02*
X12363039Y-9366365D01*
X12363039Y-9366365D02*
X12353515Y-9385412D01*
X12353515Y-9385412D02*
X12334467Y-9404460D01*
X12334467Y-9404460D02*
X12305896Y-9413984D01*
X12305896Y-9413984D02*
X12258277Y-9413984D01*
X12458277Y-9413984D02*
X12458277Y-9280650D01*
X12458277Y-9318746D02*
X12467801Y-9299698D01*
X12467801Y-9299698D02*
X12477324Y-9290174D01*
X12477324Y-9290174D02*
X12496372Y-9280650D01*
X12496372Y-9280650D02*
X12515420Y-9280650D01*
X12582086Y-9413984D02*
X12582086Y-9280650D01*
X12582086Y-9213984D02*
X12572562Y-9223508D01*
X12572562Y-9223508D02*
X12582086Y-9233031D01*
X12582086Y-9233031D02*
X12591610Y-9223508D01*
X12591610Y-9223508D02*
X12582086Y-9213984D01*
X12582086Y-9213984D02*
X12582086Y-9233031D01*
X12705896Y-9413984D02*
X12686848Y-9404460D01*
X12686848Y-9404460D02*
X12677324Y-9385412D01*
X12677324Y-9385412D02*
X12677324Y-9213984D01*
X12810658Y-9413984D02*
X12791610Y-9404460D01*
X12791610Y-9404460D02*
X12782086Y-9385412D01*
X12782086Y-9385412D02*
X12782086Y-9213984D01*
X13039229Y-9413984D02*
X13039229Y-9213984D01*
X13039229Y-9213984D02*
X13105896Y-9356841D01*
X13105896Y-9356841D02*
X13172562Y-9213984D01*
X13172562Y-9213984D02*
X13172562Y-9413984D01*
X13353515Y-9413984D02*
X13353515Y-9309222D01*
X13353515Y-9309222D02*
X13343991Y-9290174D01*
X13343991Y-9290174D02*
X13324943Y-9280650D01*
X13324943Y-9280650D02*
X13286848Y-9280650D01*
X13286848Y-9280650D02*
X13267801Y-9290174D01*
X13353515Y-9404460D02*
X13334467Y-9413984D01*
X13334467Y-9413984D02*
X13286848Y-9413984D01*
X13286848Y-9413984D02*
X13267801Y-9404460D01*
X13267801Y-9404460D02*
X13258277Y-9385412D01*
X13258277Y-9385412D02*
X13258277Y-9366365D01*
X13258277Y-9366365D02*
X13267801Y-9347317D01*
X13267801Y-9347317D02*
X13286848Y-9337793D01*
X13286848Y-9337793D02*
X13334467Y-9337793D01*
X13334467Y-9337793D02*
X13353515Y-9328270D01*
X13448753Y-9280650D02*
X13448753Y-9480650D01*
X13448753Y-9290174D02*
X13467801Y-9280650D01*
X13467801Y-9280650D02*
X13505896Y-9280650D01*
X13505896Y-9280650D02*
X13524943Y-9290174D01*
X13524943Y-9290174D02*
X13534467Y-9299698D01*
X13534467Y-9299698D02*
X13543991Y-9318746D01*
X13543991Y-9318746D02*
X13543991Y-9375889D01*
X13543991Y-9375889D02*
X13534467Y-9394936D01*
X13534467Y-9394936D02*
X13524943Y-9404460D01*
X13524943Y-9404460D02*
X13505896Y-9413984D01*
X13505896Y-9413984D02*
X13467801Y-9413984D01*
X13467801Y-9413984D02*
X13448753Y-9404460D01*
X13629705Y-9394936D02*
X13639229Y-9404460D01*
X13639229Y-9404460D02*
X13629705Y-9413984D01*
X13629705Y-9413984D02*
X13620182Y-9404460D01*
X13620182Y-9404460D02*
X13629705Y-9394936D01*
X13629705Y-9394936D02*
X13629705Y-9413984D01*
X13629705Y-9290174D02*
X13639229Y-9299698D01*
X13639229Y-9299698D02*
X13629705Y-9309222D01*
X13629705Y-9309222D02*
X13620182Y-9299698D01*
X13620182Y-9299698D02*
X13629705Y-9290174D01*
X13629705Y-9290174D02*
X13629705Y-9309222D01*
M02*
