M48
; DRILL file {KiCad 9.0.0} date 2025-03-06T20:05:53+0200
; FORMAT={-:-/ absolute / metric / decimal}
; #@! TF.CreationDate,2025-03-06T20:05:53+02:00
; #@! TF.GenerationSoftware,Kicad,Pcbnew,9.0.0
; #@! TF.FileFunction,Plated,1,2,PTH
FMAT,2
METRIC
; #@! TA.AperFunction,Plated,PTH,ComponentDrill
T1C0.750
; #@! TA.AperFunction,Plated,PTH,ComponentDrill
T2C0.800
; #@! TA.AperFunction,Plated,PTH,ComponentDrill
T3C1.000
%
G90
G05
T1
X126.46Y-52.5
X127.73Y-53.77
X129.0Y-52.5
X137.21Y-70.25
X138.48Y-68.98
X139.75Y-70.25
X159.09Y-84.27
X160.36Y-83.0
X160.36Y-85.54
X165.23Y-50.98
X166.5Y-52.25
X167.77Y-50.98
T2
X122.25Y-50.0
X122.25Y-55.0
X122.25Y-57.94
X122.25Y-65.56
X122.5Y-71.0
X122.5Y-76.69
X122.5Y-84.31
X125.0Y-71.0
X126.0Y-58.0
X126.0Y-65.62
X126.5Y-76.94
X126.5Y-84.56
X129.5Y-58.25
X129.5Y-63.25
X130.0Y-76.94
X130.0Y-84.56
X133.75Y-65.5
X133.75Y-70.5
X133.75Y-76.94
X133.75Y-84.56
X134.25Y-49.44
X134.25Y-57.06
X137.5Y-76.88
X137.5Y-84.5
X138.25Y-49.75
X138.25Y-54.75
X138.25Y-57.94
X138.25Y-65.56
X140.5Y-87.5
X141.25Y-76.94
X141.25Y-84.56
X142.5Y-57.19
X142.5Y-64.81
X145.13Y-79.75
X145.13Y-83.0
X145.19Y-76.5
X145.5Y-87.5
X146.0Y-57.75
X146.0Y-62.75
X148.44Y-87.0
X149.0Y-57.75
X149.0Y-62.75
X149.0Y-68.5
X149.0Y-71.0
X151.0Y-22.682
X151.0Y-25.182
X152.5Y-56.69
X152.5Y-64.31
X152.75Y-79.75
X152.75Y-83.0
X152.81Y-76.5
X156.0Y-55.5
X156.0Y-60.5
X156.0Y-73.0
X156.0Y-78.75
X156.06Y-87.0
X158.5Y-73.0
X161.0Y-78.75
X161.5Y-56.94
X161.5Y-64.56
X161.75Y-49.0
X161.75Y-54.0
X162.75Y-67.44
X162.75Y-75.06
X163.69Y-78.75
X163.88Y-82.75
X164.13Y-86.25
X165.0Y-56.94
X165.0Y-64.56
X166.0Y-67.44
X166.0Y-75.06
X168.75Y-56.94
X168.75Y-64.56
X169.5Y-67.38
X169.5Y-75.0
X171.31Y-78.75
X171.5Y-82.75
X171.75Y-86.25
X172.0Y-56.94
X172.0Y-64.56
T3
X122.5Y-88.25
X123.88Y-45.0
X126.42Y-45.0
X126.5Y-88.25
X128.96Y-45.0
X130.5Y-88.25
X131.5Y-45.0
X134.04Y-45.0
X142.42Y-53.5
X144.5Y-22.0
X144.5Y-26.0
X144.96Y-53.5
X147.5Y-53.5
X150.04Y-53.5
X152.58Y-53.5
X155.75Y-67.5
X160.88Y-45.0
X163.42Y-45.0
X165.96Y-45.0
X168.5Y-45.0
X171.04Y-45.0
X173.0Y-70.25
X173.0Y-75.0
M30
