%TF.GenerationSoftware,KiCad,Pcbnew,9.0.0*%
%TF.CreationDate,2025-03-06T20:02:31+02:00*%
%TF.ProjectId,bigmuff,6269676d-7566-4662-9e6b-696361645f70,rev?*%
%TF.SameCoordinates,Original*%
%TF.FileFunction,Legend,Top*%
%TF.FilePolarity,Positive*%
%FSLAX46Y46*%
G04 Gerber Fmt 4.6, Leading zero omitted, Abs format (unit mm)*
G04 Created by KiCad (PCBNEW 9.0.0) date 2025-03-06 20:02:31*
%MOMM*%
%LPD*%
G01*
G04 APERTURE LIST*
%ADD10C,0.100000*%
%ADD11C,0.150000*%
%ADD12C,0.120000*%
%ADD13R,1.700000X1.700000*%
%ADD14O,1.600000X1.600000*%
%ADD15R,1.600000X1.600000*%
%ADD16C,1.600000*%
%ADD17R,1.300000X1.300000*%
%ADD18C,1.300000*%
%ADD19O,1.700000X1.700000*%
G04 APERTURE END LIST*
D10*
X122303884Y-23262475D02*
X122303884Y-22262475D01*
X122303884Y-22262475D02*
X122637217Y-22976760D01*
X122637217Y-22976760D02*
X122970550Y-22262475D01*
X122970550Y-22262475D02*
X122970550Y-23262475D01*
X123875312Y-22595808D02*
X123875312Y-23262475D01*
X123446741Y-22595808D02*
X123446741Y-23119617D01*
X123446741Y-23119617D02*
X123494360Y-23214856D01*
X123494360Y-23214856D02*
X123589598Y-23262475D01*
X123589598Y-23262475D02*
X123732455Y-23262475D01*
X123732455Y-23262475D02*
X123827693Y-23214856D01*
X123827693Y-23214856D02*
X123875312Y-23167236D01*
X124208646Y-22595808D02*
X124589598Y-22595808D01*
X124351503Y-23262475D02*
X124351503Y-22405332D01*
X124351503Y-22405332D02*
X124399122Y-22310094D01*
X124399122Y-22310094D02*
X124494360Y-22262475D01*
X124494360Y-22262475D02*
X124589598Y-22262475D01*
X124780075Y-22595808D02*
X125161027Y-22595808D01*
X124922932Y-23262475D02*
X124922932Y-22405332D01*
X124922932Y-22405332D02*
X124970551Y-22310094D01*
X124970551Y-22310094D02*
X125065789Y-22262475D01*
X125065789Y-22262475D02*
X125161027Y-22262475D01*
X125256266Y-23357713D02*
X126018170Y-23357713D01*
X126161028Y-22595808D02*
X126399123Y-23262475D01*
X126399123Y-23262475D02*
X126637218Y-22595808D01*
X126922933Y-22262475D02*
X127541980Y-22262475D01*
X127541980Y-22262475D02*
X127208647Y-22643427D01*
X127208647Y-22643427D02*
X127351504Y-22643427D01*
X127351504Y-22643427D02*
X127446742Y-22691046D01*
X127446742Y-22691046D02*
X127494361Y-22738665D01*
X127494361Y-22738665D02*
X127541980Y-22833903D01*
X127541980Y-22833903D02*
X127541980Y-23071998D01*
X127541980Y-23071998D02*
X127494361Y-23167236D01*
X127494361Y-23167236D02*
X127446742Y-23214856D01*
X127446742Y-23214856D02*
X127351504Y-23262475D01*
X127351504Y-23262475D02*
X127065790Y-23262475D01*
X127065790Y-23262475D02*
X126970552Y-23214856D01*
X126970552Y-23214856D02*
X126922933Y-23167236D01*
X129161028Y-23214856D02*
X129065790Y-23262475D01*
X129065790Y-23262475D02*
X128875314Y-23262475D01*
X128875314Y-23262475D02*
X128780076Y-23214856D01*
X128780076Y-23214856D02*
X128732457Y-23167236D01*
X128732457Y-23167236D02*
X128684838Y-23071998D01*
X128684838Y-23071998D02*
X128684838Y-22786284D01*
X128684838Y-22786284D02*
X128732457Y-22691046D01*
X128732457Y-22691046D02*
X128780076Y-22643427D01*
X128780076Y-22643427D02*
X128875314Y-22595808D01*
X128875314Y-22595808D02*
X129065790Y-22595808D01*
X129065790Y-22595808D02*
X129161028Y-22643427D01*
X129732457Y-23262475D02*
X129637219Y-23214856D01*
X129637219Y-23214856D02*
X129589600Y-23119617D01*
X129589600Y-23119617D02*
X129589600Y-22262475D01*
X130256267Y-23262475D02*
X130161029Y-23214856D01*
X130161029Y-23214856D02*
X130113410Y-23167236D01*
X130113410Y-23167236D02*
X130065791Y-23071998D01*
X130065791Y-23071998D02*
X130065791Y-22786284D01*
X130065791Y-22786284D02*
X130113410Y-22691046D01*
X130113410Y-22691046D02*
X130161029Y-22643427D01*
X130161029Y-22643427D02*
X130256267Y-22595808D01*
X130256267Y-22595808D02*
X130399124Y-22595808D01*
X130399124Y-22595808D02*
X130494362Y-22643427D01*
X130494362Y-22643427D02*
X130541981Y-22691046D01*
X130541981Y-22691046D02*
X130589600Y-22786284D01*
X130589600Y-22786284D02*
X130589600Y-23071998D01*
X130589600Y-23071998D02*
X130541981Y-23167236D01*
X130541981Y-23167236D02*
X130494362Y-23214856D01*
X130494362Y-23214856D02*
X130399124Y-23262475D01*
X130399124Y-23262475D02*
X130256267Y-23262475D01*
X131018172Y-22595808D02*
X131018172Y-23262475D01*
X131018172Y-22691046D02*
X131065791Y-22643427D01*
X131065791Y-22643427D02*
X131161029Y-22595808D01*
X131161029Y-22595808D02*
X131303886Y-22595808D01*
X131303886Y-22595808D02*
X131399124Y-22643427D01*
X131399124Y-22643427D02*
X131446743Y-22738665D01*
X131446743Y-22738665D02*
X131446743Y-23262475D01*
X132303886Y-23214856D02*
X132208648Y-23262475D01*
X132208648Y-23262475D02*
X132018172Y-23262475D01*
X132018172Y-23262475D02*
X131922934Y-23214856D01*
X131922934Y-23214856D02*
X131875315Y-23119617D01*
X131875315Y-23119617D02*
X131875315Y-22738665D01*
X131875315Y-22738665D02*
X131922934Y-22643427D01*
X131922934Y-22643427D02*
X132018172Y-22595808D01*
X132018172Y-22595808D02*
X132208648Y-22595808D01*
X132208648Y-22595808D02*
X132303886Y-22643427D01*
X132303886Y-22643427D02*
X132351505Y-22738665D01*
X132351505Y-22738665D02*
X132351505Y-22833903D01*
X132351505Y-22833903D02*
X131875315Y-22929141D01*
X122303884Y-24872419D02*
X122303884Y-23872419D01*
X122303884Y-23872419D02*
X122684836Y-23872419D01*
X122684836Y-23872419D02*
X122780074Y-23920038D01*
X122780074Y-23920038D02*
X122827693Y-23967657D01*
X122827693Y-23967657D02*
X122875312Y-24062895D01*
X122875312Y-24062895D02*
X122875312Y-24205752D01*
X122875312Y-24205752D02*
X122827693Y-24300990D01*
X122827693Y-24300990D02*
X122780074Y-24348609D01*
X122780074Y-24348609D02*
X122684836Y-24396228D01*
X122684836Y-24396228D02*
X122303884Y-24396228D01*
X123875312Y-24777180D02*
X123827693Y-24824800D01*
X123827693Y-24824800D02*
X123684836Y-24872419D01*
X123684836Y-24872419D02*
X123589598Y-24872419D01*
X123589598Y-24872419D02*
X123446741Y-24824800D01*
X123446741Y-24824800D02*
X123351503Y-24729561D01*
X123351503Y-24729561D02*
X123303884Y-24634323D01*
X123303884Y-24634323D02*
X123256265Y-24443847D01*
X123256265Y-24443847D02*
X123256265Y-24300990D01*
X123256265Y-24300990D02*
X123303884Y-24110514D01*
X123303884Y-24110514D02*
X123351503Y-24015276D01*
X123351503Y-24015276D02*
X123446741Y-23920038D01*
X123446741Y-23920038D02*
X123589598Y-23872419D01*
X123589598Y-23872419D02*
X123684836Y-23872419D01*
X123684836Y-23872419D02*
X123827693Y-23920038D01*
X123827693Y-23920038D02*
X123875312Y-23967657D01*
X124637217Y-24348609D02*
X124780074Y-24396228D01*
X124780074Y-24396228D02*
X124827693Y-24443847D01*
X124827693Y-24443847D02*
X124875312Y-24539085D01*
X124875312Y-24539085D02*
X124875312Y-24681942D01*
X124875312Y-24681942D02*
X124827693Y-24777180D01*
X124827693Y-24777180D02*
X124780074Y-24824800D01*
X124780074Y-24824800D02*
X124684836Y-24872419D01*
X124684836Y-24872419D02*
X124303884Y-24872419D01*
X124303884Y-24872419D02*
X124303884Y-23872419D01*
X124303884Y-23872419D02*
X124637217Y-23872419D01*
X124637217Y-23872419D02*
X124732455Y-23920038D01*
X124732455Y-23920038D02*
X124780074Y-23967657D01*
X124780074Y-23967657D02*
X124827693Y-24062895D01*
X124827693Y-24062895D02*
X124827693Y-24158133D01*
X124827693Y-24158133D02*
X124780074Y-24253371D01*
X124780074Y-24253371D02*
X124732455Y-24300990D01*
X124732455Y-24300990D02*
X124637217Y-24348609D01*
X124637217Y-24348609D02*
X124303884Y-24348609D01*
X125922932Y-24205752D02*
X126303884Y-24205752D01*
X126065789Y-24872419D02*
X126065789Y-24015276D01*
X126065789Y-24015276D02*
X126113408Y-23920038D01*
X126113408Y-23920038D02*
X126208646Y-23872419D01*
X126208646Y-23872419D02*
X126303884Y-23872419D01*
X126780075Y-24872419D02*
X126684837Y-24824800D01*
X126684837Y-24824800D02*
X126637218Y-24777180D01*
X126637218Y-24777180D02*
X126589599Y-24681942D01*
X126589599Y-24681942D02*
X126589599Y-24396228D01*
X126589599Y-24396228D02*
X126637218Y-24300990D01*
X126637218Y-24300990D02*
X126684837Y-24253371D01*
X126684837Y-24253371D02*
X126780075Y-24205752D01*
X126780075Y-24205752D02*
X126922932Y-24205752D01*
X126922932Y-24205752D02*
X127018170Y-24253371D01*
X127018170Y-24253371D02*
X127065789Y-24300990D01*
X127065789Y-24300990D02*
X127113408Y-24396228D01*
X127113408Y-24396228D02*
X127113408Y-24681942D01*
X127113408Y-24681942D02*
X127065789Y-24777180D01*
X127065789Y-24777180D02*
X127018170Y-24824800D01*
X127018170Y-24824800D02*
X126922932Y-24872419D01*
X126922932Y-24872419D02*
X126780075Y-24872419D01*
X127541980Y-24872419D02*
X127541980Y-24205752D01*
X127541980Y-24396228D02*
X127589599Y-24300990D01*
X127589599Y-24300990D02*
X127637218Y-24253371D01*
X127637218Y-24253371D02*
X127732456Y-24205752D01*
X127732456Y-24205752D02*
X127827694Y-24205752D01*
X129446742Y-24872419D02*
X128875314Y-24872419D01*
X129161028Y-24872419D02*
X129161028Y-23872419D01*
X129161028Y-23872419D02*
X129065790Y-24015276D01*
X129065790Y-24015276D02*
X128970552Y-24110514D01*
X128970552Y-24110514D02*
X128875314Y-24158133D01*
X130351504Y-23872419D02*
X129875314Y-23872419D01*
X129875314Y-23872419D02*
X129827695Y-24348609D01*
X129827695Y-24348609D02*
X129875314Y-24300990D01*
X129875314Y-24300990D02*
X129970552Y-24253371D01*
X129970552Y-24253371D02*
X130208647Y-24253371D01*
X130208647Y-24253371D02*
X130303885Y-24300990D01*
X130303885Y-24300990D02*
X130351504Y-24348609D01*
X130351504Y-24348609D02*
X130399123Y-24443847D01*
X130399123Y-24443847D02*
X130399123Y-24681942D01*
X130399123Y-24681942D02*
X130351504Y-24777180D01*
X130351504Y-24777180D02*
X130303885Y-24824800D01*
X130303885Y-24824800D02*
X130208647Y-24872419D01*
X130208647Y-24872419D02*
X129970552Y-24872419D01*
X129970552Y-24872419D02*
X129875314Y-24824800D01*
X129875314Y-24824800D02*
X129827695Y-24777180D01*
X130875314Y-24872419D02*
X131065790Y-24872419D01*
X131065790Y-24872419D02*
X131161028Y-24824800D01*
X131161028Y-24824800D02*
X131208647Y-24777180D01*
X131208647Y-24777180D02*
X131303885Y-24634323D01*
X131303885Y-24634323D02*
X131351504Y-24443847D01*
X131351504Y-24443847D02*
X131351504Y-24062895D01*
X131351504Y-24062895D02*
X131303885Y-23967657D01*
X131303885Y-23967657D02*
X131256266Y-23920038D01*
X131256266Y-23920038D02*
X131161028Y-23872419D01*
X131161028Y-23872419D02*
X130970552Y-23872419D01*
X130970552Y-23872419D02*
X130875314Y-23920038D01*
X130875314Y-23920038D02*
X130827695Y-23967657D01*
X130827695Y-23967657D02*
X130780076Y-24062895D01*
X130780076Y-24062895D02*
X130780076Y-24300990D01*
X130780076Y-24300990D02*
X130827695Y-24396228D01*
X130827695Y-24396228D02*
X130875314Y-24443847D01*
X130875314Y-24443847D02*
X130970552Y-24491466D01*
X130970552Y-24491466D02*
X131161028Y-24491466D01*
X131161028Y-24491466D02*
X131256266Y-24443847D01*
X131256266Y-24443847D02*
X131303885Y-24396228D01*
X131303885Y-24396228D02*
X131351504Y-24300990D01*
X131970552Y-23872419D02*
X132065790Y-23872419D01*
X132065790Y-23872419D02*
X132161028Y-23920038D01*
X132161028Y-23920038D02*
X132208647Y-23967657D01*
X132208647Y-23967657D02*
X132256266Y-24062895D01*
X132256266Y-24062895D02*
X132303885Y-24253371D01*
X132303885Y-24253371D02*
X132303885Y-24491466D01*
X132303885Y-24491466D02*
X132256266Y-24681942D01*
X132256266Y-24681942D02*
X132208647Y-24777180D01*
X132208647Y-24777180D02*
X132161028Y-24824800D01*
X132161028Y-24824800D02*
X132065790Y-24872419D01*
X132065790Y-24872419D02*
X131970552Y-24872419D01*
X131970552Y-24872419D02*
X131875314Y-24824800D01*
X131875314Y-24824800D02*
X131827695Y-24777180D01*
X131827695Y-24777180D02*
X131780076Y-24681942D01*
X131780076Y-24681942D02*
X131732457Y-24491466D01*
X131732457Y-24491466D02*
X131732457Y-24253371D01*
X131732457Y-24253371D02*
X131780076Y-24062895D01*
X131780076Y-24062895D02*
X131827695Y-23967657D01*
X131827695Y-23967657D02*
X131875314Y-23920038D01*
X131875314Y-23920038D02*
X131970552Y-23872419D01*
X133065790Y-24348609D02*
X133208647Y-24396228D01*
X133208647Y-24396228D02*
X133256266Y-24443847D01*
X133256266Y-24443847D02*
X133303885Y-24539085D01*
X133303885Y-24539085D02*
X133303885Y-24681942D01*
X133303885Y-24681942D02*
X133256266Y-24777180D01*
X133256266Y-24777180D02*
X133208647Y-24824800D01*
X133208647Y-24824800D02*
X133113409Y-24872419D01*
X133113409Y-24872419D02*
X132732457Y-24872419D01*
X132732457Y-24872419D02*
X132732457Y-23872419D01*
X132732457Y-23872419D02*
X133065790Y-23872419D01*
X133065790Y-23872419D02*
X133161028Y-23920038D01*
X133161028Y-23920038D02*
X133208647Y-23967657D01*
X133208647Y-23967657D02*
X133256266Y-24062895D01*
X133256266Y-24062895D02*
X133256266Y-24158133D01*
X133256266Y-24158133D02*
X133208647Y-24253371D01*
X133208647Y-24253371D02*
X133161028Y-24300990D01*
X133161028Y-24300990D02*
X133065790Y-24348609D01*
X133065790Y-24348609D02*
X132732457Y-24348609D01*
D11*
X133511904Y-87502438D02*
X133416666Y-87454819D01*
X133416666Y-87454819D02*
X133273809Y-87454819D01*
X133273809Y-87454819D02*
X133130952Y-87502438D01*
X133130952Y-87502438D02*
X133035714Y-87597676D01*
X133035714Y-87597676D02*
X132988095Y-87692914D01*
X132988095Y-87692914D02*
X132940476Y-87883390D01*
X132940476Y-87883390D02*
X132940476Y-88026247D01*
X132940476Y-88026247D02*
X132988095Y-88216723D01*
X132988095Y-88216723D02*
X133035714Y-88311961D01*
X133035714Y-88311961D02*
X133130952Y-88407200D01*
X133130952Y-88407200D02*
X133273809Y-88454819D01*
X133273809Y-88454819D02*
X133369047Y-88454819D01*
X133369047Y-88454819D02*
X133511904Y-88407200D01*
X133511904Y-88407200D02*
X133559523Y-88359580D01*
X133559523Y-88359580D02*
X133559523Y-88026247D01*
X133559523Y-88026247D02*
X133369047Y-88026247D01*
X133988095Y-88454819D02*
X133988095Y-87454819D01*
X133988095Y-87454819D02*
X134559523Y-88454819D01*
X134559523Y-88454819D02*
X134559523Y-87454819D01*
X135035714Y-88454819D02*
X135035714Y-87454819D01*
X135035714Y-87454819D02*
X135273809Y-87454819D01*
X135273809Y-87454819D02*
X135416666Y-87502438D01*
X135416666Y-87502438D02*
X135511904Y-87597676D01*
X135511904Y-87597676D02*
X135559523Y-87692914D01*
X135559523Y-87692914D02*
X135607142Y-87883390D01*
X135607142Y-87883390D02*
X135607142Y-88026247D01*
X135607142Y-88026247D02*
X135559523Y-88216723D01*
X135559523Y-88216723D02*
X135511904Y-88311961D01*
X135511904Y-88311961D02*
X135416666Y-88407200D01*
X135416666Y-88407200D02*
X135273809Y-88454819D01*
X135273809Y-88454819D02*
X135035714Y-88454819D01*
X136464285Y-87788152D02*
X136464285Y-88454819D01*
X136226190Y-87407200D02*
X135988095Y-88121485D01*
X135988095Y-88121485D02*
X136607142Y-88121485D01*
X138488095Y-26073866D02*
X139250000Y-26073866D01*
X138869047Y-26454819D02*
X138869047Y-25692914D01*
X139773809Y-26454819D02*
X139964285Y-26454819D01*
X139964285Y-26454819D02*
X140059523Y-26407200D01*
X140059523Y-26407200D02*
X140107142Y-26359580D01*
X140107142Y-26359580D02*
X140202380Y-26216723D01*
X140202380Y-26216723D02*
X140249999Y-26026247D01*
X140249999Y-26026247D02*
X140249999Y-25645295D01*
X140249999Y-25645295D02*
X140202380Y-25550057D01*
X140202380Y-25550057D02*
X140154761Y-25502438D01*
X140154761Y-25502438D02*
X140059523Y-25454819D01*
X140059523Y-25454819D02*
X139869047Y-25454819D01*
X139869047Y-25454819D02*
X139773809Y-25502438D01*
X139773809Y-25502438D02*
X139726190Y-25550057D01*
X139726190Y-25550057D02*
X139678571Y-25645295D01*
X139678571Y-25645295D02*
X139678571Y-25883390D01*
X139678571Y-25883390D02*
X139726190Y-25978628D01*
X139726190Y-25978628D02*
X139773809Y-26026247D01*
X139773809Y-26026247D02*
X139869047Y-26073866D01*
X139869047Y-26073866D02*
X140059523Y-26073866D01*
X140059523Y-26073866D02*
X140154761Y-26026247D01*
X140154761Y-26026247D02*
X140202380Y-25978628D01*
X140202380Y-25978628D02*
X140249999Y-25883390D01*
X140535714Y-25454819D02*
X140869047Y-26454819D01*
X140869047Y-26454819D02*
X141202380Y-25454819D01*
X142059523Y-26454819D02*
X141488095Y-26454819D01*
X141773809Y-26454819D02*
X141773809Y-25454819D01*
X141773809Y-25454819D02*
X141678571Y-25597676D01*
X141678571Y-25597676D02*
X141583333Y-25692914D01*
X141583333Y-25692914D02*
X141488095Y-25740533D01*
X148201905Y-80204819D02*
X148201905Y-79204819D01*
X148201905Y-79204819D02*
X148440000Y-79204819D01*
X148440000Y-79204819D02*
X148582857Y-79252438D01*
X148582857Y-79252438D02*
X148678095Y-79347676D01*
X148678095Y-79347676D02*
X148725714Y-79442914D01*
X148725714Y-79442914D02*
X148773333Y-79633390D01*
X148773333Y-79633390D02*
X148773333Y-79776247D01*
X148773333Y-79776247D02*
X148725714Y-79966723D01*
X148725714Y-79966723D02*
X148678095Y-80061961D01*
X148678095Y-80061961D02*
X148582857Y-80157200D01*
X148582857Y-80157200D02*
X148440000Y-80204819D01*
X148440000Y-80204819D02*
X148201905Y-80204819D01*
X149106667Y-79204819D02*
X149725714Y-79204819D01*
X149725714Y-79204819D02*
X149392381Y-79585771D01*
X149392381Y-79585771D02*
X149535238Y-79585771D01*
X149535238Y-79585771D02*
X149630476Y-79633390D01*
X149630476Y-79633390D02*
X149678095Y-79681009D01*
X149678095Y-79681009D02*
X149725714Y-79776247D01*
X149725714Y-79776247D02*
X149725714Y-80014342D01*
X149725714Y-80014342D02*
X149678095Y-80109580D01*
X149678095Y-80109580D02*
X149630476Y-80157200D01*
X149630476Y-80157200D02*
X149535238Y-80204819D01*
X149535238Y-80204819D02*
X149249524Y-80204819D01*
X149249524Y-80204819D02*
X149154286Y-80157200D01*
X149154286Y-80157200D02*
X149106667Y-80109580D01*
X153738095Y-80204819D02*
X153738095Y-79204819D01*
X154309523Y-80204819D02*
X153880952Y-79633390D01*
X154309523Y-79204819D02*
X153738095Y-79776247D01*
X153738095Y-65573866D02*
X154500000Y-65573866D01*
X154119047Y-65954819D02*
X154119047Y-65192914D01*
X155023809Y-65954819D02*
X155214285Y-65954819D01*
X155214285Y-65954819D02*
X155309523Y-65907200D01*
X155309523Y-65907200D02*
X155357142Y-65859580D01*
X155357142Y-65859580D02*
X155452380Y-65716723D01*
X155452380Y-65716723D02*
X155499999Y-65526247D01*
X155499999Y-65526247D02*
X155499999Y-65145295D01*
X155499999Y-65145295D02*
X155452380Y-65050057D01*
X155452380Y-65050057D02*
X155404761Y-65002438D01*
X155404761Y-65002438D02*
X155309523Y-64954819D01*
X155309523Y-64954819D02*
X155119047Y-64954819D01*
X155119047Y-64954819D02*
X155023809Y-65002438D01*
X155023809Y-65002438D02*
X154976190Y-65050057D01*
X154976190Y-65050057D02*
X154928571Y-65145295D01*
X154928571Y-65145295D02*
X154928571Y-65383390D01*
X154928571Y-65383390D02*
X154976190Y-65478628D01*
X154976190Y-65478628D02*
X155023809Y-65526247D01*
X155023809Y-65526247D02*
X155119047Y-65573866D01*
X155119047Y-65573866D02*
X155309523Y-65573866D01*
X155309523Y-65573866D02*
X155404761Y-65526247D01*
X155404761Y-65526247D02*
X155452380Y-65478628D01*
X155452380Y-65478628D02*
X155499999Y-65383390D01*
X155785714Y-64954819D02*
X156119047Y-65954819D01*
X156119047Y-65954819D02*
X156452380Y-64954819D01*
X156738095Y-65050057D02*
X156785714Y-65002438D01*
X156785714Y-65002438D02*
X156880952Y-64954819D01*
X156880952Y-64954819D02*
X157119047Y-64954819D01*
X157119047Y-64954819D02*
X157214285Y-65002438D01*
X157214285Y-65002438D02*
X157261904Y-65050057D01*
X157261904Y-65050057D02*
X157309523Y-65145295D01*
X157309523Y-65145295D02*
X157309523Y-65240533D01*
X157309523Y-65240533D02*
X157261904Y-65383390D01*
X157261904Y-65383390D02*
X156690476Y-65954819D01*
X156690476Y-65954819D02*
X157309523Y-65954819D01*
X167047142Y-83204819D02*
X166713809Y-82728628D01*
X166475714Y-83204819D02*
X166475714Y-82204819D01*
X166475714Y-82204819D02*
X166856666Y-82204819D01*
X166856666Y-82204819D02*
X166951904Y-82252438D01*
X166951904Y-82252438D02*
X166999523Y-82300057D01*
X166999523Y-82300057D02*
X167047142Y-82395295D01*
X167047142Y-82395295D02*
X167047142Y-82538152D01*
X167047142Y-82538152D02*
X166999523Y-82633390D01*
X166999523Y-82633390D02*
X166951904Y-82681009D01*
X166951904Y-82681009D02*
X166856666Y-82728628D01*
X166856666Y-82728628D02*
X166475714Y-82728628D01*
X167999523Y-83204819D02*
X167428095Y-83204819D01*
X167713809Y-83204819D02*
X167713809Y-82204819D01*
X167713809Y-82204819D02*
X167618571Y-82347676D01*
X167618571Y-82347676D02*
X167523333Y-82442914D01*
X167523333Y-82442914D02*
X167428095Y-82490533D01*
X168856666Y-82204819D02*
X168666190Y-82204819D01*
X168666190Y-82204819D02*
X168570952Y-82252438D01*
X168570952Y-82252438D02*
X168523333Y-82300057D01*
X168523333Y-82300057D02*
X168428095Y-82442914D01*
X168428095Y-82442914D02*
X168380476Y-82633390D01*
X168380476Y-82633390D02*
X168380476Y-83014342D01*
X168380476Y-83014342D02*
X168428095Y-83109580D01*
X168428095Y-83109580D02*
X168475714Y-83157200D01*
X168475714Y-83157200D02*
X168570952Y-83204819D01*
X168570952Y-83204819D02*
X168761428Y-83204819D01*
X168761428Y-83204819D02*
X168856666Y-83157200D01*
X168856666Y-83157200D02*
X168904285Y-83109580D01*
X168904285Y-83109580D02*
X168951904Y-83014342D01*
X168951904Y-83014342D02*
X168951904Y-82776247D01*
X168951904Y-82776247D02*
X168904285Y-82681009D01*
X168904285Y-82681009D02*
X168856666Y-82633390D01*
X168856666Y-82633390D02*
X168761428Y-82585771D01*
X168761428Y-82585771D02*
X168570952Y-82585771D01*
X168570952Y-82585771D02*
X168475714Y-82633390D01*
X168475714Y-82633390D02*
X168428095Y-82681009D01*
X168428095Y-82681009D02*
X168380476Y-82776247D01*
X134704819Y-53892857D02*
X134228628Y-54226190D01*
X134704819Y-54464285D02*
X133704819Y-54464285D01*
X133704819Y-54464285D02*
X133704819Y-54083333D01*
X133704819Y-54083333D02*
X133752438Y-53988095D01*
X133752438Y-53988095D02*
X133800057Y-53940476D01*
X133800057Y-53940476D02*
X133895295Y-53892857D01*
X133895295Y-53892857D02*
X134038152Y-53892857D01*
X134038152Y-53892857D02*
X134133390Y-53940476D01*
X134133390Y-53940476D02*
X134181009Y-53988095D01*
X134181009Y-53988095D02*
X134228628Y-54083333D01*
X134228628Y-54083333D02*
X134228628Y-54464285D01*
X133800057Y-53511904D02*
X133752438Y-53464285D01*
X133752438Y-53464285D02*
X133704819Y-53369047D01*
X133704819Y-53369047D02*
X133704819Y-53130952D01*
X133704819Y-53130952D02*
X133752438Y-53035714D01*
X133752438Y-53035714D02*
X133800057Y-52988095D01*
X133800057Y-52988095D02*
X133895295Y-52940476D01*
X133895295Y-52940476D02*
X133990533Y-52940476D01*
X133990533Y-52940476D02*
X134133390Y-52988095D01*
X134133390Y-52988095D02*
X134704819Y-53559523D01*
X134704819Y-53559523D02*
X134704819Y-52940476D01*
X133704819Y-52607142D02*
X133704819Y-51988095D01*
X133704819Y-51988095D02*
X134085771Y-52321428D01*
X134085771Y-52321428D02*
X134085771Y-52178571D01*
X134085771Y-52178571D02*
X134133390Y-52083333D01*
X134133390Y-52083333D02*
X134181009Y-52035714D01*
X134181009Y-52035714D02*
X134276247Y-51988095D01*
X134276247Y-51988095D02*
X134514342Y-51988095D01*
X134514342Y-51988095D02*
X134609580Y-52035714D01*
X134609580Y-52035714D02*
X134657200Y-52083333D01*
X134657200Y-52083333D02*
X134704819Y-52178571D01*
X134704819Y-52178571D02*
X134704819Y-52464285D01*
X134704819Y-52464285D02*
X134657200Y-52559523D01*
X134657200Y-52559523D02*
X134609580Y-52607142D01*
X149359580Y-60416666D02*
X149407200Y-60464285D01*
X149407200Y-60464285D02*
X149454819Y-60607142D01*
X149454819Y-60607142D02*
X149454819Y-60702380D01*
X149454819Y-60702380D02*
X149407200Y-60845237D01*
X149407200Y-60845237D02*
X149311961Y-60940475D01*
X149311961Y-60940475D02*
X149216723Y-60988094D01*
X149216723Y-60988094D02*
X149026247Y-61035713D01*
X149026247Y-61035713D02*
X148883390Y-61035713D01*
X148883390Y-61035713D02*
X148692914Y-60988094D01*
X148692914Y-60988094D02*
X148597676Y-60940475D01*
X148597676Y-60940475D02*
X148502438Y-60845237D01*
X148502438Y-60845237D02*
X148454819Y-60702380D01*
X148454819Y-60702380D02*
X148454819Y-60607142D01*
X148454819Y-60607142D02*
X148502438Y-60464285D01*
X148502438Y-60464285D02*
X148550057Y-60416666D01*
X148883390Y-59845237D02*
X148835771Y-59940475D01*
X148835771Y-59940475D02*
X148788152Y-59988094D01*
X148788152Y-59988094D02*
X148692914Y-60035713D01*
X148692914Y-60035713D02*
X148645295Y-60035713D01*
X148645295Y-60035713D02*
X148550057Y-59988094D01*
X148550057Y-59988094D02*
X148502438Y-59940475D01*
X148502438Y-59940475D02*
X148454819Y-59845237D01*
X148454819Y-59845237D02*
X148454819Y-59654761D01*
X148454819Y-59654761D02*
X148502438Y-59559523D01*
X148502438Y-59559523D02*
X148550057Y-59511904D01*
X148550057Y-59511904D02*
X148645295Y-59464285D01*
X148645295Y-59464285D02*
X148692914Y-59464285D01*
X148692914Y-59464285D02*
X148788152Y-59511904D01*
X148788152Y-59511904D02*
X148835771Y-59559523D01*
X148835771Y-59559523D02*
X148883390Y-59654761D01*
X148883390Y-59654761D02*
X148883390Y-59845237D01*
X148883390Y-59845237D02*
X148931009Y-59940475D01*
X148931009Y-59940475D02*
X148978628Y-59988094D01*
X148978628Y-59988094D02*
X149073866Y-60035713D01*
X149073866Y-60035713D02*
X149264342Y-60035713D01*
X149264342Y-60035713D02*
X149359580Y-59988094D01*
X149359580Y-59988094D02*
X149407200Y-59940475D01*
X149407200Y-59940475D02*
X149454819Y-59845237D01*
X149454819Y-59845237D02*
X149454819Y-59654761D01*
X149454819Y-59654761D02*
X149407200Y-59559523D01*
X149407200Y-59559523D02*
X149359580Y-59511904D01*
X149359580Y-59511904D02*
X149264342Y-59464285D01*
X149264342Y-59464285D02*
X149073866Y-59464285D01*
X149073866Y-59464285D02*
X148978628Y-59511904D01*
X148978628Y-59511904D02*
X148931009Y-59559523D01*
X148931009Y-59559523D02*
X148883390Y-59654761D01*
X171523809Y-71704819D02*
X171714285Y-71704819D01*
X171714285Y-71704819D02*
X171809523Y-71752438D01*
X171809523Y-71752438D02*
X171904761Y-71847676D01*
X171904761Y-71847676D02*
X171952380Y-72038152D01*
X171952380Y-72038152D02*
X171952380Y-72371485D01*
X171952380Y-72371485D02*
X171904761Y-72561961D01*
X171904761Y-72561961D02*
X171809523Y-72657200D01*
X171809523Y-72657200D02*
X171714285Y-72704819D01*
X171714285Y-72704819D02*
X171523809Y-72704819D01*
X171523809Y-72704819D02*
X171428571Y-72657200D01*
X171428571Y-72657200D02*
X171333333Y-72561961D01*
X171333333Y-72561961D02*
X171285714Y-72371485D01*
X171285714Y-72371485D02*
X171285714Y-72038152D01*
X171285714Y-72038152D02*
X171333333Y-71847676D01*
X171333333Y-71847676D02*
X171428571Y-71752438D01*
X171428571Y-71752438D02*
X171523809Y-71704819D01*
X172380952Y-71704819D02*
X172380952Y-72514342D01*
X172380952Y-72514342D02*
X172428571Y-72609580D01*
X172428571Y-72609580D02*
X172476190Y-72657200D01*
X172476190Y-72657200D02*
X172571428Y-72704819D01*
X172571428Y-72704819D02*
X172761904Y-72704819D01*
X172761904Y-72704819D02*
X172857142Y-72657200D01*
X172857142Y-72657200D02*
X172904761Y-72609580D01*
X172904761Y-72609580D02*
X172952380Y-72514342D01*
X172952380Y-72514342D02*
X172952380Y-71704819D01*
X173285714Y-71704819D02*
X173857142Y-71704819D01*
X173571428Y-72704819D02*
X173571428Y-71704819D01*
X174714285Y-72704819D02*
X174142857Y-72704819D01*
X174428571Y-72704819D02*
X174428571Y-71704819D01*
X174428571Y-71704819D02*
X174333333Y-71847676D01*
X174333333Y-71847676D02*
X174238095Y-71942914D01*
X174238095Y-71942914D02*
X174142857Y-71990533D01*
X122954819Y-80666666D02*
X122478628Y-80999999D01*
X122954819Y-81238094D02*
X121954819Y-81238094D01*
X121954819Y-81238094D02*
X121954819Y-80857142D01*
X121954819Y-80857142D02*
X122002438Y-80761904D01*
X122002438Y-80761904D02*
X122050057Y-80714285D01*
X122050057Y-80714285D02*
X122145295Y-80666666D01*
X122145295Y-80666666D02*
X122288152Y-80666666D01*
X122288152Y-80666666D02*
X122383390Y-80714285D01*
X122383390Y-80714285D02*
X122431009Y-80761904D01*
X122431009Y-80761904D02*
X122478628Y-80857142D01*
X122478628Y-80857142D02*
X122478628Y-81238094D01*
X122050057Y-80285713D02*
X122002438Y-80238094D01*
X122002438Y-80238094D02*
X121954819Y-80142856D01*
X121954819Y-80142856D02*
X121954819Y-79904761D01*
X121954819Y-79904761D02*
X122002438Y-79809523D01*
X122002438Y-79809523D02*
X122050057Y-79761904D01*
X122050057Y-79761904D02*
X122145295Y-79714285D01*
X122145295Y-79714285D02*
X122240533Y-79714285D01*
X122240533Y-79714285D02*
X122383390Y-79761904D01*
X122383390Y-79761904D02*
X122954819Y-80333332D01*
X122954819Y-80333332D02*
X122954819Y-79714285D01*
X166404761Y-50300057D02*
X166309523Y-50252438D01*
X166309523Y-50252438D02*
X166214285Y-50157200D01*
X166214285Y-50157200D02*
X166071428Y-50014342D01*
X166071428Y-50014342D02*
X165976190Y-49966723D01*
X165976190Y-49966723D02*
X165880952Y-49966723D01*
X165928571Y-50204819D02*
X165833333Y-50157200D01*
X165833333Y-50157200D02*
X165738095Y-50061961D01*
X165738095Y-50061961D02*
X165690476Y-49871485D01*
X165690476Y-49871485D02*
X165690476Y-49538152D01*
X165690476Y-49538152D02*
X165738095Y-49347676D01*
X165738095Y-49347676D02*
X165833333Y-49252438D01*
X165833333Y-49252438D02*
X165928571Y-49204819D01*
X165928571Y-49204819D02*
X166119047Y-49204819D01*
X166119047Y-49204819D02*
X166214285Y-49252438D01*
X166214285Y-49252438D02*
X166309523Y-49347676D01*
X166309523Y-49347676D02*
X166357142Y-49538152D01*
X166357142Y-49538152D02*
X166357142Y-49871485D01*
X166357142Y-49871485D02*
X166309523Y-50061961D01*
X166309523Y-50061961D02*
X166214285Y-50157200D01*
X166214285Y-50157200D02*
X166119047Y-50204819D01*
X166119047Y-50204819D02*
X165928571Y-50204819D01*
X167309523Y-50204819D02*
X166738095Y-50204819D01*
X167023809Y-50204819D02*
X167023809Y-49204819D01*
X167023809Y-49204819D02*
X166928571Y-49347676D01*
X166928571Y-49347676D02*
X166833333Y-49442914D01*
X166833333Y-49442914D02*
X166738095Y-49490533D01*
X138609580Y-52416666D02*
X138657200Y-52464285D01*
X138657200Y-52464285D02*
X138704819Y-52607142D01*
X138704819Y-52607142D02*
X138704819Y-52702380D01*
X138704819Y-52702380D02*
X138657200Y-52845237D01*
X138657200Y-52845237D02*
X138561961Y-52940475D01*
X138561961Y-52940475D02*
X138466723Y-52988094D01*
X138466723Y-52988094D02*
X138276247Y-53035713D01*
X138276247Y-53035713D02*
X138133390Y-53035713D01*
X138133390Y-53035713D02*
X137942914Y-52988094D01*
X137942914Y-52988094D02*
X137847676Y-52940475D01*
X137847676Y-52940475D02*
X137752438Y-52845237D01*
X137752438Y-52845237D02*
X137704819Y-52702380D01*
X137704819Y-52702380D02*
X137704819Y-52607142D01*
X137704819Y-52607142D02*
X137752438Y-52464285D01*
X137752438Y-52464285D02*
X137800057Y-52416666D01*
X137704819Y-51511904D02*
X137704819Y-51988094D01*
X137704819Y-51988094D02*
X138181009Y-52035713D01*
X138181009Y-52035713D02*
X138133390Y-51988094D01*
X138133390Y-51988094D02*
X138085771Y-51892856D01*
X138085771Y-51892856D02*
X138085771Y-51654761D01*
X138085771Y-51654761D02*
X138133390Y-51559523D01*
X138133390Y-51559523D02*
X138181009Y-51511904D01*
X138181009Y-51511904D02*
X138276247Y-51464285D01*
X138276247Y-51464285D02*
X138514342Y-51464285D01*
X138514342Y-51464285D02*
X138609580Y-51511904D01*
X138609580Y-51511904D02*
X138657200Y-51559523D01*
X138657200Y-51559523D02*
X138704819Y-51654761D01*
X138704819Y-51654761D02*
X138704819Y-51892856D01*
X138704819Y-51892856D02*
X138657200Y-51988094D01*
X138657200Y-51988094D02*
X138609580Y-52035713D01*
X142954819Y-61166666D02*
X142478628Y-61499999D01*
X142954819Y-61738094D02*
X141954819Y-61738094D01*
X141954819Y-61738094D02*
X141954819Y-61357142D01*
X141954819Y-61357142D02*
X142002438Y-61261904D01*
X142002438Y-61261904D02*
X142050057Y-61214285D01*
X142050057Y-61214285D02*
X142145295Y-61166666D01*
X142145295Y-61166666D02*
X142288152Y-61166666D01*
X142288152Y-61166666D02*
X142383390Y-61214285D01*
X142383390Y-61214285D02*
X142431009Y-61261904D01*
X142431009Y-61261904D02*
X142478628Y-61357142D01*
X142478628Y-61357142D02*
X142478628Y-61738094D01*
X141954819Y-60261904D02*
X141954819Y-60738094D01*
X141954819Y-60738094D02*
X142431009Y-60785713D01*
X142431009Y-60785713D02*
X142383390Y-60738094D01*
X142383390Y-60738094D02*
X142335771Y-60642856D01*
X142335771Y-60642856D02*
X142335771Y-60404761D01*
X142335771Y-60404761D02*
X142383390Y-60309523D01*
X142383390Y-60309523D02*
X142431009Y-60261904D01*
X142431009Y-60261904D02*
X142526247Y-60214285D01*
X142526247Y-60214285D02*
X142764342Y-60214285D01*
X142764342Y-60214285D02*
X142859580Y-60261904D01*
X142859580Y-60261904D02*
X142907200Y-60309523D01*
X142907200Y-60309523D02*
X142954819Y-60404761D01*
X142954819Y-60404761D02*
X142954819Y-60642856D01*
X142954819Y-60642856D02*
X142907200Y-60738094D01*
X142907200Y-60738094D02*
X142859580Y-60785713D01*
X169954819Y-71832857D02*
X169478628Y-72166190D01*
X169954819Y-72404285D02*
X168954819Y-72404285D01*
X168954819Y-72404285D02*
X168954819Y-72023333D01*
X168954819Y-72023333D02*
X169002438Y-71928095D01*
X169002438Y-71928095D02*
X169050057Y-71880476D01*
X169050057Y-71880476D02*
X169145295Y-71832857D01*
X169145295Y-71832857D02*
X169288152Y-71832857D01*
X169288152Y-71832857D02*
X169383390Y-71880476D01*
X169383390Y-71880476D02*
X169431009Y-71928095D01*
X169431009Y-71928095D02*
X169478628Y-72023333D01*
X169478628Y-72023333D02*
X169478628Y-72404285D01*
X169954819Y-70880476D02*
X169954819Y-71451904D01*
X169954819Y-71166190D02*
X168954819Y-71166190D01*
X168954819Y-71166190D02*
X169097676Y-71261428D01*
X169097676Y-71261428D02*
X169192914Y-71356666D01*
X169192914Y-71356666D02*
X169240533Y-71451904D01*
X169954819Y-69928095D02*
X169954819Y-70499523D01*
X169954819Y-70213809D02*
X168954819Y-70213809D01*
X168954819Y-70213809D02*
X169097676Y-70309047D01*
X169097676Y-70309047D02*
X169192914Y-70404285D01*
X169192914Y-70404285D02*
X169240533Y-70499523D01*
X152954819Y-60666666D02*
X152478628Y-60999999D01*
X152954819Y-61238094D02*
X151954819Y-61238094D01*
X151954819Y-61238094D02*
X151954819Y-60857142D01*
X151954819Y-60857142D02*
X152002438Y-60761904D01*
X152002438Y-60761904D02*
X152050057Y-60714285D01*
X152050057Y-60714285D02*
X152145295Y-60666666D01*
X152145295Y-60666666D02*
X152288152Y-60666666D01*
X152288152Y-60666666D02*
X152383390Y-60714285D01*
X152383390Y-60714285D02*
X152431009Y-60761904D01*
X152431009Y-60761904D02*
X152478628Y-60857142D01*
X152478628Y-60857142D02*
X152478628Y-61238094D01*
X152383390Y-60095237D02*
X152335771Y-60190475D01*
X152335771Y-60190475D02*
X152288152Y-60238094D01*
X152288152Y-60238094D02*
X152192914Y-60285713D01*
X152192914Y-60285713D02*
X152145295Y-60285713D01*
X152145295Y-60285713D02*
X152050057Y-60238094D01*
X152050057Y-60238094D02*
X152002438Y-60190475D01*
X152002438Y-60190475D02*
X151954819Y-60095237D01*
X151954819Y-60095237D02*
X151954819Y-59904761D01*
X151954819Y-59904761D02*
X152002438Y-59809523D01*
X152002438Y-59809523D02*
X152050057Y-59761904D01*
X152050057Y-59761904D02*
X152145295Y-59714285D01*
X152145295Y-59714285D02*
X152192914Y-59714285D01*
X152192914Y-59714285D02*
X152288152Y-59761904D01*
X152288152Y-59761904D02*
X152335771Y-59809523D01*
X152335771Y-59809523D02*
X152383390Y-59904761D01*
X152383390Y-59904761D02*
X152383390Y-60095237D01*
X152383390Y-60095237D02*
X152431009Y-60190475D01*
X152431009Y-60190475D02*
X152478628Y-60238094D01*
X152478628Y-60238094D02*
X152573866Y-60285713D01*
X152573866Y-60285713D02*
X152764342Y-60285713D01*
X152764342Y-60285713D02*
X152859580Y-60238094D01*
X152859580Y-60238094D02*
X152907200Y-60190475D01*
X152907200Y-60190475D02*
X152954819Y-60095237D01*
X152954819Y-60095237D02*
X152954819Y-59904761D01*
X152954819Y-59904761D02*
X152907200Y-59809523D01*
X152907200Y-59809523D02*
X152859580Y-59761904D01*
X152859580Y-59761904D02*
X152764342Y-59714285D01*
X152764342Y-59714285D02*
X152573866Y-59714285D01*
X152573866Y-59714285D02*
X152478628Y-59761904D01*
X152478628Y-59761904D02*
X152431009Y-59809523D01*
X152431009Y-59809523D02*
X152383390Y-59904761D01*
X124952381Y-48407200D02*
X125095238Y-48454819D01*
X125095238Y-48454819D02*
X125333333Y-48454819D01*
X125333333Y-48454819D02*
X125428571Y-48407200D01*
X125428571Y-48407200D02*
X125476190Y-48359580D01*
X125476190Y-48359580D02*
X125523809Y-48264342D01*
X125523809Y-48264342D02*
X125523809Y-48169104D01*
X125523809Y-48169104D02*
X125476190Y-48073866D01*
X125476190Y-48073866D02*
X125428571Y-48026247D01*
X125428571Y-48026247D02*
X125333333Y-47978628D01*
X125333333Y-47978628D02*
X125142857Y-47931009D01*
X125142857Y-47931009D02*
X125047619Y-47883390D01*
X125047619Y-47883390D02*
X125000000Y-47835771D01*
X125000000Y-47835771D02*
X124952381Y-47740533D01*
X124952381Y-47740533D02*
X124952381Y-47645295D01*
X124952381Y-47645295D02*
X125000000Y-47550057D01*
X125000000Y-47550057D02*
X125047619Y-47502438D01*
X125047619Y-47502438D02*
X125142857Y-47454819D01*
X125142857Y-47454819D02*
X125380952Y-47454819D01*
X125380952Y-47454819D02*
X125523809Y-47502438D01*
X126380952Y-47788152D02*
X126380952Y-48454819D01*
X125952381Y-47788152D02*
X125952381Y-48311961D01*
X125952381Y-48311961D02*
X126000000Y-48407200D01*
X126000000Y-48407200D02*
X126095238Y-48454819D01*
X126095238Y-48454819D02*
X126238095Y-48454819D01*
X126238095Y-48454819D02*
X126333333Y-48407200D01*
X126333333Y-48407200D02*
X126380952Y-48359580D01*
X126809524Y-48407200D02*
X126904762Y-48454819D01*
X126904762Y-48454819D02*
X127095238Y-48454819D01*
X127095238Y-48454819D02*
X127190476Y-48407200D01*
X127190476Y-48407200D02*
X127238095Y-48311961D01*
X127238095Y-48311961D02*
X127238095Y-48264342D01*
X127238095Y-48264342D02*
X127190476Y-48169104D01*
X127190476Y-48169104D02*
X127095238Y-48121485D01*
X127095238Y-48121485D02*
X126952381Y-48121485D01*
X126952381Y-48121485D02*
X126857143Y-48073866D01*
X126857143Y-48073866D02*
X126809524Y-47978628D01*
X126809524Y-47978628D02*
X126809524Y-47931009D01*
X126809524Y-47931009D02*
X126857143Y-47835771D01*
X126857143Y-47835771D02*
X126952381Y-47788152D01*
X126952381Y-47788152D02*
X127095238Y-47788152D01*
X127095238Y-47788152D02*
X127190476Y-47835771D01*
X127523810Y-47788152D02*
X127904762Y-47788152D01*
X127666667Y-47454819D02*
X127666667Y-48311961D01*
X127666667Y-48311961D02*
X127714286Y-48407200D01*
X127714286Y-48407200D02*
X127809524Y-48454819D01*
X127809524Y-48454819D02*
X127904762Y-48454819D01*
X128666667Y-48454819D02*
X128666667Y-47931009D01*
X128666667Y-47931009D02*
X128619048Y-47835771D01*
X128619048Y-47835771D02*
X128523810Y-47788152D01*
X128523810Y-47788152D02*
X128333334Y-47788152D01*
X128333334Y-47788152D02*
X128238096Y-47835771D01*
X128666667Y-48407200D02*
X128571429Y-48454819D01*
X128571429Y-48454819D02*
X128333334Y-48454819D01*
X128333334Y-48454819D02*
X128238096Y-48407200D01*
X128238096Y-48407200D02*
X128190477Y-48311961D01*
X128190477Y-48311961D02*
X128190477Y-48216723D01*
X128190477Y-48216723D02*
X128238096Y-48121485D01*
X128238096Y-48121485D02*
X128333334Y-48073866D01*
X128333334Y-48073866D02*
X128571429Y-48073866D01*
X128571429Y-48073866D02*
X128666667Y-48026247D01*
X129142858Y-48454819D02*
X129142858Y-47788152D01*
X129142858Y-47454819D02*
X129095239Y-47502438D01*
X129095239Y-47502438D02*
X129142858Y-47550057D01*
X129142858Y-47550057D02*
X129190477Y-47502438D01*
X129190477Y-47502438D02*
X129142858Y-47454819D01*
X129142858Y-47454819D02*
X129142858Y-47550057D01*
X129619048Y-47788152D02*
X129619048Y-48454819D01*
X129619048Y-47883390D02*
X129666667Y-47835771D01*
X129666667Y-47835771D02*
X129761905Y-47788152D01*
X129761905Y-47788152D02*
X129904762Y-47788152D01*
X129904762Y-47788152D02*
X130000000Y-47835771D01*
X130000000Y-47835771D02*
X130047619Y-47931009D01*
X130047619Y-47931009D02*
X130047619Y-48454819D01*
X131047619Y-48454819D02*
X130476191Y-48454819D01*
X130761905Y-48454819D02*
X130761905Y-47454819D01*
X130761905Y-47454819D02*
X130666667Y-47597676D01*
X130666667Y-47597676D02*
X130571429Y-47692914D01*
X130571429Y-47692914D02*
X130476191Y-47740533D01*
X151607142Y-87454819D02*
X151273809Y-86978628D01*
X151035714Y-87454819D02*
X151035714Y-86454819D01*
X151035714Y-86454819D02*
X151416666Y-86454819D01*
X151416666Y-86454819D02*
X151511904Y-86502438D01*
X151511904Y-86502438D02*
X151559523Y-86550057D01*
X151559523Y-86550057D02*
X151607142Y-86645295D01*
X151607142Y-86645295D02*
X151607142Y-86788152D01*
X151607142Y-86788152D02*
X151559523Y-86883390D01*
X151559523Y-86883390D02*
X151511904Y-86931009D01*
X151511904Y-86931009D02*
X151416666Y-86978628D01*
X151416666Y-86978628D02*
X151035714Y-86978628D01*
X152559523Y-87454819D02*
X151988095Y-87454819D01*
X152273809Y-87454819D02*
X152273809Y-86454819D01*
X152273809Y-86454819D02*
X152178571Y-86597676D01*
X152178571Y-86597676D02*
X152083333Y-86692914D01*
X152083333Y-86692914D02*
X151988095Y-86740533D01*
X152940476Y-86550057D02*
X152988095Y-86502438D01*
X152988095Y-86502438D02*
X153083333Y-86454819D01*
X153083333Y-86454819D02*
X153321428Y-86454819D01*
X153321428Y-86454819D02*
X153416666Y-86502438D01*
X153416666Y-86502438D02*
X153464285Y-86550057D01*
X153464285Y-86550057D02*
X153511904Y-86645295D01*
X153511904Y-86645295D02*
X153511904Y-86740533D01*
X153511904Y-86740533D02*
X153464285Y-86883390D01*
X153464285Y-86883390D02*
X152892857Y-87454819D01*
X152892857Y-87454819D02*
X153511904Y-87454819D01*
X136654761Y-69300057D02*
X136559523Y-69252438D01*
X136559523Y-69252438D02*
X136464285Y-69157200D01*
X136464285Y-69157200D02*
X136321428Y-69014342D01*
X136321428Y-69014342D02*
X136226190Y-68966723D01*
X136226190Y-68966723D02*
X136130952Y-68966723D01*
X136178571Y-69204819D02*
X136083333Y-69157200D01*
X136083333Y-69157200D02*
X135988095Y-69061961D01*
X135988095Y-69061961D02*
X135940476Y-68871485D01*
X135940476Y-68871485D02*
X135940476Y-68538152D01*
X135940476Y-68538152D02*
X135988095Y-68347676D01*
X135988095Y-68347676D02*
X136083333Y-68252438D01*
X136083333Y-68252438D02*
X136178571Y-68204819D01*
X136178571Y-68204819D02*
X136369047Y-68204819D01*
X136369047Y-68204819D02*
X136464285Y-68252438D01*
X136464285Y-68252438D02*
X136559523Y-68347676D01*
X136559523Y-68347676D02*
X136607142Y-68538152D01*
X136607142Y-68538152D02*
X136607142Y-68871485D01*
X136607142Y-68871485D02*
X136559523Y-69061961D01*
X136559523Y-69061961D02*
X136464285Y-69157200D01*
X136464285Y-69157200D02*
X136369047Y-69204819D01*
X136369047Y-69204819D02*
X136178571Y-69204819D01*
X136940476Y-68204819D02*
X137559523Y-68204819D01*
X137559523Y-68204819D02*
X137226190Y-68585771D01*
X137226190Y-68585771D02*
X137369047Y-68585771D01*
X137369047Y-68585771D02*
X137464285Y-68633390D01*
X137464285Y-68633390D02*
X137511904Y-68681009D01*
X137511904Y-68681009D02*
X137559523Y-68776247D01*
X137559523Y-68776247D02*
X137559523Y-69014342D01*
X137559523Y-69014342D02*
X137511904Y-69109580D01*
X137511904Y-69109580D02*
X137464285Y-69157200D01*
X137464285Y-69157200D02*
X137369047Y-69204819D01*
X137369047Y-69204819D02*
X137083333Y-69204819D01*
X137083333Y-69204819D02*
X136988095Y-69157200D01*
X136988095Y-69157200D02*
X136940476Y-69109580D01*
X147609580Y-70916666D02*
X147657200Y-70964285D01*
X147657200Y-70964285D02*
X147704819Y-71107142D01*
X147704819Y-71107142D02*
X147704819Y-71202380D01*
X147704819Y-71202380D02*
X147657200Y-71345237D01*
X147657200Y-71345237D02*
X147561961Y-71440475D01*
X147561961Y-71440475D02*
X147466723Y-71488094D01*
X147466723Y-71488094D02*
X147276247Y-71535713D01*
X147276247Y-71535713D02*
X147133390Y-71535713D01*
X147133390Y-71535713D02*
X146942914Y-71488094D01*
X146942914Y-71488094D02*
X146847676Y-71440475D01*
X146847676Y-71440475D02*
X146752438Y-71345237D01*
X146752438Y-71345237D02*
X146704819Y-71202380D01*
X146704819Y-71202380D02*
X146704819Y-71107142D01*
X146704819Y-71107142D02*
X146752438Y-70964285D01*
X146752438Y-70964285D02*
X146800057Y-70916666D01*
X146704819Y-70059523D02*
X146704819Y-70249999D01*
X146704819Y-70249999D02*
X146752438Y-70345237D01*
X146752438Y-70345237D02*
X146800057Y-70392856D01*
X146800057Y-70392856D02*
X146942914Y-70488094D01*
X146942914Y-70488094D02*
X147133390Y-70535713D01*
X147133390Y-70535713D02*
X147514342Y-70535713D01*
X147514342Y-70535713D02*
X147609580Y-70488094D01*
X147609580Y-70488094D02*
X147657200Y-70440475D01*
X147657200Y-70440475D02*
X147704819Y-70345237D01*
X147704819Y-70345237D02*
X147704819Y-70154761D01*
X147704819Y-70154761D02*
X147657200Y-70059523D01*
X147657200Y-70059523D02*
X147609580Y-70011904D01*
X147609580Y-70011904D02*
X147514342Y-69964285D01*
X147514342Y-69964285D02*
X147276247Y-69964285D01*
X147276247Y-69964285D02*
X147181009Y-70011904D01*
X147181009Y-70011904D02*
X147133390Y-70059523D01*
X147133390Y-70059523D02*
X147085771Y-70154761D01*
X147085771Y-70154761D02*
X147085771Y-70345237D01*
X147085771Y-70345237D02*
X147133390Y-70440475D01*
X147133390Y-70440475D02*
X147181009Y-70488094D01*
X147181009Y-70488094D02*
X147276247Y-70535713D01*
X126454819Y-62452857D02*
X125978628Y-62786190D01*
X126454819Y-63024285D02*
X125454819Y-63024285D01*
X125454819Y-63024285D02*
X125454819Y-62643333D01*
X125454819Y-62643333D02*
X125502438Y-62548095D01*
X125502438Y-62548095D02*
X125550057Y-62500476D01*
X125550057Y-62500476D02*
X125645295Y-62452857D01*
X125645295Y-62452857D02*
X125788152Y-62452857D01*
X125788152Y-62452857D02*
X125883390Y-62500476D01*
X125883390Y-62500476D02*
X125931009Y-62548095D01*
X125931009Y-62548095D02*
X125978628Y-62643333D01*
X125978628Y-62643333D02*
X125978628Y-63024285D01*
X126454819Y-61500476D02*
X126454819Y-62071904D01*
X126454819Y-61786190D02*
X125454819Y-61786190D01*
X125454819Y-61786190D02*
X125597676Y-61881428D01*
X125597676Y-61881428D02*
X125692914Y-61976666D01*
X125692914Y-61976666D02*
X125740533Y-62071904D01*
X125454819Y-61167142D02*
X125454819Y-60548095D01*
X125454819Y-60548095D02*
X125835771Y-60881428D01*
X125835771Y-60881428D02*
X125835771Y-60738571D01*
X125835771Y-60738571D02*
X125883390Y-60643333D01*
X125883390Y-60643333D02*
X125931009Y-60595714D01*
X125931009Y-60595714D02*
X126026247Y-60548095D01*
X126026247Y-60548095D02*
X126264342Y-60548095D01*
X126264342Y-60548095D02*
X126359580Y-60595714D01*
X126359580Y-60595714D02*
X126407200Y-60643333D01*
X126407200Y-60643333D02*
X126454819Y-60738571D01*
X126454819Y-60738571D02*
X126454819Y-61024285D01*
X126454819Y-61024285D02*
X126407200Y-61119523D01*
X126407200Y-61119523D02*
X126359580Y-61167142D01*
X161454819Y-71488094D02*
X160454819Y-71488094D01*
X160454819Y-71488094D02*
X160454819Y-71249999D01*
X160454819Y-71249999D02*
X160502438Y-71107142D01*
X160502438Y-71107142D02*
X160597676Y-71011904D01*
X160597676Y-71011904D02*
X160692914Y-70964285D01*
X160692914Y-70964285D02*
X160883390Y-70916666D01*
X160883390Y-70916666D02*
X161026247Y-70916666D01*
X161026247Y-70916666D02*
X161216723Y-70964285D01*
X161216723Y-70964285D02*
X161311961Y-71011904D01*
X161311961Y-71011904D02*
X161407200Y-71107142D01*
X161407200Y-71107142D02*
X161454819Y-71249999D01*
X161454819Y-71249999D02*
X161454819Y-71488094D01*
X160550057Y-70535713D02*
X160502438Y-70488094D01*
X160502438Y-70488094D02*
X160454819Y-70392856D01*
X160454819Y-70392856D02*
X160454819Y-70154761D01*
X160454819Y-70154761D02*
X160502438Y-70059523D01*
X160502438Y-70059523D02*
X160550057Y-70011904D01*
X160550057Y-70011904D02*
X160645295Y-69964285D01*
X160645295Y-69964285D02*
X160740533Y-69964285D01*
X160740533Y-69964285D02*
X160883390Y-70011904D01*
X160883390Y-70011904D02*
X161454819Y-70583332D01*
X161454819Y-70583332D02*
X161454819Y-69964285D01*
X162704819Y-76761904D02*
X161704819Y-76761904D01*
X162704819Y-76190476D02*
X162133390Y-76619047D01*
X161704819Y-76190476D02*
X162276247Y-76761904D01*
X148107142Y-83454819D02*
X147773809Y-82978628D01*
X147535714Y-83454819D02*
X147535714Y-82454819D01*
X147535714Y-82454819D02*
X147916666Y-82454819D01*
X147916666Y-82454819D02*
X148011904Y-82502438D01*
X148011904Y-82502438D02*
X148059523Y-82550057D01*
X148059523Y-82550057D02*
X148107142Y-82645295D01*
X148107142Y-82645295D02*
X148107142Y-82788152D01*
X148107142Y-82788152D02*
X148059523Y-82883390D01*
X148059523Y-82883390D02*
X148011904Y-82931009D01*
X148011904Y-82931009D02*
X147916666Y-82978628D01*
X147916666Y-82978628D02*
X147535714Y-82978628D01*
X149059523Y-83454819D02*
X148488095Y-83454819D01*
X148773809Y-83454819D02*
X148773809Y-82454819D01*
X148773809Y-82454819D02*
X148678571Y-82597676D01*
X148678571Y-82597676D02*
X148583333Y-82692914D01*
X148583333Y-82692914D02*
X148488095Y-82740533D01*
X149630952Y-82883390D02*
X149535714Y-82835771D01*
X149535714Y-82835771D02*
X149488095Y-82788152D01*
X149488095Y-82788152D02*
X149440476Y-82692914D01*
X149440476Y-82692914D02*
X149440476Y-82645295D01*
X149440476Y-82645295D02*
X149488095Y-82550057D01*
X149488095Y-82550057D02*
X149535714Y-82502438D01*
X149535714Y-82502438D02*
X149630952Y-82454819D01*
X149630952Y-82454819D02*
X149821428Y-82454819D01*
X149821428Y-82454819D02*
X149916666Y-82502438D01*
X149916666Y-82502438D02*
X149964285Y-82550057D01*
X149964285Y-82550057D02*
X150011904Y-82645295D01*
X150011904Y-82645295D02*
X150011904Y-82692914D01*
X150011904Y-82692914D02*
X149964285Y-82788152D01*
X149964285Y-82788152D02*
X149916666Y-82835771D01*
X149916666Y-82835771D02*
X149821428Y-82883390D01*
X149821428Y-82883390D02*
X149630952Y-82883390D01*
X149630952Y-82883390D02*
X149535714Y-82931009D01*
X149535714Y-82931009D02*
X149488095Y-82978628D01*
X149488095Y-82978628D02*
X149440476Y-83073866D01*
X149440476Y-83073866D02*
X149440476Y-83264342D01*
X149440476Y-83264342D02*
X149488095Y-83359580D01*
X149488095Y-83359580D02*
X149535714Y-83407200D01*
X149535714Y-83407200D02*
X149630952Y-83454819D01*
X149630952Y-83454819D02*
X149821428Y-83454819D01*
X149821428Y-83454819D02*
X149916666Y-83407200D01*
X149916666Y-83407200D02*
X149964285Y-83359580D01*
X149964285Y-83359580D02*
X150011904Y-83264342D01*
X150011904Y-83264342D02*
X150011904Y-83073866D01*
X150011904Y-83073866D02*
X149964285Y-82978628D01*
X149964285Y-82978628D02*
X149916666Y-82931009D01*
X149916666Y-82931009D02*
X149821428Y-82883390D01*
X146359580Y-60416666D02*
X146407200Y-60464285D01*
X146407200Y-60464285D02*
X146454819Y-60607142D01*
X146454819Y-60607142D02*
X146454819Y-60702380D01*
X146454819Y-60702380D02*
X146407200Y-60845237D01*
X146407200Y-60845237D02*
X146311961Y-60940475D01*
X146311961Y-60940475D02*
X146216723Y-60988094D01*
X146216723Y-60988094D02*
X146026247Y-61035713D01*
X146026247Y-61035713D02*
X145883390Y-61035713D01*
X145883390Y-61035713D02*
X145692914Y-60988094D01*
X145692914Y-60988094D02*
X145597676Y-60940475D01*
X145597676Y-60940475D02*
X145502438Y-60845237D01*
X145502438Y-60845237D02*
X145454819Y-60702380D01*
X145454819Y-60702380D02*
X145454819Y-60607142D01*
X145454819Y-60607142D02*
X145502438Y-60464285D01*
X145502438Y-60464285D02*
X145550057Y-60416666D01*
X146454819Y-59940475D02*
X146454819Y-59749999D01*
X146454819Y-59749999D02*
X146407200Y-59654761D01*
X146407200Y-59654761D02*
X146359580Y-59607142D01*
X146359580Y-59607142D02*
X146216723Y-59511904D01*
X146216723Y-59511904D02*
X146026247Y-59464285D01*
X146026247Y-59464285D02*
X145645295Y-59464285D01*
X145645295Y-59464285D02*
X145550057Y-59511904D01*
X145550057Y-59511904D02*
X145502438Y-59559523D01*
X145502438Y-59559523D02*
X145454819Y-59654761D01*
X145454819Y-59654761D02*
X145454819Y-59845237D01*
X145454819Y-59845237D02*
X145502438Y-59940475D01*
X145502438Y-59940475D02*
X145550057Y-59988094D01*
X145550057Y-59988094D02*
X145645295Y-60035713D01*
X145645295Y-60035713D02*
X145883390Y-60035713D01*
X145883390Y-60035713D02*
X145978628Y-59988094D01*
X145978628Y-59988094D02*
X146026247Y-59940475D01*
X146026247Y-59940475D02*
X146073866Y-59845237D01*
X146073866Y-59845237D02*
X146073866Y-59654761D01*
X146073866Y-59654761D02*
X146026247Y-59559523D01*
X146026247Y-59559523D02*
X145978628Y-59511904D01*
X145978628Y-59511904D02*
X145883390Y-59464285D01*
X166857142Y-79204819D02*
X166523809Y-78728628D01*
X166285714Y-79204819D02*
X166285714Y-78204819D01*
X166285714Y-78204819D02*
X166666666Y-78204819D01*
X166666666Y-78204819D02*
X166761904Y-78252438D01*
X166761904Y-78252438D02*
X166809523Y-78300057D01*
X166809523Y-78300057D02*
X166857142Y-78395295D01*
X166857142Y-78395295D02*
X166857142Y-78538152D01*
X166857142Y-78538152D02*
X166809523Y-78633390D01*
X166809523Y-78633390D02*
X166761904Y-78681009D01*
X166761904Y-78681009D02*
X166666666Y-78728628D01*
X166666666Y-78728628D02*
X166285714Y-78728628D01*
X167809523Y-79204819D02*
X167238095Y-79204819D01*
X167523809Y-79204819D02*
X167523809Y-78204819D01*
X167523809Y-78204819D02*
X167428571Y-78347676D01*
X167428571Y-78347676D02*
X167333333Y-78442914D01*
X167333333Y-78442914D02*
X167238095Y-78490533D01*
X168714285Y-78204819D02*
X168238095Y-78204819D01*
X168238095Y-78204819D02*
X168190476Y-78681009D01*
X168190476Y-78681009D02*
X168238095Y-78633390D01*
X168238095Y-78633390D02*
X168333333Y-78585771D01*
X168333333Y-78585771D02*
X168571428Y-78585771D01*
X168571428Y-78585771D02*
X168666666Y-78633390D01*
X168666666Y-78633390D02*
X168714285Y-78681009D01*
X168714285Y-78681009D02*
X168761904Y-78776247D01*
X168761904Y-78776247D02*
X168761904Y-79014342D01*
X168761904Y-79014342D02*
X168714285Y-79109580D01*
X168714285Y-79109580D02*
X168666666Y-79157200D01*
X168666666Y-79157200D02*
X168571428Y-79204819D01*
X168571428Y-79204819D02*
X168333333Y-79204819D01*
X168333333Y-79204819D02*
X168238095Y-79157200D01*
X168238095Y-79157200D02*
X168190476Y-79109580D01*
X155609580Y-25892857D02*
X155657200Y-25940476D01*
X155657200Y-25940476D02*
X155704819Y-26083333D01*
X155704819Y-26083333D02*
X155704819Y-26178571D01*
X155704819Y-26178571D02*
X155657200Y-26321428D01*
X155657200Y-26321428D02*
X155561961Y-26416666D01*
X155561961Y-26416666D02*
X155466723Y-26464285D01*
X155466723Y-26464285D02*
X155276247Y-26511904D01*
X155276247Y-26511904D02*
X155133390Y-26511904D01*
X155133390Y-26511904D02*
X154942914Y-26464285D01*
X154942914Y-26464285D02*
X154847676Y-26416666D01*
X154847676Y-26416666D02*
X154752438Y-26321428D01*
X154752438Y-26321428D02*
X154704819Y-26178571D01*
X154704819Y-26178571D02*
X154704819Y-26083333D01*
X154704819Y-26083333D02*
X154752438Y-25940476D01*
X154752438Y-25940476D02*
X154800057Y-25892857D01*
X155704819Y-24940476D02*
X155704819Y-25511904D01*
X155704819Y-25226190D02*
X154704819Y-25226190D01*
X154704819Y-25226190D02*
X154847676Y-25321428D01*
X154847676Y-25321428D02*
X154942914Y-25416666D01*
X154942914Y-25416666D02*
X154990533Y-25511904D01*
X155038152Y-24083333D02*
X155704819Y-24083333D01*
X154657200Y-24321428D02*
X155371485Y-24559523D01*
X155371485Y-24559523D02*
X155371485Y-23940476D01*
X138704819Y-62392857D02*
X138228628Y-62726190D01*
X138704819Y-62964285D02*
X137704819Y-62964285D01*
X137704819Y-62964285D02*
X137704819Y-62583333D01*
X137704819Y-62583333D02*
X137752438Y-62488095D01*
X137752438Y-62488095D02*
X137800057Y-62440476D01*
X137800057Y-62440476D02*
X137895295Y-62392857D01*
X137895295Y-62392857D02*
X138038152Y-62392857D01*
X138038152Y-62392857D02*
X138133390Y-62440476D01*
X138133390Y-62440476D02*
X138181009Y-62488095D01*
X138181009Y-62488095D02*
X138228628Y-62583333D01*
X138228628Y-62583333D02*
X138228628Y-62964285D01*
X138704819Y-61440476D02*
X138704819Y-62011904D01*
X138704819Y-61726190D02*
X137704819Y-61726190D01*
X137704819Y-61726190D02*
X137847676Y-61821428D01*
X137847676Y-61821428D02*
X137942914Y-61916666D01*
X137942914Y-61916666D02*
X137990533Y-62011904D01*
X138704819Y-60964285D02*
X138704819Y-60773809D01*
X138704819Y-60773809D02*
X138657200Y-60678571D01*
X138657200Y-60678571D02*
X138609580Y-60630952D01*
X138609580Y-60630952D02*
X138466723Y-60535714D01*
X138466723Y-60535714D02*
X138276247Y-60488095D01*
X138276247Y-60488095D02*
X137895295Y-60488095D01*
X137895295Y-60488095D02*
X137800057Y-60535714D01*
X137800057Y-60535714D02*
X137752438Y-60583333D01*
X137752438Y-60583333D02*
X137704819Y-60678571D01*
X137704819Y-60678571D02*
X137704819Y-60869047D01*
X137704819Y-60869047D02*
X137752438Y-60964285D01*
X137752438Y-60964285D02*
X137800057Y-61011904D01*
X137800057Y-61011904D02*
X137895295Y-61059523D01*
X137895295Y-61059523D02*
X138133390Y-61059523D01*
X138133390Y-61059523D02*
X138228628Y-61011904D01*
X138228628Y-61011904D02*
X138276247Y-60964285D01*
X138276247Y-60964285D02*
X138323866Y-60869047D01*
X138323866Y-60869047D02*
X138323866Y-60678571D01*
X138323866Y-60678571D02*
X138276247Y-60583333D01*
X138276247Y-60583333D02*
X138228628Y-60535714D01*
X138228628Y-60535714D02*
X138133390Y-60488095D01*
X142107142Y-87859580D02*
X142059523Y-87907200D01*
X142059523Y-87907200D02*
X141916666Y-87954819D01*
X141916666Y-87954819D02*
X141821428Y-87954819D01*
X141821428Y-87954819D02*
X141678571Y-87907200D01*
X141678571Y-87907200D02*
X141583333Y-87811961D01*
X141583333Y-87811961D02*
X141535714Y-87716723D01*
X141535714Y-87716723D02*
X141488095Y-87526247D01*
X141488095Y-87526247D02*
X141488095Y-87383390D01*
X141488095Y-87383390D02*
X141535714Y-87192914D01*
X141535714Y-87192914D02*
X141583333Y-87097676D01*
X141583333Y-87097676D02*
X141678571Y-87002438D01*
X141678571Y-87002438D02*
X141821428Y-86954819D01*
X141821428Y-86954819D02*
X141916666Y-86954819D01*
X141916666Y-86954819D02*
X142059523Y-87002438D01*
X142059523Y-87002438D02*
X142107142Y-87050057D01*
X143059523Y-87954819D02*
X142488095Y-87954819D01*
X142773809Y-87954819D02*
X142773809Y-86954819D01*
X142773809Y-86954819D02*
X142678571Y-87097676D01*
X142678571Y-87097676D02*
X142583333Y-87192914D01*
X142583333Y-87192914D02*
X142488095Y-87240533D01*
X143392857Y-86954819D02*
X144011904Y-86954819D01*
X144011904Y-86954819D02*
X143678571Y-87335771D01*
X143678571Y-87335771D02*
X143821428Y-87335771D01*
X143821428Y-87335771D02*
X143916666Y-87383390D01*
X143916666Y-87383390D02*
X143964285Y-87431009D01*
X143964285Y-87431009D02*
X144011904Y-87526247D01*
X144011904Y-87526247D02*
X144011904Y-87764342D01*
X144011904Y-87764342D02*
X143964285Y-87859580D01*
X143964285Y-87859580D02*
X143916666Y-87907200D01*
X143916666Y-87907200D02*
X143821428Y-87954819D01*
X143821428Y-87954819D02*
X143535714Y-87954819D01*
X143535714Y-87954819D02*
X143440476Y-87907200D01*
X143440476Y-87907200D02*
X143392857Y-87859580D01*
X126954819Y-81392857D02*
X126478628Y-81726190D01*
X126954819Y-81964285D02*
X125954819Y-81964285D01*
X125954819Y-81964285D02*
X125954819Y-81583333D01*
X125954819Y-81583333D02*
X126002438Y-81488095D01*
X126002438Y-81488095D02*
X126050057Y-81440476D01*
X126050057Y-81440476D02*
X126145295Y-81392857D01*
X126145295Y-81392857D02*
X126288152Y-81392857D01*
X126288152Y-81392857D02*
X126383390Y-81440476D01*
X126383390Y-81440476D02*
X126431009Y-81488095D01*
X126431009Y-81488095D02*
X126478628Y-81583333D01*
X126478628Y-81583333D02*
X126478628Y-81964285D01*
X126954819Y-80440476D02*
X126954819Y-81011904D01*
X126954819Y-80726190D02*
X125954819Y-80726190D01*
X125954819Y-80726190D02*
X126097676Y-80821428D01*
X126097676Y-80821428D02*
X126192914Y-80916666D01*
X126192914Y-80916666D02*
X126240533Y-81011904D01*
X126288152Y-79583333D02*
X126954819Y-79583333D01*
X125907200Y-79821428D02*
X126621485Y-80059523D01*
X126621485Y-80059523D02*
X126621485Y-79440476D01*
X123000000Y-86704819D02*
X123000000Y-85704819D01*
X123476190Y-86704819D02*
X123476190Y-85704819D01*
X123476190Y-85704819D02*
X124047618Y-86704819D01*
X124047618Y-86704819D02*
X124047618Y-85704819D01*
X125047618Y-86704819D02*
X124476190Y-86704819D01*
X124761904Y-86704819D02*
X124761904Y-85704819D01*
X124761904Y-85704819D02*
X124666666Y-85847676D01*
X124666666Y-85847676D02*
X124571428Y-85942914D01*
X124571428Y-85942914D02*
X124476190Y-85990533D01*
X162109580Y-51666666D02*
X162157200Y-51714285D01*
X162157200Y-51714285D02*
X162204819Y-51857142D01*
X162204819Y-51857142D02*
X162204819Y-51952380D01*
X162204819Y-51952380D02*
X162157200Y-52095237D01*
X162157200Y-52095237D02*
X162061961Y-52190475D01*
X162061961Y-52190475D02*
X161966723Y-52238094D01*
X161966723Y-52238094D02*
X161776247Y-52285713D01*
X161776247Y-52285713D02*
X161633390Y-52285713D01*
X161633390Y-52285713D02*
X161442914Y-52238094D01*
X161442914Y-52238094D02*
X161347676Y-52190475D01*
X161347676Y-52190475D02*
X161252438Y-52095237D01*
X161252438Y-52095237D02*
X161204819Y-51952380D01*
X161204819Y-51952380D02*
X161204819Y-51857142D01*
X161204819Y-51857142D02*
X161252438Y-51714285D01*
X161252438Y-51714285D02*
X161300057Y-51666666D01*
X161300057Y-51285713D02*
X161252438Y-51238094D01*
X161252438Y-51238094D02*
X161204819Y-51142856D01*
X161204819Y-51142856D02*
X161204819Y-50904761D01*
X161204819Y-50904761D02*
X161252438Y-50809523D01*
X161252438Y-50809523D02*
X161300057Y-50761904D01*
X161300057Y-50761904D02*
X161395295Y-50714285D01*
X161395295Y-50714285D02*
X161490533Y-50714285D01*
X161490533Y-50714285D02*
X161633390Y-50761904D01*
X161633390Y-50761904D02*
X162204819Y-51333332D01*
X162204819Y-51333332D02*
X162204819Y-50714285D01*
X139261904Y-21502438D02*
X139166666Y-21454819D01*
X139166666Y-21454819D02*
X139023809Y-21454819D01*
X139023809Y-21454819D02*
X138880952Y-21502438D01*
X138880952Y-21502438D02*
X138785714Y-21597676D01*
X138785714Y-21597676D02*
X138738095Y-21692914D01*
X138738095Y-21692914D02*
X138690476Y-21883390D01*
X138690476Y-21883390D02*
X138690476Y-22026247D01*
X138690476Y-22026247D02*
X138738095Y-22216723D01*
X138738095Y-22216723D02*
X138785714Y-22311961D01*
X138785714Y-22311961D02*
X138880952Y-22407200D01*
X138880952Y-22407200D02*
X139023809Y-22454819D01*
X139023809Y-22454819D02*
X139119047Y-22454819D01*
X139119047Y-22454819D02*
X139261904Y-22407200D01*
X139261904Y-22407200D02*
X139309523Y-22359580D01*
X139309523Y-22359580D02*
X139309523Y-22026247D01*
X139309523Y-22026247D02*
X139119047Y-22026247D01*
X139738095Y-22454819D02*
X139738095Y-21454819D01*
X139738095Y-21454819D02*
X140309523Y-22454819D01*
X140309523Y-22454819D02*
X140309523Y-21454819D01*
X140785714Y-22454819D02*
X140785714Y-21454819D01*
X140785714Y-21454819D02*
X141023809Y-21454819D01*
X141023809Y-21454819D02*
X141166666Y-21502438D01*
X141166666Y-21502438D02*
X141261904Y-21597676D01*
X141261904Y-21597676D02*
X141309523Y-21692914D01*
X141309523Y-21692914D02*
X141357142Y-21883390D01*
X141357142Y-21883390D02*
X141357142Y-22026247D01*
X141357142Y-22026247D02*
X141309523Y-22216723D01*
X141309523Y-22216723D02*
X141261904Y-22311961D01*
X141261904Y-22311961D02*
X141166666Y-22407200D01*
X141166666Y-22407200D02*
X141023809Y-22454819D01*
X141023809Y-22454819D02*
X140785714Y-22454819D01*
X142309523Y-22454819D02*
X141738095Y-22454819D01*
X142023809Y-22454819D02*
X142023809Y-21454819D01*
X142023809Y-21454819D02*
X141928571Y-21597676D01*
X141928571Y-21597676D02*
X141833333Y-21692914D01*
X141833333Y-21692914D02*
X141738095Y-21740533D01*
X167297142Y-86704819D02*
X166963809Y-86228628D01*
X166725714Y-86704819D02*
X166725714Y-85704819D01*
X166725714Y-85704819D02*
X167106666Y-85704819D01*
X167106666Y-85704819D02*
X167201904Y-85752438D01*
X167201904Y-85752438D02*
X167249523Y-85800057D01*
X167249523Y-85800057D02*
X167297142Y-85895295D01*
X167297142Y-85895295D02*
X167297142Y-86038152D01*
X167297142Y-86038152D02*
X167249523Y-86133390D01*
X167249523Y-86133390D02*
X167201904Y-86181009D01*
X167201904Y-86181009D02*
X167106666Y-86228628D01*
X167106666Y-86228628D02*
X166725714Y-86228628D01*
X168249523Y-86704819D02*
X167678095Y-86704819D01*
X167963809Y-86704819D02*
X167963809Y-85704819D01*
X167963809Y-85704819D02*
X167868571Y-85847676D01*
X167868571Y-85847676D02*
X167773333Y-85942914D01*
X167773333Y-85942914D02*
X167678095Y-85990533D01*
X168868571Y-85704819D02*
X168963809Y-85704819D01*
X168963809Y-85704819D02*
X169059047Y-85752438D01*
X169059047Y-85752438D02*
X169106666Y-85800057D01*
X169106666Y-85800057D02*
X169154285Y-85895295D01*
X169154285Y-85895295D02*
X169201904Y-86085771D01*
X169201904Y-86085771D02*
X169201904Y-86323866D01*
X169201904Y-86323866D02*
X169154285Y-86514342D01*
X169154285Y-86514342D02*
X169106666Y-86609580D01*
X169106666Y-86609580D02*
X169059047Y-86657200D01*
X169059047Y-86657200D02*
X168963809Y-86704819D01*
X168963809Y-86704819D02*
X168868571Y-86704819D01*
X168868571Y-86704819D02*
X168773333Y-86657200D01*
X168773333Y-86657200D02*
X168725714Y-86609580D01*
X168725714Y-86609580D02*
X168678095Y-86514342D01*
X168678095Y-86514342D02*
X168630476Y-86323866D01*
X168630476Y-86323866D02*
X168630476Y-86085771D01*
X168630476Y-86085771D02*
X168678095Y-85895295D01*
X168678095Y-85895295D02*
X168725714Y-85800057D01*
X168725714Y-85800057D02*
X168773333Y-85752438D01*
X168773333Y-85752438D02*
X168868571Y-85704819D01*
X122609580Y-52666666D02*
X122657200Y-52714285D01*
X122657200Y-52714285D02*
X122704819Y-52857142D01*
X122704819Y-52857142D02*
X122704819Y-52952380D01*
X122704819Y-52952380D02*
X122657200Y-53095237D01*
X122657200Y-53095237D02*
X122561961Y-53190475D01*
X122561961Y-53190475D02*
X122466723Y-53238094D01*
X122466723Y-53238094D02*
X122276247Y-53285713D01*
X122276247Y-53285713D02*
X122133390Y-53285713D01*
X122133390Y-53285713D02*
X121942914Y-53238094D01*
X121942914Y-53238094D02*
X121847676Y-53190475D01*
X121847676Y-53190475D02*
X121752438Y-53095237D01*
X121752438Y-53095237D02*
X121704819Y-52952380D01*
X121704819Y-52952380D02*
X121704819Y-52857142D01*
X121704819Y-52857142D02*
X121752438Y-52714285D01*
X121752438Y-52714285D02*
X121800057Y-52666666D01*
X122038152Y-51809523D02*
X122704819Y-51809523D01*
X121657200Y-52047618D02*
X122371485Y-52285713D01*
X122371485Y-52285713D02*
X122371485Y-51666666D01*
X127761904Y-86002438D02*
X127666666Y-85954819D01*
X127666666Y-85954819D02*
X127523809Y-85954819D01*
X127523809Y-85954819D02*
X127380952Y-86002438D01*
X127380952Y-86002438D02*
X127285714Y-86097676D01*
X127285714Y-86097676D02*
X127238095Y-86192914D01*
X127238095Y-86192914D02*
X127190476Y-86383390D01*
X127190476Y-86383390D02*
X127190476Y-86526247D01*
X127190476Y-86526247D02*
X127238095Y-86716723D01*
X127238095Y-86716723D02*
X127285714Y-86811961D01*
X127285714Y-86811961D02*
X127380952Y-86907200D01*
X127380952Y-86907200D02*
X127523809Y-86954819D01*
X127523809Y-86954819D02*
X127619047Y-86954819D01*
X127619047Y-86954819D02*
X127761904Y-86907200D01*
X127761904Y-86907200D02*
X127809523Y-86859580D01*
X127809523Y-86859580D02*
X127809523Y-86526247D01*
X127809523Y-86526247D02*
X127619047Y-86526247D01*
X128238095Y-86954819D02*
X128238095Y-85954819D01*
X128238095Y-85954819D02*
X128809523Y-86954819D01*
X128809523Y-86954819D02*
X128809523Y-85954819D01*
X129285714Y-86954819D02*
X129285714Y-85954819D01*
X129285714Y-85954819D02*
X129523809Y-85954819D01*
X129523809Y-85954819D02*
X129666666Y-86002438D01*
X129666666Y-86002438D02*
X129761904Y-86097676D01*
X129761904Y-86097676D02*
X129809523Y-86192914D01*
X129809523Y-86192914D02*
X129857142Y-86383390D01*
X129857142Y-86383390D02*
X129857142Y-86526247D01*
X129857142Y-86526247D02*
X129809523Y-86716723D01*
X129809523Y-86716723D02*
X129761904Y-86811961D01*
X129761904Y-86811961D02*
X129666666Y-86907200D01*
X129666666Y-86907200D02*
X129523809Y-86954819D01*
X129523809Y-86954819D02*
X129285714Y-86954819D01*
X130238095Y-86050057D02*
X130285714Y-86002438D01*
X130285714Y-86002438D02*
X130380952Y-85954819D01*
X130380952Y-85954819D02*
X130619047Y-85954819D01*
X130619047Y-85954819D02*
X130714285Y-86002438D01*
X130714285Y-86002438D02*
X130761904Y-86050057D01*
X130761904Y-86050057D02*
X130809523Y-86145295D01*
X130809523Y-86145295D02*
X130809523Y-86240533D01*
X130809523Y-86240533D02*
X130761904Y-86383390D01*
X130761904Y-86383390D02*
X130190476Y-86954819D01*
X130190476Y-86954819D02*
X130809523Y-86954819D01*
X144904762Y-55204819D02*
X145476190Y-55204819D01*
X145190476Y-56204819D02*
X145190476Y-55204819D01*
X145952381Y-56204819D02*
X145857143Y-56157200D01*
X145857143Y-56157200D02*
X145809524Y-56109580D01*
X145809524Y-56109580D02*
X145761905Y-56014342D01*
X145761905Y-56014342D02*
X145761905Y-55728628D01*
X145761905Y-55728628D02*
X145809524Y-55633390D01*
X145809524Y-55633390D02*
X145857143Y-55585771D01*
X145857143Y-55585771D02*
X145952381Y-55538152D01*
X145952381Y-55538152D02*
X146095238Y-55538152D01*
X146095238Y-55538152D02*
X146190476Y-55585771D01*
X146190476Y-55585771D02*
X146238095Y-55633390D01*
X146238095Y-55633390D02*
X146285714Y-55728628D01*
X146285714Y-55728628D02*
X146285714Y-56014342D01*
X146285714Y-56014342D02*
X146238095Y-56109580D01*
X146238095Y-56109580D02*
X146190476Y-56157200D01*
X146190476Y-56157200D02*
X146095238Y-56204819D01*
X146095238Y-56204819D02*
X145952381Y-56204819D01*
X146714286Y-55538152D02*
X146714286Y-56204819D01*
X146714286Y-55633390D02*
X146761905Y-55585771D01*
X146761905Y-55585771D02*
X146857143Y-55538152D01*
X146857143Y-55538152D02*
X147000000Y-55538152D01*
X147000000Y-55538152D02*
X147095238Y-55585771D01*
X147095238Y-55585771D02*
X147142857Y-55681009D01*
X147142857Y-55681009D02*
X147142857Y-56204819D01*
X148000000Y-56157200D02*
X147904762Y-56204819D01*
X147904762Y-56204819D02*
X147714286Y-56204819D01*
X147714286Y-56204819D02*
X147619048Y-56157200D01*
X147619048Y-56157200D02*
X147571429Y-56061961D01*
X147571429Y-56061961D02*
X147571429Y-55681009D01*
X147571429Y-55681009D02*
X147619048Y-55585771D01*
X147619048Y-55585771D02*
X147714286Y-55538152D01*
X147714286Y-55538152D02*
X147904762Y-55538152D01*
X147904762Y-55538152D02*
X148000000Y-55585771D01*
X148000000Y-55585771D02*
X148047619Y-55681009D01*
X148047619Y-55681009D02*
X148047619Y-55776247D01*
X148047619Y-55776247D02*
X147571429Y-55871485D01*
X149000000Y-56204819D02*
X148428572Y-56204819D01*
X148714286Y-56204819D02*
X148714286Y-55204819D01*
X148714286Y-55204819D02*
X148619048Y-55347676D01*
X148619048Y-55347676D02*
X148523810Y-55442914D01*
X148523810Y-55442914D02*
X148428572Y-55490533D01*
X166454819Y-72488094D02*
X165454819Y-72488094D01*
X165454819Y-72488094D02*
X165454819Y-72249999D01*
X165454819Y-72249999D02*
X165502438Y-72107142D01*
X165502438Y-72107142D02*
X165597676Y-72011904D01*
X165597676Y-72011904D02*
X165692914Y-71964285D01*
X165692914Y-71964285D02*
X165883390Y-71916666D01*
X165883390Y-71916666D02*
X166026247Y-71916666D01*
X166026247Y-71916666D02*
X166216723Y-71964285D01*
X166216723Y-71964285D02*
X166311961Y-72011904D01*
X166311961Y-72011904D02*
X166407200Y-72107142D01*
X166407200Y-72107142D02*
X166454819Y-72249999D01*
X166454819Y-72249999D02*
X166454819Y-72488094D01*
X166454819Y-70964285D02*
X166454819Y-71535713D01*
X166454819Y-71249999D02*
X165454819Y-71249999D01*
X165454819Y-71249999D02*
X165597676Y-71345237D01*
X165597676Y-71345237D02*
X165692914Y-71440475D01*
X165692914Y-71440475D02*
X165740533Y-71535713D01*
X166454819Y-66511904D02*
X165454819Y-66511904D01*
X166454819Y-65940476D02*
X165883390Y-66369047D01*
X165454819Y-65940476D02*
X166026247Y-66511904D01*
X169511904Y-76252438D02*
X169416666Y-76204819D01*
X169416666Y-76204819D02*
X169273809Y-76204819D01*
X169273809Y-76204819D02*
X169130952Y-76252438D01*
X169130952Y-76252438D02*
X169035714Y-76347676D01*
X169035714Y-76347676D02*
X168988095Y-76442914D01*
X168988095Y-76442914D02*
X168940476Y-76633390D01*
X168940476Y-76633390D02*
X168940476Y-76776247D01*
X168940476Y-76776247D02*
X168988095Y-76966723D01*
X168988095Y-76966723D02*
X169035714Y-77061961D01*
X169035714Y-77061961D02*
X169130952Y-77157200D01*
X169130952Y-77157200D02*
X169273809Y-77204819D01*
X169273809Y-77204819D02*
X169369047Y-77204819D01*
X169369047Y-77204819D02*
X169511904Y-77157200D01*
X169511904Y-77157200D02*
X169559523Y-77109580D01*
X169559523Y-77109580D02*
X169559523Y-76776247D01*
X169559523Y-76776247D02*
X169369047Y-76776247D01*
X169988095Y-77204819D02*
X169988095Y-76204819D01*
X169988095Y-76204819D02*
X170559523Y-77204819D01*
X170559523Y-77204819D02*
X170559523Y-76204819D01*
X171035714Y-77204819D02*
X171035714Y-76204819D01*
X171035714Y-76204819D02*
X171273809Y-76204819D01*
X171273809Y-76204819D02*
X171416666Y-76252438D01*
X171416666Y-76252438D02*
X171511904Y-76347676D01*
X171511904Y-76347676D02*
X171559523Y-76442914D01*
X171559523Y-76442914D02*
X171607142Y-76633390D01*
X171607142Y-76633390D02*
X171607142Y-76776247D01*
X171607142Y-76776247D02*
X171559523Y-76966723D01*
X171559523Y-76966723D02*
X171511904Y-77061961D01*
X171511904Y-77061961D02*
X171416666Y-77157200D01*
X171416666Y-77157200D02*
X171273809Y-77204819D01*
X171273809Y-77204819D02*
X171035714Y-77204819D01*
X171940476Y-76204819D02*
X172559523Y-76204819D01*
X172559523Y-76204819D02*
X172226190Y-76585771D01*
X172226190Y-76585771D02*
X172369047Y-76585771D01*
X172369047Y-76585771D02*
X172464285Y-76633390D01*
X172464285Y-76633390D02*
X172511904Y-76681009D01*
X172511904Y-76681009D02*
X172559523Y-76776247D01*
X172559523Y-76776247D02*
X172559523Y-77014342D01*
X172559523Y-77014342D02*
X172511904Y-77109580D01*
X172511904Y-77109580D02*
X172464285Y-77157200D01*
X172464285Y-77157200D02*
X172369047Y-77204819D01*
X172369047Y-77204819D02*
X172083333Y-77204819D01*
X172083333Y-77204819D02*
X171988095Y-77157200D01*
X171988095Y-77157200D02*
X171940476Y-77109580D01*
X134204819Y-81392857D02*
X133728628Y-81726190D01*
X134204819Y-81964285D02*
X133204819Y-81964285D01*
X133204819Y-81964285D02*
X133204819Y-81583333D01*
X133204819Y-81583333D02*
X133252438Y-81488095D01*
X133252438Y-81488095D02*
X133300057Y-81440476D01*
X133300057Y-81440476D02*
X133395295Y-81392857D01*
X133395295Y-81392857D02*
X133538152Y-81392857D01*
X133538152Y-81392857D02*
X133633390Y-81440476D01*
X133633390Y-81440476D02*
X133681009Y-81488095D01*
X133681009Y-81488095D02*
X133728628Y-81583333D01*
X133728628Y-81583333D02*
X133728628Y-81964285D01*
X133300057Y-81011904D02*
X133252438Y-80964285D01*
X133252438Y-80964285D02*
X133204819Y-80869047D01*
X133204819Y-80869047D02*
X133204819Y-80630952D01*
X133204819Y-80630952D02*
X133252438Y-80535714D01*
X133252438Y-80535714D02*
X133300057Y-80488095D01*
X133300057Y-80488095D02*
X133395295Y-80440476D01*
X133395295Y-80440476D02*
X133490533Y-80440476D01*
X133490533Y-80440476D02*
X133633390Y-80488095D01*
X133633390Y-80488095D02*
X134204819Y-81059523D01*
X134204819Y-81059523D02*
X134204819Y-80440476D01*
X133204819Y-79821428D02*
X133204819Y-79726190D01*
X133204819Y-79726190D02*
X133252438Y-79630952D01*
X133252438Y-79630952D02*
X133300057Y-79583333D01*
X133300057Y-79583333D02*
X133395295Y-79535714D01*
X133395295Y-79535714D02*
X133585771Y-79488095D01*
X133585771Y-79488095D02*
X133823866Y-79488095D01*
X133823866Y-79488095D02*
X134014342Y-79535714D01*
X134014342Y-79535714D02*
X134109580Y-79583333D01*
X134109580Y-79583333D02*
X134157200Y-79630952D01*
X134157200Y-79630952D02*
X134204819Y-79726190D01*
X134204819Y-79726190D02*
X134204819Y-79821428D01*
X134204819Y-79821428D02*
X134157200Y-79916666D01*
X134157200Y-79916666D02*
X134109580Y-79964285D01*
X134109580Y-79964285D02*
X134014342Y-80011904D01*
X134014342Y-80011904D02*
X133823866Y-80059523D01*
X133823866Y-80059523D02*
X133585771Y-80059523D01*
X133585771Y-80059523D02*
X133395295Y-80011904D01*
X133395295Y-80011904D02*
X133300057Y-79964285D01*
X133300057Y-79964285D02*
X133252438Y-79916666D01*
X133252438Y-79916666D02*
X133204819Y-79821428D01*
X157857142Y-79109580D02*
X157809523Y-79157200D01*
X157809523Y-79157200D02*
X157666666Y-79204819D01*
X157666666Y-79204819D02*
X157571428Y-79204819D01*
X157571428Y-79204819D02*
X157428571Y-79157200D01*
X157428571Y-79157200D02*
X157333333Y-79061961D01*
X157333333Y-79061961D02*
X157285714Y-78966723D01*
X157285714Y-78966723D02*
X157238095Y-78776247D01*
X157238095Y-78776247D02*
X157238095Y-78633390D01*
X157238095Y-78633390D02*
X157285714Y-78442914D01*
X157285714Y-78442914D02*
X157333333Y-78347676D01*
X157333333Y-78347676D02*
X157428571Y-78252438D01*
X157428571Y-78252438D02*
X157571428Y-78204819D01*
X157571428Y-78204819D02*
X157666666Y-78204819D01*
X157666666Y-78204819D02*
X157809523Y-78252438D01*
X157809523Y-78252438D02*
X157857142Y-78300057D01*
X158809523Y-79204819D02*
X158238095Y-79204819D01*
X158523809Y-79204819D02*
X158523809Y-78204819D01*
X158523809Y-78204819D02*
X158428571Y-78347676D01*
X158428571Y-78347676D02*
X158333333Y-78442914D01*
X158333333Y-78442914D02*
X158238095Y-78490533D01*
X159761904Y-79204819D02*
X159190476Y-79204819D01*
X159476190Y-79204819D02*
X159476190Y-78204819D01*
X159476190Y-78204819D02*
X159380952Y-78347676D01*
X159380952Y-78347676D02*
X159285714Y-78442914D01*
X159285714Y-78442914D02*
X159190476Y-78490533D01*
X122704819Y-61916666D02*
X122228628Y-62249999D01*
X122704819Y-62488094D02*
X121704819Y-62488094D01*
X121704819Y-62488094D02*
X121704819Y-62107142D01*
X121704819Y-62107142D02*
X121752438Y-62011904D01*
X121752438Y-62011904D02*
X121800057Y-61964285D01*
X121800057Y-61964285D02*
X121895295Y-61916666D01*
X121895295Y-61916666D02*
X122038152Y-61916666D01*
X122038152Y-61916666D02*
X122133390Y-61964285D01*
X122133390Y-61964285D02*
X122181009Y-62011904D01*
X122181009Y-62011904D02*
X122228628Y-62107142D01*
X122228628Y-62107142D02*
X122228628Y-62488094D01*
X122704819Y-61440475D02*
X122704819Y-61249999D01*
X122704819Y-61249999D02*
X122657200Y-61154761D01*
X122657200Y-61154761D02*
X122609580Y-61107142D01*
X122609580Y-61107142D02*
X122466723Y-61011904D01*
X122466723Y-61011904D02*
X122276247Y-60964285D01*
X122276247Y-60964285D02*
X121895295Y-60964285D01*
X121895295Y-60964285D02*
X121800057Y-61011904D01*
X121800057Y-61011904D02*
X121752438Y-61059523D01*
X121752438Y-61059523D02*
X121704819Y-61154761D01*
X121704819Y-61154761D02*
X121704819Y-61345237D01*
X121704819Y-61345237D02*
X121752438Y-61440475D01*
X121752438Y-61440475D02*
X121800057Y-61488094D01*
X121800057Y-61488094D02*
X121895295Y-61535713D01*
X121895295Y-61535713D02*
X122133390Y-61535713D01*
X122133390Y-61535713D02*
X122228628Y-61488094D01*
X122228628Y-61488094D02*
X122276247Y-61440475D01*
X122276247Y-61440475D02*
X122323866Y-61345237D01*
X122323866Y-61345237D02*
X122323866Y-61154761D01*
X122323866Y-61154761D02*
X122276247Y-61059523D01*
X122276247Y-61059523D02*
X122228628Y-61011904D01*
X122228628Y-61011904D02*
X122133390Y-60964285D01*
X162050057Y-84365238D02*
X162002438Y-84460476D01*
X162002438Y-84460476D02*
X161907200Y-84555714D01*
X161907200Y-84555714D02*
X161764342Y-84698571D01*
X161764342Y-84698571D02*
X161716723Y-84793809D01*
X161716723Y-84793809D02*
X161716723Y-84889047D01*
X161954819Y-84841428D02*
X161907200Y-84936666D01*
X161907200Y-84936666D02*
X161811961Y-85031904D01*
X161811961Y-85031904D02*
X161621485Y-85079523D01*
X161621485Y-85079523D02*
X161288152Y-85079523D01*
X161288152Y-85079523D02*
X161097676Y-85031904D01*
X161097676Y-85031904D02*
X161002438Y-84936666D01*
X161002438Y-84936666D02*
X160954819Y-84841428D01*
X160954819Y-84841428D02*
X160954819Y-84650952D01*
X160954819Y-84650952D02*
X161002438Y-84555714D01*
X161002438Y-84555714D02*
X161097676Y-84460476D01*
X161097676Y-84460476D02*
X161288152Y-84412857D01*
X161288152Y-84412857D02*
X161621485Y-84412857D01*
X161621485Y-84412857D02*
X161811961Y-84460476D01*
X161811961Y-84460476D02*
X161907200Y-84555714D01*
X161907200Y-84555714D02*
X161954819Y-84650952D01*
X161954819Y-84650952D02*
X161954819Y-84841428D01*
X161050057Y-84031904D02*
X161002438Y-83984285D01*
X161002438Y-83984285D02*
X160954819Y-83889047D01*
X160954819Y-83889047D02*
X160954819Y-83650952D01*
X160954819Y-83650952D02*
X161002438Y-83555714D01*
X161002438Y-83555714D02*
X161050057Y-83508095D01*
X161050057Y-83508095D02*
X161145295Y-83460476D01*
X161145295Y-83460476D02*
X161240533Y-83460476D01*
X161240533Y-83460476D02*
X161383390Y-83508095D01*
X161383390Y-83508095D02*
X161954819Y-84079523D01*
X161954819Y-84079523D02*
X161954819Y-83460476D01*
X127634761Y-51800057D02*
X127539523Y-51752438D01*
X127539523Y-51752438D02*
X127444285Y-51657200D01*
X127444285Y-51657200D02*
X127301428Y-51514342D01*
X127301428Y-51514342D02*
X127206190Y-51466723D01*
X127206190Y-51466723D02*
X127110952Y-51466723D01*
X127158571Y-51704819D02*
X127063333Y-51657200D01*
X127063333Y-51657200D02*
X126968095Y-51561961D01*
X126968095Y-51561961D02*
X126920476Y-51371485D01*
X126920476Y-51371485D02*
X126920476Y-51038152D01*
X126920476Y-51038152D02*
X126968095Y-50847676D01*
X126968095Y-50847676D02*
X127063333Y-50752438D01*
X127063333Y-50752438D02*
X127158571Y-50704819D01*
X127158571Y-50704819D02*
X127349047Y-50704819D01*
X127349047Y-50704819D02*
X127444285Y-50752438D01*
X127444285Y-50752438D02*
X127539523Y-50847676D01*
X127539523Y-50847676D02*
X127587142Y-51038152D01*
X127587142Y-51038152D02*
X127587142Y-51371485D01*
X127587142Y-51371485D02*
X127539523Y-51561961D01*
X127539523Y-51561961D02*
X127444285Y-51657200D01*
X127444285Y-51657200D02*
X127349047Y-51704819D01*
X127349047Y-51704819D02*
X127158571Y-51704819D01*
X128444285Y-51038152D02*
X128444285Y-51704819D01*
X128206190Y-50657200D02*
X127968095Y-51371485D01*
X127968095Y-51371485D02*
X128587142Y-51371485D01*
X164226190Y-47454819D02*
X164559523Y-48454819D01*
X164559523Y-48454819D02*
X164892856Y-47454819D01*
X165369047Y-48454819D02*
X165273809Y-48407200D01*
X165273809Y-48407200D02*
X165226190Y-48359580D01*
X165226190Y-48359580D02*
X165178571Y-48264342D01*
X165178571Y-48264342D02*
X165178571Y-47978628D01*
X165178571Y-47978628D02*
X165226190Y-47883390D01*
X165226190Y-47883390D02*
X165273809Y-47835771D01*
X165273809Y-47835771D02*
X165369047Y-47788152D01*
X165369047Y-47788152D02*
X165511904Y-47788152D01*
X165511904Y-47788152D02*
X165607142Y-47835771D01*
X165607142Y-47835771D02*
X165654761Y-47883390D01*
X165654761Y-47883390D02*
X165702380Y-47978628D01*
X165702380Y-47978628D02*
X165702380Y-48264342D01*
X165702380Y-48264342D02*
X165654761Y-48359580D01*
X165654761Y-48359580D02*
X165607142Y-48407200D01*
X165607142Y-48407200D02*
X165511904Y-48454819D01*
X165511904Y-48454819D02*
X165369047Y-48454819D01*
X166273809Y-48454819D02*
X166178571Y-48407200D01*
X166178571Y-48407200D02*
X166130952Y-48311961D01*
X166130952Y-48311961D02*
X166130952Y-47454819D01*
X167178571Y-48454819D02*
X166607143Y-48454819D01*
X166892857Y-48454819D02*
X166892857Y-47454819D01*
X166892857Y-47454819D02*
X166797619Y-47597676D01*
X166797619Y-47597676D02*
X166702381Y-47692914D01*
X166702381Y-47692914D02*
X166607143Y-47740533D01*
X165454819Y-60916666D02*
X164978628Y-61249999D01*
X165454819Y-61488094D02*
X164454819Y-61488094D01*
X164454819Y-61488094D02*
X164454819Y-61107142D01*
X164454819Y-61107142D02*
X164502438Y-61011904D01*
X164502438Y-61011904D02*
X164550057Y-60964285D01*
X164550057Y-60964285D02*
X164645295Y-60916666D01*
X164645295Y-60916666D02*
X164788152Y-60916666D01*
X164788152Y-60916666D02*
X164883390Y-60964285D01*
X164883390Y-60964285D02*
X164931009Y-61011904D01*
X164931009Y-61011904D02*
X164978628Y-61107142D01*
X164978628Y-61107142D02*
X164978628Y-61488094D01*
X164454819Y-60583332D02*
X164454819Y-59916666D01*
X164454819Y-59916666D02*
X165454819Y-60345237D01*
X141704819Y-81392857D02*
X141228628Y-81726190D01*
X141704819Y-81964285D02*
X140704819Y-81964285D01*
X140704819Y-81964285D02*
X140704819Y-81583333D01*
X140704819Y-81583333D02*
X140752438Y-81488095D01*
X140752438Y-81488095D02*
X140800057Y-81440476D01*
X140800057Y-81440476D02*
X140895295Y-81392857D01*
X140895295Y-81392857D02*
X141038152Y-81392857D01*
X141038152Y-81392857D02*
X141133390Y-81440476D01*
X141133390Y-81440476D02*
X141181009Y-81488095D01*
X141181009Y-81488095D02*
X141228628Y-81583333D01*
X141228628Y-81583333D02*
X141228628Y-81964285D01*
X141704819Y-80440476D02*
X141704819Y-81011904D01*
X141704819Y-80726190D02*
X140704819Y-80726190D01*
X140704819Y-80726190D02*
X140847676Y-80821428D01*
X140847676Y-80821428D02*
X140942914Y-80916666D01*
X140942914Y-80916666D02*
X140990533Y-81011904D01*
X140704819Y-80107142D02*
X140704819Y-79440476D01*
X140704819Y-79440476D02*
X141704819Y-79869047D01*
X137954819Y-81332857D02*
X137478628Y-81666190D01*
X137954819Y-81904285D02*
X136954819Y-81904285D01*
X136954819Y-81904285D02*
X136954819Y-81523333D01*
X136954819Y-81523333D02*
X137002438Y-81428095D01*
X137002438Y-81428095D02*
X137050057Y-81380476D01*
X137050057Y-81380476D02*
X137145295Y-81332857D01*
X137145295Y-81332857D02*
X137288152Y-81332857D01*
X137288152Y-81332857D02*
X137383390Y-81380476D01*
X137383390Y-81380476D02*
X137431009Y-81428095D01*
X137431009Y-81428095D02*
X137478628Y-81523333D01*
X137478628Y-81523333D02*
X137478628Y-81904285D01*
X137050057Y-80951904D02*
X137002438Y-80904285D01*
X137002438Y-80904285D02*
X136954819Y-80809047D01*
X136954819Y-80809047D02*
X136954819Y-80570952D01*
X136954819Y-80570952D02*
X137002438Y-80475714D01*
X137002438Y-80475714D02*
X137050057Y-80428095D01*
X137050057Y-80428095D02*
X137145295Y-80380476D01*
X137145295Y-80380476D02*
X137240533Y-80380476D01*
X137240533Y-80380476D02*
X137383390Y-80428095D01*
X137383390Y-80428095D02*
X137954819Y-80999523D01*
X137954819Y-80999523D02*
X137954819Y-80380476D01*
X137954819Y-79428095D02*
X137954819Y-79999523D01*
X137954819Y-79713809D02*
X136954819Y-79713809D01*
X136954819Y-79713809D02*
X137097676Y-79809047D01*
X137097676Y-79809047D02*
X137192914Y-79904285D01*
X137192914Y-79904285D02*
X137240533Y-79999523D01*
X148761905Y-76954819D02*
X148761905Y-75954819D01*
X148761905Y-75954819D02*
X149000000Y-75954819D01*
X149000000Y-75954819D02*
X149142857Y-76002438D01*
X149142857Y-76002438D02*
X149238095Y-76097676D01*
X149238095Y-76097676D02*
X149285714Y-76192914D01*
X149285714Y-76192914D02*
X149333333Y-76383390D01*
X149333333Y-76383390D02*
X149333333Y-76526247D01*
X149333333Y-76526247D02*
X149285714Y-76716723D01*
X149285714Y-76716723D02*
X149238095Y-76811961D01*
X149238095Y-76811961D02*
X149142857Y-76907200D01*
X149142857Y-76907200D02*
X149000000Y-76954819D01*
X149000000Y-76954819D02*
X148761905Y-76954819D01*
X150190476Y-76288152D02*
X150190476Y-76954819D01*
X149952381Y-75907200D02*
X149714286Y-76621485D01*
X149714286Y-76621485D02*
X150333333Y-76621485D01*
X143738095Y-76954819D02*
X143738095Y-75954819D01*
X144309523Y-76954819D02*
X143880952Y-76383390D01*
X144309523Y-75954819D02*
X143738095Y-76526247D01*
X129859580Y-61392857D02*
X129907200Y-61440476D01*
X129907200Y-61440476D02*
X129954819Y-61583333D01*
X129954819Y-61583333D02*
X129954819Y-61678571D01*
X129954819Y-61678571D02*
X129907200Y-61821428D01*
X129907200Y-61821428D02*
X129811961Y-61916666D01*
X129811961Y-61916666D02*
X129716723Y-61964285D01*
X129716723Y-61964285D02*
X129526247Y-62011904D01*
X129526247Y-62011904D02*
X129383390Y-62011904D01*
X129383390Y-62011904D02*
X129192914Y-61964285D01*
X129192914Y-61964285D02*
X129097676Y-61916666D01*
X129097676Y-61916666D02*
X129002438Y-61821428D01*
X129002438Y-61821428D02*
X128954819Y-61678571D01*
X128954819Y-61678571D02*
X128954819Y-61583333D01*
X128954819Y-61583333D02*
X129002438Y-61440476D01*
X129002438Y-61440476D02*
X129050057Y-61392857D01*
X129954819Y-60440476D02*
X129954819Y-61011904D01*
X129954819Y-60726190D02*
X128954819Y-60726190D01*
X128954819Y-60726190D02*
X129097676Y-60821428D01*
X129097676Y-60821428D02*
X129192914Y-60916666D01*
X129192914Y-60916666D02*
X129240533Y-61011904D01*
X128954819Y-59821428D02*
X128954819Y-59726190D01*
X128954819Y-59726190D02*
X129002438Y-59630952D01*
X129002438Y-59630952D02*
X129050057Y-59583333D01*
X129050057Y-59583333D02*
X129145295Y-59535714D01*
X129145295Y-59535714D02*
X129335771Y-59488095D01*
X129335771Y-59488095D02*
X129573866Y-59488095D01*
X129573866Y-59488095D02*
X129764342Y-59535714D01*
X129764342Y-59535714D02*
X129859580Y-59583333D01*
X129859580Y-59583333D02*
X129907200Y-59630952D01*
X129907200Y-59630952D02*
X129954819Y-59726190D01*
X129954819Y-59726190D02*
X129954819Y-59821428D01*
X129954819Y-59821428D02*
X129907200Y-59916666D01*
X129907200Y-59916666D02*
X129859580Y-59964285D01*
X129859580Y-59964285D02*
X129764342Y-60011904D01*
X129764342Y-60011904D02*
X129573866Y-60059523D01*
X129573866Y-60059523D02*
X129335771Y-60059523D01*
X129335771Y-60059523D02*
X129145295Y-60011904D01*
X129145295Y-60011904D02*
X129050057Y-59964285D01*
X129050057Y-59964285D02*
X129002438Y-59916666D01*
X129002438Y-59916666D02*
X128954819Y-59821428D01*
X169204819Y-60916666D02*
X168728628Y-61249999D01*
X169204819Y-61488094D02*
X168204819Y-61488094D01*
X168204819Y-61488094D02*
X168204819Y-61107142D01*
X168204819Y-61107142D02*
X168252438Y-61011904D01*
X168252438Y-61011904D02*
X168300057Y-60964285D01*
X168300057Y-60964285D02*
X168395295Y-60916666D01*
X168395295Y-60916666D02*
X168538152Y-60916666D01*
X168538152Y-60916666D02*
X168633390Y-60964285D01*
X168633390Y-60964285D02*
X168681009Y-61011904D01*
X168681009Y-61011904D02*
X168728628Y-61107142D01*
X168728628Y-61107142D02*
X168728628Y-61488094D01*
X168204819Y-60583332D02*
X168204819Y-59964285D01*
X168204819Y-59964285D02*
X168585771Y-60297618D01*
X168585771Y-60297618D02*
X168585771Y-60154761D01*
X168585771Y-60154761D02*
X168633390Y-60059523D01*
X168633390Y-60059523D02*
X168681009Y-60011904D01*
X168681009Y-60011904D02*
X168776247Y-59964285D01*
X168776247Y-59964285D02*
X169014342Y-59964285D01*
X169014342Y-59964285D02*
X169109580Y-60011904D01*
X169109580Y-60011904D02*
X169157200Y-60059523D01*
X169157200Y-60059523D02*
X169204819Y-60154761D01*
X169204819Y-60154761D02*
X169204819Y-60440475D01*
X169204819Y-60440475D02*
X169157200Y-60535713D01*
X169157200Y-60535713D02*
X169109580Y-60583332D01*
X161454819Y-59166666D02*
X160978628Y-59499999D01*
X161454819Y-59738094D02*
X160454819Y-59738094D01*
X160454819Y-59738094D02*
X160454819Y-59357142D01*
X160454819Y-59357142D02*
X160502438Y-59261904D01*
X160502438Y-59261904D02*
X160550057Y-59214285D01*
X160550057Y-59214285D02*
X160645295Y-59166666D01*
X160645295Y-59166666D02*
X160788152Y-59166666D01*
X160788152Y-59166666D02*
X160883390Y-59214285D01*
X160883390Y-59214285D02*
X160931009Y-59261904D01*
X160931009Y-59261904D02*
X160978628Y-59357142D01*
X160978628Y-59357142D02*
X160978628Y-59738094D01*
X160454819Y-58309523D02*
X160454819Y-58499999D01*
X160454819Y-58499999D02*
X160502438Y-58595237D01*
X160502438Y-58595237D02*
X160550057Y-58642856D01*
X160550057Y-58642856D02*
X160692914Y-58738094D01*
X160692914Y-58738094D02*
X160883390Y-58785713D01*
X160883390Y-58785713D02*
X161264342Y-58785713D01*
X161264342Y-58785713D02*
X161359580Y-58738094D01*
X161359580Y-58738094D02*
X161407200Y-58690475D01*
X161407200Y-58690475D02*
X161454819Y-58595237D01*
X161454819Y-58595237D02*
X161454819Y-58404761D01*
X161454819Y-58404761D02*
X161407200Y-58309523D01*
X161407200Y-58309523D02*
X161359580Y-58261904D01*
X161359580Y-58261904D02*
X161264342Y-58214285D01*
X161264342Y-58214285D02*
X161026247Y-58214285D01*
X161026247Y-58214285D02*
X160931009Y-58261904D01*
X160931009Y-58261904D02*
X160883390Y-58309523D01*
X160883390Y-58309523D02*
X160835771Y-58404761D01*
X160835771Y-58404761D02*
X160835771Y-58595237D01*
X160835771Y-58595237D02*
X160883390Y-58690475D01*
X160883390Y-58690475D02*
X160931009Y-58738094D01*
X160931009Y-58738094D02*
X161026247Y-58785713D01*
X130454819Y-81392857D02*
X129978628Y-81726190D01*
X130454819Y-81964285D02*
X129454819Y-81964285D01*
X129454819Y-81964285D02*
X129454819Y-81583333D01*
X129454819Y-81583333D02*
X129502438Y-81488095D01*
X129502438Y-81488095D02*
X129550057Y-81440476D01*
X129550057Y-81440476D02*
X129645295Y-81392857D01*
X129645295Y-81392857D02*
X129788152Y-81392857D01*
X129788152Y-81392857D02*
X129883390Y-81440476D01*
X129883390Y-81440476D02*
X129931009Y-81488095D01*
X129931009Y-81488095D02*
X129978628Y-81583333D01*
X129978628Y-81583333D02*
X129978628Y-81964285D01*
X129550057Y-81011904D02*
X129502438Y-80964285D01*
X129502438Y-80964285D02*
X129454819Y-80869047D01*
X129454819Y-80869047D02*
X129454819Y-80630952D01*
X129454819Y-80630952D02*
X129502438Y-80535714D01*
X129502438Y-80535714D02*
X129550057Y-80488095D01*
X129550057Y-80488095D02*
X129645295Y-80440476D01*
X129645295Y-80440476D02*
X129740533Y-80440476D01*
X129740533Y-80440476D02*
X129883390Y-80488095D01*
X129883390Y-80488095D02*
X130454819Y-81059523D01*
X130454819Y-81059523D02*
X130454819Y-80440476D01*
X129550057Y-80059523D02*
X129502438Y-80011904D01*
X129502438Y-80011904D02*
X129454819Y-79916666D01*
X129454819Y-79916666D02*
X129454819Y-79678571D01*
X129454819Y-79678571D02*
X129502438Y-79583333D01*
X129502438Y-79583333D02*
X129550057Y-79535714D01*
X129550057Y-79535714D02*
X129645295Y-79488095D01*
X129645295Y-79488095D02*
X129740533Y-79488095D01*
X129740533Y-79488095D02*
X129883390Y-79535714D01*
X129883390Y-79535714D02*
X130454819Y-80107142D01*
X130454819Y-80107142D02*
X130454819Y-79488095D01*
X124583333Y-73109580D02*
X124535714Y-73157200D01*
X124535714Y-73157200D02*
X124392857Y-73204819D01*
X124392857Y-73204819D02*
X124297619Y-73204819D01*
X124297619Y-73204819D02*
X124154762Y-73157200D01*
X124154762Y-73157200D02*
X124059524Y-73061961D01*
X124059524Y-73061961D02*
X124011905Y-72966723D01*
X124011905Y-72966723D02*
X123964286Y-72776247D01*
X123964286Y-72776247D02*
X123964286Y-72633390D01*
X123964286Y-72633390D02*
X124011905Y-72442914D01*
X124011905Y-72442914D02*
X124059524Y-72347676D01*
X124059524Y-72347676D02*
X124154762Y-72252438D01*
X124154762Y-72252438D02*
X124297619Y-72204819D01*
X124297619Y-72204819D02*
X124392857Y-72204819D01*
X124392857Y-72204819D02*
X124535714Y-72252438D01*
X124535714Y-72252438D02*
X124583333Y-72300057D01*
X125535714Y-73204819D02*
X124964286Y-73204819D01*
X125250000Y-73204819D02*
X125250000Y-72204819D01*
X125250000Y-72204819D02*
X125154762Y-72347676D01*
X125154762Y-72347676D02*
X125059524Y-72442914D01*
X125059524Y-72442914D02*
X124964286Y-72490533D01*
X134109580Y-68642857D02*
X134157200Y-68690476D01*
X134157200Y-68690476D02*
X134204819Y-68833333D01*
X134204819Y-68833333D02*
X134204819Y-68928571D01*
X134204819Y-68928571D02*
X134157200Y-69071428D01*
X134157200Y-69071428D02*
X134061961Y-69166666D01*
X134061961Y-69166666D02*
X133966723Y-69214285D01*
X133966723Y-69214285D02*
X133776247Y-69261904D01*
X133776247Y-69261904D02*
X133633390Y-69261904D01*
X133633390Y-69261904D02*
X133442914Y-69214285D01*
X133442914Y-69214285D02*
X133347676Y-69166666D01*
X133347676Y-69166666D02*
X133252438Y-69071428D01*
X133252438Y-69071428D02*
X133204819Y-68928571D01*
X133204819Y-68928571D02*
X133204819Y-68833333D01*
X133204819Y-68833333D02*
X133252438Y-68690476D01*
X133252438Y-68690476D02*
X133300057Y-68642857D01*
X134204819Y-67690476D02*
X134204819Y-68261904D01*
X134204819Y-67976190D02*
X133204819Y-67976190D01*
X133204819Y-67976190D02*
X133347676Y-68071428D01*
X133347676Y-68071428D02*
X133442914Y-68166666D01*
X133442914Y-68166666D02*
X133490533Y-68261904D01*
X133300057Y-67309523D02*
X133252438Y-67261904D01*
X133252438Y-67261904D02*
X133204819Y-67166666D01*
X133204819Y-67166666D02*
X133204819Y-66928571D01*
X133204819Y-66928571D02*
X133252438Y-66833333D01*
X133252438Y-66833333D02*
X133300057Y-66785714D01*
X133300057Y-66785714D02*
X133395295Y-66738095D01*
X133395295Y-66738095D02*
X133490533Y-66738095D01*
X133490533Y-66738095D02*
X133633390Y-66785714D01*
X133633390Y-66785714D02*
X134204819Y-67357142D01*
X134204819Y-67357142D02*
X134204819Y-66738095D01*
X158083333Y-75359580D02*
X158035714Y-75407200D01*
X158035714Y-75407200D02*
X157892857Y-75454819D01*
X157892857Y-75454819D02*
X157797619Y-75454819D01*
X157797619Y-75454819D02*
X157654762Y-75407200D01*
X157654762Y-75407200D02*
X157559524Y-75311961D01*
X157559524Y-75311961D02*
X157511905Y-75216723D01*
X157511905Y-75216723D02*
X157464286Y-75026247D01*
X157464286Y-75026247D02*
X157464286Y-74883390D01*
X157464286Y-74883390D02*
X157511905Y-74692914D01*
X157511905Y-74692914D02*
X157559524Y-74597676D01*
X157559524Y-74597676D02*
X157654762Y-74502438D01*
X157654762Y-74502438D02*
X157797619Y-74454819D01*
X157797619Y-74454819D02*
X157892857Y-74454819D01*
X157892857Y-74454819D02*
X158035714Y-74502438D01*
X158035714Y-74502438D02*
X158083333Y-74550057D01*
X158416667Y-74454819D02*
X159083333Y-74454819D01*
X159083333Y-74454819D02*
X158654762Y-75454819D01*
X172454819Y-60916666D02*
X171978628Y-61249999D01*
X172454819Y-61488094D02*
X171454819Y-61488094D01*
X171454819Y-61488094D02*
X171454819Y-61107142D01*
X171454819Y-61107142D02*
X171502438Y-61011904D01*
X171502438Y-61011904D02*
X171550057Y-60964285D01*
X171550057Y-60964285D02*
X171645295Y-60916666D01*
X171645295Y-60916666D02*
X171788152Y-60916666D01*
X171788152Y-60916666D02*
X171883390Y-60964285D01*
X171883390Y-60964285D02*
X171931009Y-61011904D01*
X171931009Y-61011904D02*
X171978628Y-61107142D01*
X171978628Y-61107142D02*
X171978628Y-61488094D01*
X171788152Y-60059523D02*
X172454819Y-60059523D01*
X171407200Y-60297618D02*
X172121485Y-60535713D01*
X172121485Y-60535713D02*
X172121485Y-59916666D01*
X156359580Y-58166666D02*
X156407200Y-58214285D01*
X156407200Y-58214285D02*
X156454819Y-58357142D01*
X156454819Y-58357142D02*
X156454819Y-58452380D01*
X156454819Y-58452380D02*
X156407200Y-58595237D01*
X156407200Y-58595237D02*
X156311961Y-58690475D01*
X156311961Y-58690475D02*
X156216723Y-58738094D01*
X156216723Y-58738094D02*
X156026247Y-58785713D01*
X156026247Y-58785713D02*
X155883390Y-58785713D01*
X155883390Y-58785713D02*
X155692914Y-58738094D01*
X155692914Y-58738094D02*
X155597676Y-58690475D01*
X155597676Y-58690475D02*
X155502438Y-58595237D01*
X155502438Y-58595237D02*
X155454819Y-58452380D01*
X155454819Y-58452380D02*
X155454819Y-58357142D01*
X155454819Y-58357142D02*
X155502438Y-58214285D01*
X155502438Y-58214285D02*
X155550057Y-58166666D01*
X155454819Y-57833332D02*
X155454819Y-57214285D01*
X155454819Y-57214285D02*
X155835771Y-57547618D01*
X155835771Y-57547618D02*
X155835771Y-57404761D01*
X155835771Y-57404761D02*
X155883390Y-57309523D01*
X155883390Y-57309523D02*
X155931009Y-57261904D01*
X155931009Y-57261904D02*
X156026247Y-57214285D01*
X156026247Y-57214285D02*
X156264342Y-57214285D01*
X156264342Y-57214285D02*
X156359580Y-57261904D01*
X156359580Y-57261904D02*
X156407200Y-57309523D01*
X156407200Y-57309523D02*
X156454819Y-57404761D01*
X156454819Y-57404761D02*
X156454819Y-57690475D01*
X156454819Y-57690475D02*
X156407200Y-57785713D01*
X156407200Y-57785713D02*
X156359580Y-57833332D01*
D12*
%TO.C,GND4*%
X129170000Y-86920000D02*
X130500000Y-86920000D01*
X129170000Y-88250000D02*
X129170000Y-86920000D01*
X129170000Y-89520000D02*
X129170000Y-89580000D01*
X129170000Y-89520000D02*
X131830000Y-89520000D01*
X129170000Y-89580000D02*
X131830000Y-89580000D01*
X131830000Y-89520000D02*
X131830000Y-89580000D01*
%TO.C,+9V1*%
X145830000Y-27270000D02*
X145830000Y-27330000D01*
X143170000Y-27330000D02*
X145830000Y-27330000D01*
X143170000Y-27270000D02*
X145830000Y-27270000D01*
X143170000Y-27270000D02*
X143170000Y-27330000D01*
X143170000Y-26000000D02*
X143170000Y-24670000D01*
X143170000Y-24670000D02*
X144500000Y-24670000D01*
%TO.C,D3*%
X151710000Y-79750000D02*
X151060000Y-79750000D01*
X151060000Y-80870000D02*
X151060000Y-78630000D01*
X151060000Y-78630000D02*
X146820000Y-78630000D01*
X150460000Y-80870000D02*
X150460000Y-78630000D01*
X150340000Y-80870000D02*
X150340000Y-78630000D01*
X150220000Y-80870000D02*
X150220000Y-78630000D01*
X146820000Y-80870000D02*
X151060000Y-80870000D01*
X146820000Y-78630000D02*
X146820000Y-80870000D01*
X146170000Y-79750000D02*
X146820000Y-79750000D01*
%TO.C,+9V2*%
X154420000Y-66170000D02*
X155750000Y-66170000D01*
X154420000Y-67500000D02*
X154420000Y-66170000D01*
X154420000Y-68770000D02*
X154420000Y-68830000D01*
X154420000Y-68770000D02*
X157080000Y-68770000D01*
X154420000Y-68830000D02*
X157080000Y-68830000D01*
X157080000Y-68770000D02*
X157080000Y-68830000D01*
%TO.C,R16*%
X170960000Y-81380000D02*
X170960000Y-81710000D01*
X164420000Y-81380000D02*
X170960000Y-81380000D01*
X164420000Y-81710000D02*
X164420000Y-81380000D01*
X164420000Y-83790000D02*
X164420000Y-84120000D01*
X170960000Y-84120000D02*
X170960000Y-83790000D01*
X164420000Y-84120000D02*
X170960000Y-84120000D01*
%TO.C,R23*%
X132880000Y-49980000D02*
X132880000Y-56520000D01*
X132880000Y-56520000D02*
X133210000Y-56520000D01*
X133210000Y-49980000D02*
X132880000Y-49980000D01*
X135290000Y-49980000D02*
X135620000Y-49980000D01*
X135620000Y-49980000D02*
X135620000Y-56520000D01*
X135620000Y-56520000D02*
X135290000Y-56520000D01*
%TO.C,C8*%
X147880000Y-56630000D02*
X147880000Y-63870000D01*
X150120000Y-56630000D02*
X147880000Y-56630000D01*
X150120000Y-56630000D02*
X150120000Y-63870000D01*
X150120000Y-63870000D02*
X147880000Y-63870000D01*
%TO.C,OUT1*%
X171670000Y-68920000D02*
X173000000Y-68920000D01*
X171670000Y-70250000D02*
X171670000Y-68920000D01*
X171670000Y-71520000D02*
X171670000Y-71580000D01*
X171670000Y-71520000D02*
X174330000Y-71520000D01*
X171670000Y-71580000D02*
X174330000Y-71580000D01*
X174330000Y-71520000D02*
X174330000Y-71580000D01*
%TO.C,R2*%
X121130000Y-77230000D02*
X121130000Y-83770000D01*
X121130000Y-83770000D02*
X121460000Y-83770000D01*
X121460000Y-77230000D02*
X121130000Y-77230000D01*
X123540000Y-77230000D02*
X123870000Y-77230000D01*
X123870000Y-77230000D02*
X123870000Y-83770000D01*
X123870000Y-83770000D02*
X123540000Y-83770000D01*
%TO.C,Q1*%
X168300000Y-49130000D02*
X164700000Y-49130000D01*
X166500000Y-53580000D02*
G75*
G02*
X164661522Y-49141522I0J2600000D01*
G01*
X168338478Y-49141522D02*
G75*
G02*
X166500000Y-53580001I-1838478J-1838478D01*
G01*
%TO.C,C5*%
X137130000Y-48630000D02*
X139370000Y-48630000D01*
X137130000Y-55870000D02*
X137130000Y-48630000D01*
X137130000Y-55870000D02*
X139370000Y-55870000D01*
X139370000Y-55870000D02*
X139370000Y-48630000D01*
%TO.C,R5*%
X141130000Y-57730000D02*
X141460000Y-57730000D01*
X141130000Y-64270000D02*
X141130000Y-57730000D01*
X141460000Y-64270000D02*
X141130000Y-64270000D01*
X143540000Y-64270000D02*
X143870000Y-64270000D01*
X143870000Y-57730000D02*
X143540000Y-57730000D01*
X143870000Y-64270000D02*
X143870000Y-57730000D01*
%TO.C,R11*%
X168130000Y-67920000D02*
X168130000Y-74460000D01*
X168130000Y-74460000D02*
X168460000Y-74460000D01*
X168460000Y-67920000D02*
X168130000Y-67920000D01*
X170540000Y-67920000D02*
X170870000Y-67920000D01*
X170870000Y-67920000D02*
X170870000Y-74460000D01*
X170870000Y-74460000D02*
X170540000Y-74460000D01*
%TO.C,R8*%
X151130000Y-57230000D02*
X151130000Y-63770000D01*
X151130000Y-63770000D02*
X151460000Y-63770000D01*
X151460000Y-57230000D02*
X151130000Y-57230000D01*
X153540000Y-57230000D02*
X153870000Y-57230000D01*
X153870000Y-57230000D02*
X153870000Y-63770000D01*
X153870000Y-63770000D02*
X153540000Y-63770000D01*
%TO.C,Sustain1*%
X122550000Y-46330000D02*
X122550000Y-45000000D01*
X123880000Y-46330000D02*
X122550000Y-46330000D01*
X125150000Y-43670000D02*
X135370000Y-43670000D01*
X125150000Y-46330000D02*
X125150000Y-43670000D01*
X125150000Y-46330000D02*
X135370000Y-46330000D01*
X135370000Y-46330000D02*
X135370000Y-43670000D01*
%TO.C,R12*%
X148980000Y-85630000D02*
X148980000Y-85960000D01*
X148980000Y-88370000D02*
X148980000Y-88040000D01*
X155520000Y-85630000D02*
X148980000Y-85630000D01*
X155520000Y-85960000D02*
X155520000Y-85630000D01*
X155520000Y-88040000D02*
X155520000Y-88370000D01*
X155520000Y-88370000D02*
X148980000Y-88370000D01*
%TO.C,Q3*%
X136680000Y-72100000D02*
X140280000Y-72100000D01*
X136641522Y-72088478D02*
G75*
G02*
X138480000Y-67649999I1838478J1838478D01*
G01*
X138480000Y-67650000D02*
G75*
G02*
X140318478Y-72088478I0J-2600000D01*
G01*
%TO.C,C6*%
X145770000Y-69670000D02*
X152230000Y-69670000D01*
X145770000Y-69710000D02*
X152230000Y-69710000D01*
X145770000Y-69750000D02*
X152230000Y-69750000D01*
X145772000Y-69630000D02*
X152228000Y-69630000D01*
X145773000Y-69590000D02*
X152227000Y-69590000D01*
X145776000Y-69550000D02*
X152224000Y-69550000D01*
X145778000Y-69510000D02*
X147960000Y-69510000D01*
X145782000Y-69470000D02*
X147960000Y-69470000D01*
X145785000Y-69430000D02*
X147960000Y-69430000D01*
X145789000Y-69390000D02*
X147960000Y-69390000D01*
X145794000Y-69350000D02*
X147960000Y-69350000D01*
X145799000Y-69310000D02*
X147960000Y-69310000D01*
X145805000Y-69270000D02*
X147960000Y-69270000D01*
X145811000Y-69230000D02*
X147960000Y-69230000D01*
X145818000Y-69190000D02*
X147960000Y-69190000D01*
X145825000Y-69150000D02*
X147960000Y-69150000D01*
X145833000Y-69110000D02*
X147960000Y-69110000D01*
X145841000Y-69070000D02*
X147960000Y-69070000D01*
X145850000Y-69029000D02*
X147960000Y-69029000D01*
X145859000Y-68989000D02*
X147960000Y-68989000D01*
X145869000Y-68949000D02*
X147960000Y-68949000D01*
X145879000Y-68909000D02*
X147960000Y-68909000D01*
X145890000Y-68869000D02*
X147960000Y-68869000D01*
X145902000Y-68829000D02*
X147960000Y-68829000D01*
X145914000Y-68789000D02*
X147960000Y-68789000D01*
X145926000Y-68749000D02*
X147960000Y-68749000D01*
X145939000Y-68709000D02*
X147960000Y-68709000D01*
X145953000Y-68669000D02*
X147960000Y-68669000D01*
X145967000Y-68629000D02*
X147960000Y-68629000D01*
X145982000Y-68589000D02*
X147960000Y-68589000D01*
X145998000Y-68549000D02*
X147960000Y-68549000D01*
X146014000Y-68509000D02*
X147960000Y-68509000D01*
X146030000Y-68469000D02*
X147960000Y-68469000D01*
X146048000Y-68429000D02*
X147960000Y-68429000D01*
X146066000Y-68389000D02*
X147960000Y-68389000D01*
X146084000Y-68349000D02*
X147960000Y-68349000D01*
X146104000Y-68309000D02*
X147960000Y-68309000D01*
X146124000Y-68269000D02*
X147960000Y-68269000D01*
X146144000Y-68229000D02*
X147960000Y-68229000D01*
X146166000Y-68189000D02*
X147960000Y-68189000D01*
X146188000Y-68149000D02*
X147960000Y-68149000D01*
X146210000Y-68109000D02*
X147960000Y-68109000D01*
X146234000Y-68069000D02*
X147960000Y-68069000D01*
X146258000Y-68029000D02*
X147960000Y-68029000D01*
X146284000Y-67989000D02*
X147960000Y-67989000D01*
X146310000Y-67949000D02*
X147960000Y-67949000D01*
X146336000Y-67909000D02*
X147960000Y-67909000D01*
X146364000Y-67869000D02*
X147960000Y-67869000D01*
X146393000Y-67829000D02*
X147960000Y-67829000D01*
X146422000Y-67789000D02*
X147960000Y-67789000D01*
X146452000Y-67749000D02*
X147960000Y-67749000D01*
X146484000Y-67709000D02*
X147960000Y-67709000D01*
X146516000Y-67669000D02*
X147960000Y-67669000D01*
X146550000Y-67629000D02*
X147960000Y-67629000D01*
X146584000Y-67589000D02*
X147960000Y-67589000D01*
X146620000Y-67549000D02*
X147960000Y-67549000D01*
X146657000Y-67509000D02*
X147960000Y-67509000D01*
X146695000Y-67469000D02*
X147960000Y-67469000D01*
X146735000Y-67429000D02*
X151265000Y-67429000D01*
X146776000Y-67389000D02*
X151224000Y-67389000D01*
X146818000Y-67349000D02*
X151182000Y-67349000D01*
X146846000Y-72935241D02*
X147476000Y-72935241D01*
X146863000Y-67309000D02*
X151137000Y-67309000D01*
X146908000Y-67269000D02*
X151092000Y-67269000D01*
X146956000Y-67229000D02*
X151044000Y-67229000D01*
X147005000Y-67189000D02*
X150995000Y-67189000D01*
X147056000Y-67149000D02*
X150944000Y-67149000D01*
X147110000Y-67109000D02*
X150890000Y-67109000D01*
X147161000Y-73250241D02*
X147161000Y-72620241D01*
X147166000Y-67069000D02*
X150834000Y-67069000D01*
X147224000Y-67029000D02*
X150776000Y-67029000D01*
X147286000Y-66989000D02*
X150714000Y-66989000D01*
X147350000Y-66949000D02*
X150650000Y-66949000D01*
X147419000Y-66909000D02*
X150581000Y-66909000D01*
X147491000Y-66869000D02*
X150509000Y-66869000D01*
X147568000Y-66829000D02*
X150432000Y-66829000D01*
X147650000Y-66789000D02*
X150350000Y-66789000D01*
X147738000Y-66749000D02*
X150262000Y-66749000D01*
X147835000Y-66709000D02*
X150165000Y-66709000D01*
X147941000Y-66669000D02*
X150059000Y-66669000D01*
X148060000Y-66629000D02*
X149940000Y-66629000D01*
X148198000Y-66589000D02*
X149802000Y-66589000D01*
X148367000Y-66549000D02*
X149633000Y-66549000D01*
X148598000Y-66509000D02*
X149402000Y-66509000D01*
X150040000Y-67469000D02*
X151305000Y-67469000D01*
X150040000Y-67509000D02*
X151343000Y-67509000D01*
X150040000Y-67549000D02*
X151380000Y-67549000D01*
X150040000Y-67589000D02*
X151416000Y-67589000D01*
X150040000Y-67629000D02*
X151450000Y-67629000D01*
X150040000Y-67669000D02*
X151484000Y-67669000D01*
X150040000Y-67709000D02*
X151516000Y-67709000D01*
X150040000Y-67749000D02*
X151548000Y-67749000D01*
X150040000Y-67789000D02*
X151578000Y-67789000D01*
X150040000Y-67829000D02*
X151607000Y-67829000D01*
X150040000Y-67869000D02*
X151636000Y-67869000D01*
X150040000Y-67909000D02*
X151664000Y-67909000D01*
X150040000Y-67949000D02*
X151690000Y-67949000D01*
X150040000Y-67989000D02*
X151716000Y-67989000D01*
X150040000Y-68029000D02*
X151742000Y-68029000D01*
X150040000Y-68069000D02*
X151766000Y-68069000D01*
X150040000Y-68109000D02*
X151790000Y-68109000D01*
X150040000Y-68149000D02*
X151812000Y-68149000D01*
X150040000Y-68189000D02*
X151834000Y-68189000D01*
X150040000Y-68229000D02*
X151856000Y-68229000D01*
X150040000Y-68269000D02*
X151876000Y-68269000D01*
X150040000Y-68309000D02*
X151896000Y-68309000D01*
X150040000Y-68349000D02*
X151916000Y-68349000D01*
X150040000Y-68389000D02*
X151934000Y-68389000D01*
X150040000Y-68429000D02*
X151952000Y-68429000D01*
X150040000Y-68469000D02*
X151970000Y-68469000D01*
X150040000Y-68509000D02*
X151986000Y-68509000D01*
X150040000Y-68549000D02*
X152002000Y-68549000D01*
X150040000Y-68589000D02*
X152018000Y-68589000D01*
X150040000Y-68629000D02*
X152033000Y-68629000D01*
X150040000Y-68669000D02*
X152047000Y-68669000D01*
X150040000Y-68709000D02*
X152061000Y-68709000D01*
X150040000Y-68749000D02*
X152074000Y-68749000D01*
X150040000Y-68789000D02*
X152086000Y-68789000D01*
X150040000Y-68829000D02*
X152098000Y-68829000D01*
X150040000Y-68869000D02*
X152110000Y-68869000D01*
X150040000Y-68909000D02*
X152121000Y-68909000D01*
X150040000Y-68949000D02*
X152131000Y-68949000D01*
X150040000Y-68989000D02*
X152141000Y-68989000D01*
X150040000Y-69029000D02*
X152150000Y-69029000D01*
X150040000Y-69070000D02*
X152159000Y-69070000D01*
X150040000Y-69110000D02*
X152167000Y-69110000D01*
X150040000Y-69150000D02*
X152175000Y-69150000D01*
X150040000Y-69190000D02*
X152182000Y-69190000D01*
X150040000Y-69230000D02*
X152189000Y-69230000D01*
X150040000Y-69270000D02*
X152195000Y-69270000D01*
X150040000Y-69310000D02*
X152201000Y-69310000D01*
X150040000Y-69350000D02*
X152206000Y-69350000D01*
X150040000Y-69390000D02*
X152211000Y-69390000D01*
X150040000Y-69430000D02*
X152215000Y-69430000D01*
X150040000Y-69470000D02*
X152218000Y-69470000D01*
X150040000Y-69510000D02*
X152222000Y-69510000D01*
X152270000Y-69750000D02*
G75*
G02*
X145730000Y-69750000I-3270000J0D01*
G01*
X145730000Y-69750000D02*
G75*
G02*
X152270000Y-69750000I3270000J0D01*
G01*
%TO.C,R13*%
X124630000Y-58540000D02*
X124960000Y-58540000D01*
X124630000Y-65080000D02*
X124630000Y-58540000D01*
X124960000Y-65080000D02*
X124630000Y-65080000D01*
X127040000Y-65080000D02*
X127370000Y-65080000D01*
X127370000Y-58540000D02*
X127040000Y-58540000D01*
X127370000Y-65080000D02*
X127370000Y-58540000D01*
%TO.C,D2*%
X161630000Y-69130000D02*
X161630000Y-73370000D01*
X161630000Y-72530000D02*
X163870000Y-72530000D01*
X161630000Y-72650000D02*
X163870000Y-72650000D01*
X161630000Y-72770000D02*
X163870000Y-72770000D01*
X161630000Y-73370000D02*
X163870000Y-73370000D01*
X162750000Y-68480000D02*
X162750000Y-69130000D01*
X162750000Y-74020000D02*
X162750000Y-73370000D01*
X163870000Y-69130000D02*
X161630000Y-69130000D01*
X163870000Y-73370000D02*
X163870000Y-69130000D01*
%TO.C,R18*%
X145670000Y-81630000D02*
X145670000Y-81960000D01*
X145670000Y-84370000D02*
X145670000Y-84040000D01*
X152210000Y-81630000D02*
X145670000Y-81630000D01*
X152210000Y-81960000D02*
X152210000Y-81630000D01*
X152210000Y-84040000D02*
X152210000Y-84370000D01*
X152210000Y-84370000D02*
X145670000Y-84370000D01*
%TO.C,C9*%
X144880000Y-56630000D02*
X144880000Y-63870000D01*
X147120000Y-56630000D02*
X144880000Y-56630000D01*
X147120000Y-56630000D02*
X147120000Y-63870000D01*
X147120000Y-63870000D02*
X144880000Y-63870000D01*
%TO.C,R15*%
X164230000Y-80120000D02*
X164230000Y-79790000D01*
X170770000Y-80120000D02*
X164230000Y-80120000D01*
X170770000Y-79790000D02*
X170770000Y-80120000D01*
X170770000Y-77710000D02*
X170770000Y-77380000D01*
X164230000Y-77380000D02*
X164230000Y-77710000D01*
X170770000Y-77380000D02*
X164230000Y-77380000D01*
%TO.C,C14*%
X149161000Y-27432621D02*
X149161000Y-26802621D01*
X148846000Y-27117621D02*
X149476000Y-27117621D01*
X147770000Y-23932380D02*
X154230000Y-23932380D01*
X147770000Y-23892380D02*
X154230000Y-23892380D01*
X147770000Y-23852380D02*
X154230000Y-23852380D01*
X147772000Y-23812380D02*
X154228000Y-23812380D01*
X147773000Y-23772380D02*
X154227000Y-23772380D01*
X147776000Y-23732380D02*
X154224000Y-23732380D01*
X147778000Y-23692380D02*
X149960000Y-23692380D01*
X152040000Y-23692380D02*
X154222000Y-23692380D01*
X147782000Y-23652380D02*
X149960000Y-23652380D01*
X152040000Y-23652380D02*
X154218000Y-23652380D01*
X147785000Y-23612380D02*
X149960000Y-23612380D01*
X152040000Y-23612380D02*
X154215000Y-23612380D01*
X147789000Y-23572380D02*
X149960000Y-23572380D01*
X152040000Y-23572380D02*
X154211000Y-23572380D01*
X147794000Y-23532380D02*
X149960000Y-23532380D01*
X152040000Y-23532380D02*
X154206000Y-23532380D01*
X147799000Y-23492380D02*
X149960000Y-23492380D01*
X152040000Y-23492380D02*
X154201000Y-23492380D01*
X147805000Y-23452380D02*
X149960000Y-23452380D01*
X152040000Y-23452380D02*
X154195000Y-23452380D01*
X147811000Y-23412380D02*
X149960000Y-23412380D01*
X152040000Y-23412380D02*
X154189000Y-23412380D01*
X147818000Y-23372380D02*
X149960000Y-23372380D01*
X152040000Y-23372380D02*
X154182000Y-23372380D01*
X147825000Y-23332380D02*
X149960000Y-23332380D01*
X152040000Y-23332380D02*
X154175000Y-23332380D01*
X147833000Y-23292380D02*
X149960000Y-23292380D01*
X152040000Y-23292380D02*
X154167000Y-23292380D01*
X147841000Y-23252380D02*
X149960000Y-23252380D01*
X152040000Y-23252380D02*
X154159000Y-23252380D01*
X147850000Y-23211380D02*
X149960000Y-23211380D01*
X152040000Y-23211380D02*
X154150000Y-23211380D01*
X147859000Y-23171380D02*
X149960000Y-23171380D01*
X152040000Y-23171380D02*
X154141000Y-23171380D01*
X147869000Y-23131380D02*
X149960000Y-23131380D01*
X152040000Y-23131380D02*
X154131000Y-23131380D01*
X147879000Y-23091380D02*
X149960000Y-23091380D01*
X152040000Y-23091380D02*
X154121000Y-23091380D01*
X147890000Y-23051380D02*
X149960000Y-23051380D01*
X152040000Y-23051380D02*
X154110000Y-23051380D01*
X147902000Y-23011380D02*
X149960000Y-23011380D01*
X152040000Y-23011380D02*
X154098000Y-23011380D01*
X147914000Y-22971380D02*
X149960000Y-22971380D01*
X152040000Y-22971380D02*
X154086000Y-22971380D01*
X147926000Y-22931380D02*
X149960000Y-22931380D01*
X152040000Y-22931380D02*
X154074000Y-22931380D01*
X147939000Y-22891380D02*
X149960000Y-22891380D01*
X152040000Y-22891380D02*
X154061000Y-22891380D01*
X147953000Y-22851380D02*
X149960000Y-22851380D01*
X152040000Y-22851380D02*
X154047000Y-22851380D01*
X147967000Y-22811380D02*
X149960000Y-22811380D01*
X152040000Y-22811380D02*
X154033000Y-22811380D01*
X147982000Y-22771380D02*
X149960000Y-22771380D01*
X152040000Y-22771380D02*
X154018000Y-22771380D01*
X147998000Y-22731380D02*
X149960000Y-22731380D01*
X152040000Y-22731380D02*
X154002000Y-22731380D01*
X148014000Y-22691380D02*
X149960000Y-22691380D01*
X152040000Y-22691380D02*
X153986000Y-22691380D01*
X148030000Y-22651380D02*
X149960000Y-22651380D01*
X152040000Y-22651380D02*
X153970000Y-22651380D01*
X148048000Y-22611380D02*
X149960000Y-22611380D01*
X152040000Y-22611380D02*
X153952000Y-22611380D01*
X148066000Y-22571380D02*
X149960000Y-22571380D01*
X152040000Y-22571380D02*
X153934000Y-22571380D01*
X148084000Y-22531380D02*
X149960000Y-22531380D01*
X152040000Y-22531380D02*
X153916000Y-22531380D01*
X148104000Y-22491380D02*
X149960000Y-22491380D01*
X152040000Y-22491380D02*
X153896000Y-22491380D01*
X148124000Y-22451380D02*
X149960000Y-22451380D01*
X152040000Y-22451380D02*
X153876000Y-22451380D01*
X148144000Y-22411380D02*
X149960000Y-22411380D01*
X152040000Y-22411380D02*
X153856000Y-22411380D01*
X148166000Y-22371380D02*
X149960000Y-22371380D01*
X152040000Y-22371380D02*
X153834000Y-22371380D01*
X148188000Y-22331380D02*
X149960000Y-22331380D01*
X152040000Y-22331380D02*
X153812000Y-22331380D01*
X148210000Y-22291380D02*
X149960000Y-22291380D01*
X152040000Y-22291380D02*
X153790000Y-22291380D01*
X148234000Y-22251380D02*
X149960000Y-22251380D01*
X152040000Y-22251380D02*
X153766000Y-22251380D01*
X148258000Y-22211380D02*
X149960000Y-22211380D01*
X152040000Y-22211380D02*
X153742000Y-22211380D01*
X148284000Y-22171380D02*
X149960000Y-22171380D01*
X152040000Y-22171380D02*
X153716000Y-22171380D01*
X148310000Y-22131380D02*
X149960000Y-22131380D01*
X152040000Y-22131380D02*
X153690000Y-22131380D01*
X148336000Y-22091380D02*
X149960000Y-22091380D01*
X152040000Y-22091380D02*
X153664000Y-22091380D01*
X148364000Y-22051380D02*
X149960000Y-22051380D01*
X152040000Y-22051380D02*
X153636000Y-22051380D01*
X148393000Y-22011380D02*
X149960000Y-22011380D01*
X152040000Y-22011380D02*
X153607000Y-22011380D01*
X148422000Y-21971380D02*
X149960000Y-21971380D01*
X152040000Y-21971380D02*
X153578000Y-21971380D01*
X148452000Y-21931380D02*
X149960000Y-21931380D01*
X152040000Y-21931380D02*
X153548000Y-21931380D01*
X148484000Y-21891380D02*
X149960000Y-21891380D01*
X152040000Y-21891380D02*
X153516000Y-21891380D01*
X148516000Y-21851380D02*
X149960000Y-21851380D01*
X152040000Y-21851380D02*
X153484000Y-21851380D01*
X148550000Y-21811380D02*
X149960000Y-21811380D01*
X152040000Y-21811380D02*
X153450000Y-21811380D01*
X148584000Y-21771380D02*
X149960000Y-21771380D01*
X152040000Y-21771380D02*
X153416000Y-21771380D01*
X148620000Y-21731380D02*
X149960000Y-21731380D01*
X152040000Y-21731380D02*
X153380000Y-21731380D01*
X148657000Y-21691380D02*
X149960000Y-21691380D01*
X152040000Y-21691380D02*
X153343000Y-21691380D01*
X148695000Y-21651380D02*
X149960000Y-21651380D01*
X152040000Y-21651380D02*
X153305000Y-21651380D01*
X148735000Y-21611380D02*
X153265000Y-21611380D01*
X148776000Y-21571380D02*
X153224000Y-21571380D01*
X148818000Y-21531380D02*
X153182000Y-21531380D01*
X148863000Y-21491380D02*
X153137000Y-21491380D01*
X148908000Y-21451380D02*
X153092000Y-21451380D01*
X148956000Y-21411380D02*
X153044000Y-21411380D01*
X149005000Y-21371380D02*
X152995000Y-21371380D01*
X149056000Y-21331380D02*
X152944000Y-21331380D01*
X149110000Y-21291380D02*
X152890000Y-21291380D01*
X149166000Y-21251380D02*
X152834000Y-21251380D01*
X149224000Y-21211380D02*
X152776000Y-21211380D01*
X149286000Y-21171380D02*
X152714000Y-21171380D01*
X149350000Y-21131380D02*
X152650000Y-21131380D01*
X149419000Y-21091380D02*
X152581000Y-21091380D01*
X149491000Y-21051380D02*
X152509000Y-21051380D01*
X149568000Y-21011380D02*
X152432000Y-21011380D01*
X149650000Y-20971380D02*
X152350000Y-20971380D01*
X149738000Y-20931380D02*
X152262000Y-20931380D01*
X149835000Y-20891380D02*
X152165000Y-20891380D01*
X149941000Y-20851380D02*
X152059000Y-20851380D01*
X150060000Y-20811380D02*
X151940000Y-20811380D01*
X150198000Y-20771380D02*
X151802000Y-20771380D01*
X150367000Y-20731380D02*
X151633000Y-20731380D01*
X150598000Y-20691380D02*
X151402000Y-20691380D01*
X154270000Y-23932380D02*
G75*
G02*
X147730000Y-23932380I-3270000J0D01*
G01*
X147730000Y-23932380D02*
G75*
G02*
X154270000Y-23932380I3270000J0D01*
G01*
%TO.C,R19*%
X136880000Y-58480000D02*
X137210000Y-58480000D01*
X136880000Y-65020000D02*
X136880000Y-58480000D01*
X137210000Y-65020000D02*
X136880000Y-65020000D01*
X139290000Y-65020000D02*
X139620000Y-65020000D01*
X139620000Y-58480000D02*
X139290000Y-58480000D01*
X139620000Y-65020000D02*
X139620000Y-58480000D01*
%TO.C,C13*%
X139380000Y-88620000D02*
X139380000Y-86380000D01*
X146620000Y-86380000D02*
X139380000Y-86380000D01*
X146620000Y-88620000D02*
X139380000Y-88620000D01*
X146620000Y-88620000D02*
X146620000Y-86380000D01*
%TO.C,R14*%
X125130000Y-77480000D02*
X125130000Y-84020000D01*
X125130000Y-84020000D02*
X125460000Y-84020000D01*
X125460000Y-77480000D02*
X125130000Y-77480000D01*
X127540000Y-77480000D02*
X127870000Y-77480000D01*
X127870000Y-77480000D02*
X127870000Y-84020000D01*
X127870000Y-84020000D02*
X127540000Y-84020000D01*
%TO.C,IN1*%
X121170000Y-86920000D02*
X122500000Y-86920000D01*
X121170000Y-88250000D02*
X121170000Y-86920000D01*
X121170000Y-89520000D02*
X121170000Y-89580000D01*
X121170000Y-89520000D02*
X123830000Y-89520000D01*
X121170000Y-89580000D02*
X123830000Y-89580000D01*
X123830000Y-89520000D02*
X123830000Y-89580000D01*
%TO.C,C2*%
X160630000Y-47880000D02*
X160630000Y-55120000D01*
X162870000Y-47880000D02*
X160630000Y-47880000D01*
X162870000Y-47880000D02*
X162870000Y-55120000D01*
X162870000Y-55120000D02*
X160630000Y-55120000D01*
%TO.C,GND1*%
X143170000Y-20670000D02*
X144500000Y-20670000D01*
X143170000Y-22000000D02*
X143170000Y-20670000D01*
X143170000Y-23270000D02*
X143170000Y-23330000D01*
X143170000Y-23270000D02*
X145830000Y-23270000D01*
X143170000Y-23330000D02*
X145830000Y-23330000D01*
X145830000Y-23270000D02*
X145830000Y-23330000D01*
%TO.C,R10*%
X164670000Y-84880000D02*
X171210000Y-84880000D01*
X164670000Y-85210000D02*
X164670000Y-84880000D01*
X164670000Y-87290000D02*
X164670000Y-87620000D01*
X164670000Y-87620000D02*
X171210000Y-87620000D01*
X171210000Y-84880000D02*
X171210000Y-85210000D01*
X171210000Y-87620000D02*
X171210000Y-87290000D01*
%TO.C,C4*%
X121130000Y-48880000D02*
X121130000Y-56120000D01*
X123370000Y-48880000D02*
X121130000Y-48880000D01*
X123370000Y-48880000D02*
X123370000Y-56120000D01*
X123370000Y-56120000D02*
X121130000Y-56120000D01*
%TO.C,GND2*%
X125170000Y-86920000D02*
X126500000Y-86920000D01*
X125170000Y-88250000D02*
X125170000Y-86920000D01*
X125170000Y-89520000D02*
X125170000Y-89580000D01*
X125170000Y-89520000D02*
X127830000Y-89520000D01*
X125170000Y-89580000D02*
X127830000Y-89580000D01*
X127830000Y-89520000D02*
X127830000Y-89580000D01*
%TO.C,Tone1*%
X153910000Y-54830000D02*
X153910000Y-52170000D01*
X143690000Y-54830000D02*
X153910000Y-54830000D01*
X143690000Y-54830000D02*
X143690000Y-52170000D01*
X143690000Y-52170000D02*
X153910000Y-52170000D01*
X142420000Y-54830000D02*
X141090000Y-54830000D01*
X141090000Y-54830000D02*
X141090000Y-53500000D01*
%TO.C,D1*%
X164880000Y-69130000D02*
X164880000Y-73370000D01*
X164880000Y-73370000D02*
X167120000Y-73370000D01*
X166000000Y-68480000D02*
X166000000Y-69130000D01*
X166000000Y-74020000D02*
X166000000Y-73370000D01*
X167120000Y-69130000D02*
X164880000Y-69130000D01*
X167120000Y-69730000D02*
X164880000Y-69730000D01*
X167120000Y-69850000D02*
X164880000Y-69850000D01*
X167120000Y-69970000D02*
X164880000Y-69970000D01*
X167120000Y-73370000D02*
X167120000Y-69130000D01*
%TO.C,GND3*%
X171670000Y-73670000D02*
X173000000Y-73670000D01*
X171670000Y-75000000D02*
X171670000Y-73670000D01*
X171670000Y-76270000D02*
X171670000Y-76330000D01*
X171670000Y-76270000D02*
X174330000Y-76270000D01*
X171670000Y-76330000D02*
X174330000Y-76330000D01*
X174330000Y-76270000D02*
X174330000Y-76330000D01*
%TO.C,R20*%
X132380000Y-77480000D02*
X132380000Y-84020000D01*
X132380000Y-84020000D02*
X132710000Y-84020000D01*
X132710000Y-77480000D02*
X132380000Y-77480000D01*
X134790000Y-77480000D02*
X135120000Y-77480000D01*
X135120000Y-77480000D02*
X135120000Y-84020000D01*
X135120000Y-84020000D02*
X134790000Y-84020000D01*
%TO.C,C11*%
X154880000Y-79870000D02*
X154880000Y-77630000D01*
X162120000Y-77630000D02*
X154880000Y-77630000D01*
X162120000Y-79870000D02*
X154880000Y-79870000D01*
X162120000Y-79870000D02*
X162120000Y-77630000D01*
%TO.C,R9*%
X120880000Y-58480000D02*
X120880000Y-65020000D01*
X120880000Y-65020000D02*
X121210000Y-65020000D01*
X121210000Y-58480000D02*
X120880000Y-58480000D01*
X123290000Y-58480000D02*
X123620000Y-58480000D01*
X123620000Y-58480000D02*
X123620000Y-65020000D01*
X123620000Y-65020000D02*
X123290000Y-65020000D01*
%TO.C,Q2*%
X162210000Y-86070000D02*
X162210000Y-82470000D01*
X157760000Y-84270000D02*
G75*
G02*
X162198478Y-82431522I2600000J0D01*
G01*
X162198478Y-86108478D02*
G75*
G02*
X157759999Y-84270000I-1838478J1838478D01*
G01*
%TO.C,Q4*%
X129530000Y-50650000D02*
X125930000Y-50650000D01*
X127730000Y-55100000D02*
G75*
G02*
X125891522Y-50661522I0J2600000D01*
G01*
X129568478Y-50661522D02*
G75*
G02*
X127730000Y-55100001I-1838478J-1838478D01*
G01*
%TO.C,Vol1*%
X159550000Y-46330000D02*
X159550000Y-45000000D01*
X160880000Y-46330000D02*
X159550000Y-46330000D01*
X162150000Y-43670000D02*
X172370000Y-43670000D01*
X162150000Y-46330000D02*
X162150000Y-43670000D01*
X162150000Y-46330000D02*
X172370000Y-46330000D01*
X172370000Y-46330000D02*
X172370000Y-43670000D01*
%TO.C,R7*%
X163630000Y-57480000D02*
X163960000Y-57480000D01*
X163630000Y-64020000D02*
X163630000Y-57480000D01*
X163960000Y-64020000D02*
X163630000Y-64020000D01*
X166040000Y-64020000D02*
X166370000Y-64020000D01*
X166370000Y-57480000D02*
X166040000Y-57480000D01*
X166370000Y-64020000D02*
X166370000Y-57480000D01*
%TO.C,R17*%
X139880000Y-77480000D02*
X140210000Y-77480000D01*
X139880000Y-84020000D02*
X139880000Y-77480000D01*
X140210000Y-84020000D02*
X139880000Y-84020000D01*
X142290000Y-84020000D02*
X142620000Y-84020000D01*
X142620000Y-77480000D02*
X142290000Y-77480000D01*
X142620000Y-84020000D02*
X142620000Y-77480000D01*
%TO.C,R21*%
X136130000Y-77420000D02*
X136130000Y-83960000D01*
X136130000Y-83960000D02*
X136460000Y-83960000D01*
X136460000Y-77420000D02*
X136130000Y-77420000D01*
X138540000Y-77420000D02*
X138870000Y-77420000D01*
X138870000Y-77420000D02*
X138870000Y-83960000D01*
X138870000Y-83960000D02*
X138540000Y-83960000D01*
%TO.C,D4*%
X146230000Y-76500000D02*
X146880000Y-76500000D01*
X146880000Y-75380000D02*
X146880000Y-77620000D01*
X146880000Y-77620000D02*
X151120000Y-77620000D01*
X147480000Y-75380000D02*
X147480000Y-77620000D01*
X147600000Y-75380000D02*
X147600000Y-77620000D01*
X147720000Y-75380000D02*
X147720000Y-77620000D01*
X151120000Y-75380000D02*
X146880000Y-75380000D01*
X151120000Y-77620000D02*
X151120000Y-75380000D01*
X151770000Y-76500000D02*
X151120000Y-76500000D01*
%TO.C,C10*%
X128380000Y-57130000D02*
X128380000Y-64370000D01*
X130620000Y-57130000D02*
X128380000Y-57130000D01*
X130620000Y-57130000D02*
X130620000Y-64370000D01*
X130620000Y-64370000D02*
X128380000Y-64370000D01*
%TO.C,R3*%
X167380000Y-57480000D02*
X167380000Y-64020000D01*
X167380000Y-64020000D02*
X167710000Y-64020000D01*
X167710000Y-57480000D02*
X167380000Y-57480000D01*
X169790000Y-57480000D02*
X170120000Y-57480000D01*
X170120000Y-57480000D02*
X170120000Y-64020000D01*
X170120000Y-64020000D02*
X169790000Y-64020000D01*
%TO.C,R6*%
X160130000Y-57480000D02*
X160460000Y-57480000D01*
X160130000Y-64020000D02*
X160130000Y-57480000D01*
X160460000Y-64020000D02*
X160130000Y-64020000D01*
X162540000Y-64020000D02*
X162870000Y-64020000D01*
X162870000Y-57480000D02*
X162540000Y-57480000D01*
X162870000Y-64020000D02*
X162870000Y-57480000D01*
%TO.C,R22*%
X128630000Y-77480000D02*
X128630000Y-84020000D01*
X128630000Y-84020000D02*
X128960000Y-84020000D01*
X128960000Y-77480000D02*
X128630000Y-77480000D01*
X131040000Y-77480000D02*
X131370000Y-77480000D01*
X131370000Y-77480000D02*
X131370000Y-84020000D01*
X131370000Y-84020000D02*
X131040000Y-84020000D01*
%TO.C,C1*%
X120509000Y-71402000D02*
X120509000Y-70598000D01*
X120549000Y-71633000D02*
X120549000Y-70367000D01*
X120589000Y-71802000D02*
X120589000Y-70198000D01*
X120629000Y-71940000D02*
X120629000Y-70060000D01*
X120669000Y-72059000D02*
X120669000Y-69941000D01*
X120709000Y-72165000D02*
X120709000Y-69835000D01*
X120749000Y-72262000D02*
X120749000Y-69738000D01*
X120789000Y-72350000D02*
X120789000Y-69650000D01*
X120829000Y-72432000D02*
X120829000Y-69568000D01*
X120869000Y-72509000D02*
X120869000Y-69491000D01*
X120909000Y-72581000D02*
X120909000Y-69419000D01*
X120949000Y-72650000D02*
X120949000Y-69350000D01*
X120989000Y-72714000D02*
X120989000Y-69286000D01*
X121029000Y-72776000D02*
X121029000Y-69224000D01*
X121069000Y-72834000D02*
X121069000Y-69166000D01*
X121109000Y-72890000D02*
X121109000Y-69110000D01*
X121149000Y-72944000D02*
X121149000Y-69056000D01*
X121189000Y-72995000D02*
X121189000Y-69005000D01*
X121229000Y-73044000D02*
X121229000Y-68956000D01*
X121269000Y-73092000D02*
X121269000Y-68908000D01*
X121309000Y-73137000D02*
X121309000Y-68863000D01*
X121349000Y-73182000D02*
X121349000Y-68818000D01*
X121389000Y-73224000D02*
X121389000Y-68776000D01*
X121429000Y-73265000D02*
X121429000Y-68735000D01*
X121469000Y-69960000D02*
X121469000Y-68695000D01*
X121469000Y-73305000D02*
X121469000Y-72040000D01*
X121509000Y-69960000D02*
X121509000Y-68657000D01*
X121509000Y-73343000D02*
X121509000Y-72040000D01*
X121549000Y-69960000D02*
X121549000Y-68620000D01*
X121549000Y-73380000D02*
X121549000Y-72040000D01*
X121589000Y-69960000D02*
X121589000Y-68584000D01*
X121589000Y-73416000D02*
X121589000Y-72040000D01*
X121629000Y-69960000D02*
X121629000Y-68550000D01*
X121629000Y-73450000D02*
X121629000Y-72040000D01*
X121669000Y-69960000D02*
X121669000Y-68516000D01*
X121669000Y-73484000D02*
X121669000Y-72040000D01*
X121709000Y-69960000D02*
X121709000Y-68484000D01*
X121709000Y-73516000D02*
X121709000Y-72040000D01*
X121749000Y-69960000D02*
X121749000Y-68452000D01*
X121749000Y-73548000D02*
X121749000Y-72040000D01*
X121789000Y-69960000D02*
X121789000Y-68422000D01*
X121789000Y-73578000D02*
X121789000Y-72040000D01*
X121829000Y-69960000D02*
X121829000Y-68393000D01*
X121829000Y-73607000D02*
X121829000Y-72040000D01*
X121869000Y-69960000D02*
X121869000Y-68364000D01*
X121869000Y-73636000D02*
X121869000Y-72040000D01*
X121909000Y-69960000D02*
X121909000Y-68336000D01*
X121909000Y-73664000D02*
X121909000Y-72040000D01*
X121949000Y-69960000D02*
X121949000Y-68310000D01*
X121949000Y-73690000D02*
X121949000Y-72040000D01*
X121989000Y-69960000D02*
X121989000Y-68284000D01*
X121989000Y-73716000D02*
X121989000Y-72040000D01*
X122029000Y-69960000D02*
X122029000Y-68258000D01*
X122029000Y-73742000D02*
X122029000Y-72040000D01*
X122069000Y-69960000D02*
X122069000Y-68234000D01*
X122069000Y-73766000D02*
X122069000Y-72040000D01*
X122109000Y-69960000D02*
X122109000Y-68210000D01*
X122109000Y-73790000D02*
X122109000Y-72040000D01*
X122149000Y-69960000D02*
X122149000Y-68188000D01*
X122149000Y-73812000D02*
X122149000Y-72040000D01*
X122189000Y-69960000D02*
X122189000Y-68166000D01*
X122189000Y-73834000D02*
X122189000Y-72040000D01*
X122229000Y-69960000D02*
X122229000Y-68144000D01*
X122229000Y-73856000D02*
X122229000Y-72040000D01*
X122269000Y-69960000D02*
X122269000Y-68124000D01*
X122269000Y-73876000D02*
X122269000Y-72040000D01*
X122309000Y-69960000D02*
X122309000Y-68104000D01*
X122309000Y-73896000D02*
X122309000Y-72040000D01*
X122349000Y-69960000D02*
X122349000Y-68084000D01*
X122349000Y-73916000D02*
X122349000Y-72040000D01*
X122389000Y-69960000D02*
X122389000Y-68066000D01*
X122389000Y-73934000D02*
X122389000Y-72040000D01*
X122429000Y-69960000D02*
X122429000Y-68048000D01*
X122429000Y-73952000D02*
X122429000Y-72040000D01*
X122469000Y-69960000D02*
X122469000Y-68030000D01*
X122469000Y-73970000D02*
X122469000Y-72040000D01*
X122509000Y-69960000D02*
X122509000Y-68014000D01*
X122509000Y-73986000D02*
X122509000Y-72040000D01*
X122549000Y-69960000D02*
X122549000Y-67998000D01*
X122549000Y-74002000D02*
X122549000Y-72040000D01*
X122589000Y-69960000D02*
X122589000Y-67982000D01*
X122589000Y-74018000D02*
X122589000Y-72040000D01*
X122629000Y-69960000D02*
X122629000Y-67967000D01*
X122629000Y-74033000D02*
X122629000Y-72040000D01*
X122669000Y-69960000D02*
X122669000Y-67953000D01*
X122669000Y-74047000D02*
X122669000Y-72040000D01*
X122709000Y-69960000D02*
X122709000Y-67939000D01*
X122709000Y-74061000D02*
X122709000Y-72040000D01*
X122749000Y-69960000D02*
X122749000Y-67926000D01*
X122749000Y-74074000D02*
X122749000Y-72040000D01*
X122789000Y-69960000D02*
X122789000Y-67914000D01*
X122789000Y-74086000D02*
X122789000Y-72040000D01*
X122829000Y-69960000D02*
X122829000Y-67902000D01*
X122829000Y-74098000D02*
X122829000Y-72040000D01*
X122869000Y-69960000D02*
X122869000Y-67890000D01*
X122869000Y-74110000D02*
X122869000Y-72040000D01*
X122909000Y-69960000D02*
X122909000Y-67879000D01*
X122909000Y-74121000D02*
X122909000Y-72040000D01*
X122949000Y-69960000D02*
X122949000Y-67869000D01*
X122949000Y-74131000D02*
X122949000Y-72040000D01*
X122989000Y-69960000D02*
X122989000Y-67859000D01*
X122989000Y-74141000D02*
X122989000Y-72040000D01*
X123029000Y-69960000D02*
X123029000Y-67850000D01*
X123029000Y-74150000D02*
X123029000Y-72040000D01*
X123070000Y-69960000D02*
X123070000Y-67841000D01*
X123070000Y-74159000D02*
X123070000Y-72040000D01*
X123110000Y-69960000D02*
X123110000Y-67833000D01*
X123110000Y-74167000D02*
X123110000Y-72040000D01*
X123150000Y-69960000D02*
X123150000Y-67825000D01*
X123150000Y-74175000D02*
X123150000Y-72040000D01*
X123190000Y-69960000D02*
X123190000Y-67818000D01*
X123190000Y-74182000D02*
X123190000Y-72040000D01*
X123230000Y-69960000D02*
X123230000Y-67811000D01*
X123230000Y-74189000D02*
X123230000Y-72040000D01*
X123270000Y-69960000D02*
X123270000Y-67805000D01*
X123270000Y-74195000D02*
X123270000Y-72040000D01*
X123310000Y-69960000D02*
X123310000Y-67799000D01*
X123310000Y-74201000D02*
X123310000Y-72040000D01*
X123350000Y-69960000D02*
X123350000Y-67794000D01*
X123350000Y-74206000D02*
X123350000Y-72040000D01*
X123390000Y-69960000D02*
X123390000Y-67789000D01*
X123390000Y-74211000D02*
X123390000Y-72040000D01*
X123430000Y-69960000D02*
X123430000Y-67785000D01*
X123430000Y-74215000D02*
X123430000Y-72040000D01*
X123470000Y-69960000D02*
X123470000Y-67782000D01*
X123470000Y-74218000D02*
X123470000Y-72040000D01*
X123510000Y-69960000D02*
X123510000Y-67778000D01*
X123510000Y-74222000D02*
X123510000Y-72040000D01*
X123550000Y-74224000D02*
X123550000Y-67776000D01*
X123590000Y-74227000D02*
X123590000Y-67773000D01*
X123630000Y-74228000D02*
X123630000Y-67772000D01*
X123670000Y-74230000D02*
X123670000Y-67770000D01*
X123710000Y-74230000D02*
X123710000Y-67770000D01*
X123750000Y-74230000D02*
X123750000Y-67770000D01*
X126935241Y-73154000D02*
X126935241Y-72524000D01*
X127250241Y-72839000D02*
X126620241Y-72839000D01*
X127020000Y-71000000D02*
G75*
G02*
X120480000Y-71000000I-3270000J0D01*
G01*
X120480000Y-71000000D02*
G75*
G02*
X127020000Y-71000000I3270000J0D01*
G01*
%TO.C,C12*%
X132630000Y-64380000D02*
X134870000Y-64380000D01*
X132630000Y-71620000D02*
X132630000Y-64380000D01*
X132630000Y-71620000D02*
X134870000Y-71620000D01*
X134870000Y-71620000D02*
X134870000Y-64380000D01*
%TO.C,C7*%
X154009000Y-73402000D02*
X154009000Y-72598000D01*
X154049000Y-73633000D02*
X154049000Y-72367000D01*
X154089000Y-73802000D02*
X154089000Y-72198000D01*
X154129000Y-73940000D02*
X154129000Y-72060000D01*
X154169000Y-74059000D02*
X154169000Y-71941000D01*
X154209000Y-74165000D02*
X154209000Y-71835000D01*
X154249000Y-74262000D02*
X154249000Y-71738000D01*
X154289000Y-74350000D02*
X154289000Y-71650000D01*
X154329000Y-74432000D02*
X154329000Y-71568000D01*
X154369000Y-74509000D02*
X154369000Y-71491000D01*
X154409000Y-74581000D02*
X154409000Y-71419000D01*
X154449000Y-74650000D02*
X154449000Y-71350000D01*
X154489000Y-74714000D02*
X154489000Y-71286000D01*
X154529000Y-74776000D02*
X154529000Y-71224000D01*
X154569000Y-74834000D02*
X154569000Y-71166000D01*
X154609000Y-74890000D02*
X154609000Y-71110000D01*
X154649000Y-74944000D02*
X154649000Y-71056000D01*
X154689000Y-74995000D02*
X154689000Y-71005000D01*
X154729000Y-75044000D02*
X154729000Y-70956000D01*
X154769000Y-75092000D02*
X154769000Y-70908000D01*
X154809000Y-75137000D02*
X154809000Y-70863000D01*
X154849000Y-75182000D02*
X154849000Y-70818000D01*
X154889000Y-75224000D02*
X154889000Y-70776000D01*
X154929000Y-75265000D02*
X154929000Y-70735000D01*
X154969000Y-71960000D02*
X154969000Y-70695000D01*
X154969000Y-75305000D02*
X154969000Y-74040000D01*
X155009000Y-71960000D02*
X155009000Y-70657000D01*
X155009000Y-75343000D02*
X155009000Y-74040000D01*
X155049000Y-71960000D02*
X155049000Y-70620000D01*
X155049000Y-75380000D02*
X155049000Y-74040000D01*
X155089000Y-71960000D02*
X155089000Y-70584000D01*
X155089000Y-75416000D02*
X155089000Y-74040000D01*
X155129000Y-71960000D02*
X155129000Y-70550000D01*
X155129000Y-75450000D02*
X155129000Y-74040000D01*
X155169000Y-71960000D02*
X155169000Y-70516000D01*
X155169000Y-75484000D02*
X155169000Y-74040000D01*
X155209000Y-71960000D02*
X155209000Y-70484000D01*
X155209000Y-75516000D02*
X155209000Y-74040000D01*
X155249000Y-71960000D02*
X155249000Y-70452000D01*
X155249000Y-75548000D02*
X155249000Y-74040000D01*
X155289000Y-71960000D02*
X155289000Y-70422000D01*
X155289000Y-75578000D02*
X155289000Y-74040000D01*
X155329000Y-71960000D02*
X155329000Y-70393000D01*
X155329000Y-75607000D02*
X155329000Y-74040000D01*
X155369000Y-71960000D02*
X155369000Y-70364000D01*
X155369000Y-75636000D02*
X155369000Y-74040000D01*
X155409000Y-71960000D02*
X155409000Y-70336000D01*
X155409000Y-75664000D02*
X155409000Y-74040000D01*
X155449000Y-71960000D02*
X155449000Y-70310000D01*
X155449000Y-75690000D02*
X155449000Y-74040000D01*
X155489000Y-71960000D02*
X155489000Y-70284000D01*
X155489000Y-75716000D02*
X155489000Y-74040000D01*
X155529000Y-71960000D02*
X155529000Y-70258000D01*
X155529000Y-75742000D02*
X155529000Y-74040000D01*
X155569000Y-71960000D02*
X155569000Y-70234000D01*
X155569000Y-75766000D02*
X155569000Y-74040000D01*
X155609000Y-71960000D02*
X155609000Y-70210000D01*
X155609000Y-75790000D02*
X155609000Y-74040000D01*
X155649000Y-71960000D02*
X155649000Y-70188000D01*
X155649000Y-75812000D02*
X155649000Y-74040000D01*
X155689000Y-71960000D02*
X155689000Y-70166000D01*
X155689000Y-75834000D02*
X155689000Y-74040000D01*
X155729000Y-71960000D02*
X155729000Y-70144000D01*
X155729000Y-75856000D02*
X155729000Y-74040000D01*
X155769000Y-71960000D02*
X155769000Y-70124000D01*
X155769000Y-75876000D02*
X155769000Y-74040000D01*
X155809000Y-71960000D02*
X155809000Y-70104000D01*
X155809000Y-75896000D02*
X155809000Y-74040000D01*
X155849000Y-71960000D02*
X155849000Y-70084000D01*
X155849000Y-75916000D02*
X155849000Y-74040000D01*
X155889000Y-71960000D02*
X155889000Y-70066000D01*
X155889000Y-75934000D02*
X155889000Y-74040000D01*
X155929000Y-71960000D02*
X155929000Y-70048000D01*
X155929000Y-75952000D02*
X155929000Y-74040000D01*
X155969000Y-71960000D02*
X155969000Y-70030000D01*
X155969000Y-75970000D02*
X155969000Y-74040000D01*
X156009000Y-71960000D02*
X156009000Y-70014000D01*
X156009000Y-75986000D02*
X156009000Y-74040000D01*
X156049000Y-71960000D02*
X156049000Y-69998000D01*
X156049000Y-76002000D02*
X156049000Y-74040000D01*
X156089000Y-71960000D02*
X156089000Y-69982000D01*
X156089000Y-76018000D02*
X156089000Y-74040000D01*
X156129000Y-71960000D02*
X156129000Y-69967000D01*
X156129000Y-76033000D02*
X156129000Y-74040000D01*
X156169000Y-71960000D02*
X156169000Y-69953000D01*
X156169000Y-76047000D02*
X156169000Y-74040000D01*
X156209000Y-71960000D02*
X156209000Y-69939000D01*
X156209000Y-76061000D02*
X156209000Y-74040000D01*
X156249000Y-71960000D02*
X156249000Y-69926000D01*
X156249000Y-76074000D02*
X156249000Y-74040000D01*
X156289000Y-71960000D02*
X156289000Y-69914000D01*
X156289000Y-76086000D02*
X156289000Y-74040000D01*
X156329000Y-71960000D02*
X156329000Y-69902000D01*
X156329000Y-76098000D02*
X156329000Y-74040000D01*
X156369000Y-71960000D02*
X156369000Y-69890000D01*
X156369000Y-76110000D02*
X156369000Y-74040000D01*
X156409000Y-71960000D02*
X156409000Y-69879000D01*
X156409000Y-76121000D02*
X156409000Y-74040000D01*
X156449000Y-71960000D02*
X156449000Y-69869000D01*
X156449000Y-76131000D02*
X156449000Y-74040000D01*
X156489000Y-71960000D02*
X156489000Y-69859000D01*
X156489000Y-76141000D02*
X156489000Y-74040000D01*
X156529000Y-71960000D02*
X156529000Y-69850000D01*
X156529000Y-76150000D02*
X156529000Y-74040000D01*
X156570000Y-71960000D02*
X156570000Y-69841000D01*
X156570000Y-76159000D02*
X156570000Y-74040000D01*
X156610000Y-71960000D02*
X156610000Y-69833000D01*
X156610000Y-76167000D02*
X156610000Y-74040000D01*
X156650000Y-71960000D02*
X156650000Y-69825000D01*
X156650000Y-76175000D02*
X156650000Y-74040000D01*
X156690000Y-71960000D02*
X156690000Y-69818000D01*
X156690000Y-76182000D02*
X156690000Y-74040000D01*
X156730000Y-71960000D02*
X156730000Y-69811000D01*
X156730000Y-76189000D02*
X156730000Y-74040000D01*
X156770000Y-71960000D02*
X156770000Y-69805000D01*
X156770000Y-76195000D02*
X156770000Y-74040000D01*
X156810000Y-71960000D02*
X156810000Y-69799000D01*
X156810000Y-76201000D02*
X156810000Y-74040000D01*
X156850000Y-71960000D02*
X156850000Y-69794000D01*
X156850000Y-76206000D02*
X156850000Y-74040000D01*
X156890000Y-71960000D02*
X156890000Y-69789000D01*
X156890000Y-76211000D02*
X156890000Y-74040000D01*
X156930000Y-71960000D02*
X156930000Y-69785000D01*
X156930000Y-76215000D02*
X156930000Y-74040000D01*
X156970000Y-71960000D02*
X156970000Y-69782000D01*
X156970000Y-76218000D02*
X156970000Y-74040000D01*
X157010000Y-71960000D02*
X157010000Y-69778000D01*
X157010000Y-76222000D02*
X157010000Y-74040000D01*
X157050000Y-76224000D02*
X157050000Y-69776000D01*
X157090000Y-76227000D02*
X157090000Y-69773000D01*
X157130000Y-76228000D02*
X157130000Y-69772000D01*
X157170000Y-76230000D02*
X157170000Y-69770000D01*
X157210000Y-76230000D02*
X157210000Y-69770000D01*
X157250000Y-76230000D02*
X157250000Y-69770000D01*
X160435241Y-75154000D02*
X160435241Y-74524000D01*
X160750241Y-74839000D02*
X160120241Y-74839000D01*
X160520000Y-73000000D02*
G75*
G02*
X153980000Y-73000000I-3270000J0D01*
G01*
X153980000Y-73000000D02*
G75*
G02*
X160520000Y-73000000I3270000J0D01*
G01*
%TO.C,R4*%
X170630000Y-57480000D02*
X170630000Y-64020000D01*
X170630000Y-64020000D02*
X170960000Y-64020000D01*
X170960000Y-57480000D02*
X170630000Y-57480000D01*
X173040000Y-57480000D02*
X173370000Y-57480000D01*
X173370000Y-57480000D02*
X173370000Y-64020000D01*
X173370000Y-64020000D02*
X173040000Y-64020000D01*
%TO.C,C3*%
X154880000Y-54380000D02*
X157120000Y-54380000D01*
X154880000Y-61620000D02*
X154880000Y-54380000D01*
X154880000Y-61620000D02*
X157120000Y-61620000D01*
X157120000Y-61620000D02*
X157120000Y-54380000D01*
%TD*%
%LPC*%
D13*
%TO.C,GND4*%
X130500000Y-88250000D03*
%TD*%
%TO.C,+9V1*%
X144500000Y-26000000D03*
%TD*%
D14*
%TO.C,D3*%
X145130000Y-79750000D03*
D15*
X152750000Y-79750000D03*
%TD*%
D13*
%TO.C,+9V2*%
X155750000Y-67500000D03*
%TD*%
D16*
%TO.C,R16*%
X163880000Y-82750000D03*
D14*
X171500000Y-82750000D03*
%TD*%
D16*
%TO.C,R23*%
X134250000Y-49440000D03*
D14*
X134250000Y-57060000D03*
%TD*%
D16*
%TO.C,C8*%
X149000000Y-57750000D03*
X149000000Y-62750000D03*
%TD*%
D13*
%TO.C,OUT1*%
X173000000Y-70250000D03*
%TD*%
D16*
%TO.C,R2*%
X122500000Y-76690000D03*
D14*
X122500000Y-84310000D03*
%TD*%
D17*
%TO.C,Q1*%
X167770000Y-50980000D03*
D18*
X166500000Y-52250000D03*
X165230000Y-50980000D03*
%TD*%
D16*
%TO.C,C5*%
X138250000Y-54750000D03*
X138250000Y-49750000D03*
%TD*%
%TO.C,R5*%
X142500000Y-64810000D03*
D14*
X142500000Y-57190000D03*
%TD*%
D16*
%TO.C,R11*%
X169500000Y-67380000D03*
D14*
X169500000Y-75000000D03*
%TD*%
D16*
%TO.C,R8*%
X152500000Y-56690000D03*
D14*
X152500000Y-64310000D03*
%TD*%
D13*
%TO.C,Sustain1*%
X123880000Y-45000000D03*
D19*
X126420000Y-45000000D03*
X128960000Y-45000000D03*
X131500000Y-45000000D03*
X134040000Y-45000000D03*
%TD*%
D16*
%TO.C,R12*%
X156060000Y-87000000D03*
D14*
X148440000Y-87000000D03*
%TD*%
D17*
%TO.C,Q3*%
X137210000Y-70250000D03*
D18*
X138480000Y-68980000D03*
X139750000Y-70250000D03*
%TD*%
D15*
%TO.C,C6*%
X149000000Y-71000000D03*
D16*
X149000000Y-68500000D03*
%TD*%
%TO.C,R13*%
X126000000Y-65620000D03*
D14*
X126000000Y-58000000D03*
%TD*%
D15*
%TO.C,D2*%
X162750000Y-75060000D03*
D14*
X162750000Y-67440000D03*
%TD*%
D16*
%TO.C,R18*%
X152750000Y-83000000D03*
D14*
X145130000Y-83000000D03*
%TD*%
D16*
%TO.C,C9*%
X146000000Y-57750000D03*
X146000000Y-62750000D03*
%TD*%
%TO.C,R15*%
X171310000Y-78750000D03*
D14*
X163690000Y-78750000D03*
%TD*%
D15*
%TO.C,C14*%
X151000000Y-25182380D03*
D16*
X151000000Y-22682380D03*
%TD*%
%TO.C,R19*%
X138250000Y-65560000D03*
D14*
X138250000Y-57940000D03*
%TD*%
D16*
%TO.C,C13*%
X145500000Y-87500000D03*
X140500000Y-87500000D03*
%TD*%
%TO.C,R14*%
X126500000Y-76940000D03*
D14*
X126500000Y-84560000D03*
%TD*%
D13*
%TO.C,IN1*%
X122500000Y-88250000D03*
%TD*%
D16*
%TO.C,C2*%
X161750000Y-49000000D03*
X161750000Y-54000000D03*
%TD*%
D13*
%TO.C,GND1*%
X144500000Y-22000000D03*
%TD*%
D16*
%TO.C,R10*%
X164130000Y-86250000D03*
D14*
X171750000Y-86250000D03*
%TD*%
D16*
%TO.C,C4*%
X122250000Y-50000000D03*
X122250000Y-55000000D03*
%TD*%
D13*
%TO.C,GND2*%
X126500000Y-88250000D03*
%TD*%
D19*
%TO.C,Tone1*%
X152580000Y-53500000D03*
X150040000Y-53500000D03*
X147500000Y-53500000D03*
X144960000Y-53500000D03*
D13*
X142420000Y-53500000D03*
%TD*%
D15*
%TO.C,D1*%
X166000000Y-67440000D03*
D14*
X166000000Y-75060000D03*
%TD*%
D13*
%TO.C,GND3*%
X173000000Y-75000000D03*
%TD*%
D16*
%TO.C,R20*%
X133750000Y-76940000D03*
D14*
X133750000Y-84560000D03*
%TD*%
D16*
%TO.C,C11*%
X161000000Y-78750000D03*
X156000000Y-78750000D03*
%TD*%
%TO.C,R9*%
X122250000Y-57940000D03*
D14*
X122250000Y-65560000D03*
%TD*%
D17*
%TO.C,Q2*%
X160360000Y-85540000D03*
D18*
X159090000Y-84270000D03*
X160360000Y-83000000D03*
%TD*%
D17*
%TO.C,Q4*%
X129000000Y-52500000D03*
D18*
X127730000Y-53770000D03*
X126460000Y-52500000D03*
%TD*%
D13*
%TO.C,Vol1*%
X160880000Y-45000000D03*
D19*
X163420000Y-45000000D03*
X165960000Y-45000000D03*
X168500000Y-45000000D03*
X171040000Y-45000000D03*
%TD*%
D16*
%TO.C,R7*%
X165000000Y-64560000D03*
D14*
X165000000Y-56940000D03*
%TD*%
D16*
%TO.C,R17*%
X141250000Y-84560000D03*
D14*
X141250000Y-76940000D03*
%TD*%
D16*
%TO.C,R21*%
X137500000Y-76880000D03*
D14*
X137500000Y-84500000D03*
%TD*%
D15*
%TO.C,D4*%
X145190000Y-76500000D03*
D14*
X152810000Y-76500000D03*
%TD*%
D16*
%TO.C,C10*%
X129500000Y-58250000D03*
X129500000Y-63250000D03*
%TD*%
%TO.C,R3*%
X168750000Y-56940000D03*
D14*
X168750000Y-64560000D03*
%TD*%
D16*
%TO.C,R6*%
X161500000Y-64560000D03*
D14*
X161500000Y-56940000D03*
%TD*%
D16*
%TO.C,R22*%
X130000000Y-76940000D03*
D14*
X130000000Y-84560000D03*
%TD*%
D15*
%TO.C,C1*%
X125000000Y-71000000D03*
D16*
X122500000Y-71000000D03*
%TD*%
%TO.C,C12*%
X133750000Y-70500000D03*
X133750000Y-65500000D03*
%TD*%
D15*
%TO.C,C7*%
X158500000Y-73000000D03*
D16*
X156000000Y-73000000D03*
%TD*%
%TO.C,R4*%
X172000000Y-56940000D03*
D14*
X172000000Y-64560000D03*
%TD*%
D16*
%TO.C,C3*%
X156000000Y-60500000D03*
X156000000Y-55500000D03*
%TD*%
%LPD*%
M02*
